<svg xmlns="http://www.w3.org/2000/svg">
<defs>
<font id="RingofKerry" horiz-adv-x="150" >
  <font-face 
    font-family="Ring of Kerry"
    font-weight="400"
    font-stretch="normal"
    units-per-em="2048"
    panose-1="2 0 5 0 0 0 0 0 0 0"
    ascent="1638"
    descent="-410"
    x-height="1623"
    cap-height="1637"
    bbox="-205.117 -1045 3024.51 2304"
    underline-thickness="150"
    underline-position="-292"
    unicode-range="U+001D-2265"
  />
<missing-glyph horiz-adv-x="2448" 
d="M467 417h-66v325h66v-96c7 7 15 13 24 17s19 6 28 6c53 0 80 -34 80 -102v-150h-66v145c0 27 -11 41 -33 41s-33 -14 -33 -41v-145zM733 480c6 0 13 2 22 5c7 3 13 8 18 13s9 12 12 19c3 6 4 14 4 24s-1 18 -4 23c-3 7 -7 14 -12 19c-4 6 -10 11 -18 14c-5 3 -13 4 -22 4
s-17 -1 -22 -4c-8 -3 -14 -8 -18 -14c-5 -5 -9 -12 -12 -19c-3 -9 -5 -16 -5 -23c0 -6 2 -14 5 -24c3 -7 7 -14 12 -19s11 -10 18 -13c9 -3 16 -5 22 -5zM797 636l60 35v-254h-65v33h-2c-11 -22 -33 -33 -66 -33h-4c-15 0 -28 3 -41 9s-25 15 -38 26c-11 11 -19 24 -25 39
c-6 13 -9 28 -9 43v9c0 14 3 28 8 43c7 17 16 31 25 41c11 12 23 21 38 28c13 7 28 10 46 10c31 0 55 -10 73 -29zM876 417v254h65v-41c5 13 10 22 13 27c5 7 10 13 15 16c7 3 15 6 22 7c15 1 24 2 28 2l-21 -76c-18 0 -31 -4 -38 -12c-7 -9 -11 -23 -11 -41v-136h-73z
M1026 417v325h72v-185h1l53 113h87l-63 -124l76 -129h-89l-64 110h-1v-110h-72zM1243 445l37 50c15 -15 32 -22 52 -22c21 0 32 6 32 19c0 7 -6 12 -18 15c-4 2 -10 4 -19 5c-7 1 -14 3 -21 6l-10 4l-10 4c-3 2 -6 4 -8 6c-3 2 -6 5 -9 8c-5 5 -8 12 -11 21
c-3 6 -4 16 -4 29c0 14 2 25 7 34c5 10 12 18 20 24c8 7 17 12 28 15c9 3 20 4 35 4c14 0 28 -3 42 -9c13 -6 25 -14 36 -24l-39 -41c-11 9 -24 14 -38 14c-16 0 -24 -5 -24 -14s6 -15 17 -18c3 -1 7 -2 13 -3l8 -2l9 -2c11 -3 22 -7 31 -12s17 -13 24 -23c5 -7 8 -17 8 -31
v-9c0 -15 -2 -26 -7 -35c-5 -10 -12 -18 -21 -25c-7 -7 -17 -12 -30 -16c-13 -3 -25 -5 -35 -5c-15 0 -24 0 -27 1c-9 1 -16 3 -23 6l-11 5l-11 5l-11 8zM1506 417h-67v325h67v-96c6 7 14 13 23 17s19 6 28 6c54 0 81 -34 81 -102v-150h-67v145c0 27 -11 41 -33 41

<glyph glyph-name=".notdef" horiz-adv-x="2448" 
d="M467 417h-66v325h66v-96c7 7 15 13 24 17s19 6 28 6c53 0 80 -34 80 -102v-150h-66v145c0 27 -11 41 -33 41s-33 -14 -33 -41v-145zM733 480c6 0 13 2 22 5c7 3 13 8 18 13s9 12 12 19c3 6 4 14 4 24s-1 18 -4 23c-3 7 -7 14 -12 19c-4 6 -10 11 -18 14c-5 3 -13 4 -22 4
s-17 -1 -22 -4c-8 -3 -14 -8 -18 -14c-5 -5 -9 -12 -12 -19c-3 -9 -5 -16 -5 -23c0 -6 2 -14 5 -24c3 -7 7 -14 12 -19s11 -10 18 -13c9 -3 16 -5 22 -5zM797 636l60 35v-254h-65v33h-2c-11 -22 -33 -33 -66 -33h-4c-15 0 -28 3 -41 9s-25 15 -38 26c-11 11 -19 24 -25 39
c-6 13 -9 28 -9 43v9c0 14 3 28 8 43c7 17 16 31 25 41c11 12 23 21 38 28c13 7 28 10 46 10c31 0 55 -10 73 -29zM876 417v254h65v-41c5 13 10 22 13 27c5 7 10 13 15 16c7 3 15 6 22 7c15 1 24 2 28 2l-21 -76c-18 0 -31 -4 -38 -12c-7 -9 -11 -23 -11 -41v-136h-73z
M1026 417v325h72v-185h1l53 113h87l-63 -124l76 -129h-89l-64 110h-1v-110h-72zM1243 445l37 50c15 -15 32 -22 52 -22c21 0 32 6 32 19c0 7 -6 12 -18 15c-4 2 -10 4 -19 5c-7 1 -14 3 -21 6l-10 4l-10 4c-3 2 -6 4 -8 6c-3 2 -6 5 -9 8c-5 5 -8 12 -11 21
c-3 6 -4 16 -4 29c0 14 2 25 7 34c5 10 12 18 20 24c8 7 17 12 28 15c9 3 20 4 35 4c14 0 28 -3 42 -9c13 -6 25 -14 36 -24l-39 -41c-11 9 -24 14 -38 14c-16 0 -24 -5 -24 -14s6 -15 17 -18c3 -1 7 -2 13 -3l8 -2l9 -2c11 -3 22 -7 31 -12s17 -13 24 -23c5 -7 8 -17 8 -31
v-9c0 -15 -2 -26 -7 -35c-5 -10 -12 -18 -21 -25c-7 -7 -17 -12 -30 -16c-13 -3 -25 -5 -35 -5c-15 0 -24 0 -27 1c-9 1 -16 3 -23 6l-11 5l-11 5l-11 8zM1506 417h-67v325h67v-96c6 7 14 13 23 17s19 6 28 6c54 0 81 -34 81 -102v-150h-67v145c0 27 -11 41 -33 41
c-21 0 -32 -14 -32 -41v-145zM1818 500c12 11 18 25 18 42c0 6 -2 13 -5 22s-8 15 -13 19c-4 5 -10 10 -19 13s-16 5 -23 5c-6 0 -13 -2 -22 -5c-7 -3 -13 -7 -19 -13c-5 -5 -10 -12 -13 -19c-3 -9 -5 -16 -5 -22c0 -17 6 -31 18 -42c13 -12 27 -18 41 -18c15 0 29 6 42 18z
M1656 493c-7 17 -10 33 -10 46v3c0 17 4 33 11 50c8 17 17 30 28 40c14 11 28 20 42 26c15 6 32 9 49 9s34 -3 50 -9c13 -5 27 -14 42 -26c12 -11 22 -25 29 -40c7 -13 10 -30 10 -50s-3 -37 -10 -50c-7 -15 -17 -29 -29 -40c-13 -12 -27 -21 -42 -27
c-14 -7 -31 -10 -50 -10c-18 0 -34 3 -48 10c-16 7 -30 16 -43 27c-12 11 -22 25 -29 41zM2082 660v-74c-15 11 -31 17 -47 17c-17 0 -31 -6 -42 -17s-17 -25 -17 -42c0 -7 2 -16 5 -26c4 -9 8 -16 12 -22s10 -11 18 -14c9 -3 17 -5 25 -5c19 0 34 6 47 18v-72
c-9 -5 -17 -8 -25 -9c-15 -1 -22 -2 -23 -2h-9c-16 0 -31 3 -44 9c-16 7 -30 16 -42 28c-11 11 -20 25 -27 40c-6 13 -9 27 -9 42v4c0 19 3 37 9 54c7 16 16 30 28 42s26 21 42 27s33 9 52 9c4 1 8 1 12 1c13 0 25 -3 35 -8zM2102 417v325h72v-185h1l52 113h88l-64 -124
l76 -129h-88l-64 110h-1v-110h-72zM2384 759c-6 6 -13 9 -22 9s-16 -3 -22 -9s-9 -13 -9 -22s3 -16 9 -22s13 -9 22 -9s16 3 22 9s9 13 9 22s-3 16 -9 22zM2387 711c-7 -7 -16 -11 -25 -11c-10 0 -19 4 -26 11s-10 15 -10 26c0 10 3 18 10 25s16 11 26 11c9 0 18 -4 25 -11
s11 -16 11 -25c0 -10 -4 -19 -11 -26zM2351 753v-13h17l3 3c1 1 1 2 1 3c0 2 -1 4 -2 5s-3 2 -6 2h-13zM2351 717h-6v40h18c5 0 7 0 8 -1c2 -1 4 -2 5 -3c1 -4 2 -6 2 -7c0 -3 -1 -5 -3 -7s-5 -3 -9 -3c1 -1 3 -2 4 -2l2 -3l2 -3l7 -11h-7l-5 9l-2 3l-2 2l-3 3
c-1 1 -1 1 -2 1h-9v-18zM1266 1430l-1 15v14l-6 -21c4 -4 6 -7 7 -8zM1467 1190v-2c0 -21 -10 -51 -31 -90c-3 -17 -10 -30 -21 -41c-11 -27 -30 -56 -59 -89l-3 -4l-2 -3c-3 -3 -6 -6 -8 -7l-6 -7l-5 -5l-8 -8l-3 -3l-2 -2l-1 -1c-3 -3 -8 -13 -17 -28l-13 -31l-16 -26
l-11 -12l-5 -10l-1 -1l-1 -2l-3 -3c-1 -1 -1 -1 -2 -1h-1l-1 1c-1 -1 -2 -2 -3 -2h-1c-1 1 -1 1 -1 2c-1 -1 -2 -1 -3 -1h-1c-1 1 -2 3 -2 5v3l3 11l9 21c5 9 7 15 7 18v1c-1 5 -2 8 -2 9c0 11 9 17 27 20l1 2v4c0 11 2 22 7 31c1 5 4 12 9 22c9 19 18 30 28 34
c1 7 3 13 6 18c0 1 0 1 1 2s2 3 3 5c3 4 6 8 9 13c6 7 10 13 12 20c1 1 1 3 1 7v6l1 6c0 7 1 13 3 18v1c0 8 7 18 20 29l3 4l3 4c-5 1 -9 9 -12 22c-1 4 -2 10 -3 18c-1 7 -2 13 -3 16c-7 1 -12 6 -17 13v-4c0 -13 -3 -20 -10 -20s-16 6 -25 18c0 -9 -3 -17 -8 -22
c-4 -5 -9 -7 -15 -7c-15 1 -22 11 -22 31c-11 -14 -19 -21 -24 -21c-1 0 -3 1 -4 2c-2 3 -4 16 -6 40c-11 -14 -19 -21 -26 -21c-2 0 -4 1 -5 2c-4 3 -6 10 -6 20c0 1 0 3 1 6v5l1 6c-5 -5 -10 -7 -17 -7c-5 0 -11 2 -16 6c-3 5 -5 9 -5 12v2c1 5 6 10 14 14
c-20 0 -33 3 -38 8c4 4 9 6 16 7c9 1 14 2 17 4c3 1 5 3 8 6l-8 -2c-2 0 -4 1 -5 2c-3 2 -5 6 -5 13v3c-9 -13 -15 -19 -19 -19c-1 0 -2 1 -2 3l2 14l1 6l1 6l2 8c-7 -7 -14 -14 -19 -20c-4 -5 -6 -7 -6 -8l-1 2v2c0 7 2 16 6 27c-13 -13 -22 -19 -28 -19c-3 0 -5 3 -5 9
c0 1 0 3 1 6v5l1 6c-9 -17 -17 -28 -25 -31v5c0 5 2 12 6 20c3 5 6 11 8 16l1 3l1 3l1 2v1l-3 -3l-3 -4c-3 -3 -7 -7 -10 -11c-6 -8 -11 -13 -16 -15v-1c1 0 2 4 3 11l1 6l1 8c1 6 1 12 2 17c-6 -6 -12 -9 -18 -9h-2c-6 1 -9 5 -10 13c0 5 3 12 8 19c6 7 9 13 9 18
c-13 -7 -22 -12 -25 -13c-1 -1 -4 -1 -9 -1s-8 2 -10 6c-1 1 -1 3 -1 7c0 5 3 11 9 18c7 8 14 13 22 14l-7 -1h-6c-3 -1 -6 -1 -7 -1c-11 0 -18 4 -19 11v2c0 6 4 11 12 15l2 1l2 1l7 3l5 2l4 2c-16 7 -24 13 -24 17c0 1 0 1 1 2s13 5 35 12l-1 1l-1 2c-2 1 -4 3 -6 4l-3 3
l-3 3l-3 2c-4 5 -6 10 -6 13s0 5 1 6s2 1 5 1s9 -2 18 -5s15 -5 18 -5h3c-1 3 -6 10 -15 22c-3 5 -4 8 -4 11c0 4 2 6 7 6h1c7 0 13 -4 20 -13c9 -11 15 -17 18 -18c-12 55 -20 82 -23 82l-1 -1c16 -9 32 -33 49 -73c-7 21 -11 43 -12 68l-1 6v5c0 15 3 23 8 23h2l3 -1h-1
v-1c0 -5 7 -24 21 -58l1 -3l1 -3c1 -2 2 -4 3 -7c2 -7 5 -14 8 -22c7 -12 11 -24 13 -36c-11 43 -16 82 -16 115c0 35 7 56 21 65c7 -5 10 -15 10 -31v-8c0 -5 0 -9 -1 -11l-1 -5v-11c1 -9 3 -23 6 -41l3 -13l2 -12l1 -9l1 -6c0 73 10 125 30 157c6 -3 9 -12 9 -29
c0 -9 -1 -21 -3 -35c-6 -45 -9 -69 -9 -74v-1c0 1 0 3 1 4l2 6l2 10l3 11l3 14l4 15c3 9 5 17 7 22c13 41 25 61 37 61c1 0 2 0 3 -1c-1 -16 -7 -38 -20 -66s-20 -51 -22 -68c9 27 21 51 38 74c21 29 44 46 68 51c-1 -14 -21 -38 -60 -72c-23 -37 -35 -74 -35 -111v-13l1 -7
c1 -10 4 -19 8 -27c9 48 36 98 80 150c21 25 42 47 64 65h11c-27 -15 -53 -43 -78 -85c36 26 78 39 125 40l-3 -11c-81 -2 -130 -32 -147 -90c-5 -13 -7 -30 -7 -49c0 -25 5 -55 15 -88l4 -2l2 -2c9 -9 19 -28 31 -58c0 5 3 10 8 15c5 4 11 6 16 6h2v-1l17 14
c-7 -6 -12 -11 -14 -14h3l2 -1h1c5 3 7 6 7 9v-1l-2 -6l6 4l-8 -6l1 -1l8 4l-7 -5h1c3 1 6 4 9 7c-1 -3 -3 -5 -7 -8l17 2c1 -1 2 -2 2 -3v-1l-2 -2h6c1 0 1 0 1 -1s0 -2 -1 -3c2 0 3 -1 3 -3v-3c5 0 7 -1 8 -4v-2c0 -1 -1 -3 -3 -5c-4 -4 -6 -7 -6 -10v-1l2 -4l2 -4l2 -5
l2 -4c5 -5 7 -8 8 -9l1 1v-1c1 1 2 1 3 1c6 0 11 -3 16 -10c7 -7 11 -16 13 -28c1 -2 1 -6 1 -12c0 -9 -2 -17 -6 -23l1 -7v-6c1 -4 1 -7 1 -8zM390 507l-321 -201l52 105l-121 100l366 230v-89l-86 -54zM222 562l-17 -11l-5 -3l71 -59l11 23zM202 461l-61 50l-22 -14
l71 -59z" />
    <glyph glyph-name="uni0000" horiz-adv-x="0" 
 />
    <glyph glyph-name="uni0000" horiz-adv-x="0" 
 />
    <glyph glyph-name="CR" horiz-adv-x="508" 
 />
    <glyph glyph-name="space" unicode=" " horiz-adv-x="600" 
 />
    <glyph glyph-name="space" unicode="&#xa0;" horiz-adv-x="600" 
 />
    <glyph glyph-name="exclam" unicode="!" horiz-adv-x="432" 
d="M254 1893v-1222c0 -15 -11 -32 -34 -52c-19 -17 -45 -35 -76 -52c-28 -15 -53 -27 -75 -35c-23 -7 -35 -8 -35 -1v1222c0 15 12 32 35 52c19 17 44 35 75 52c28 15 53 27 76 35c23 7 34 8 34 1zM141 252c11 0 21 -4 30 -13l98 -98c9 -9 13 -19 13 -30
c0 -12 -4 -22 -13 -30l-98 -99c-9 -8 -19 -12 -30 -12c-12 0 -22 4 -30 12l-99 99c-8 8 -12 18 -12 30c0 11 4 21 12 30l99 98c8 9 18 13 30 13z" />
    <glyph glyph-name="quotedbl" unicode="&#x22;" horiz-adv-x="688" 
d="M220 1893v-388c0 -15 -11 -32 -34 -52c-19 -17 -45 -35 -76 -52c-28 -15 -53 -27 -75 -35c-23 -7 -35 -8 -35 -1v388c0 15 12 32 35 52c19 17 44 35 75 52c28 15 53 27 76 35c23 7 34 8 34 1zM538 1893v-388c0 -15 -11 -32 -34 -52c-19 -17 -45 -35 -76 -52
c-28 -15 -53 -27 -75 -35c-23 -7 -35 -8 -35 -1v388c0 15 12 32 35 52c19 17 44 35 75 52c28 15 53 27 76 35c23 7 34 8 34 1z" />
    <glyph glyph-name="numbersign" unicode="#" horiz-adv-x="1501" 
d="M482 755h337l75 307h-337zM1248 1872c21 8 32 11 31 8l-159 -652h230c1 0 -1 -2 -4 -7c-4 -5 -9 -11 -15 -18c-17 -20 -34 -39 -52 -58c-56 -55 -100 -83 -131 -83h-68l-75 -307h239c1 0 -1 -2 -4 -7c-4 -5 -9 -11 -15 -19c-17 -19 -34 -38 -52 -57
c-25 -24 -47 -43 -67 -57c-25 -17 -46 -26 -63 -26h-78l-159 -652c-4 -16 -18 -33 -42 -52c-19 -16 -44 -32 -75 -48c-25 -13 -49 -23 -72 -32c-21 -8 -32 -11 -31 -8l193 792h-338l-158 -652c-4 -16 -18 -33 -42 -52c-20 -16 -45 -32 -76 -48c-25 -13 -49 -23 -72 -32
c-21 -8 -32 -11 -31 -8l193 792h-254c-1 0 1 2 5 7c3 5 8 12 15 19c16 20 33 39 52 57c55 55 99 83 130 83h93l74 307h-263c-1 0 1 2 5 7c3 5 8 12 14 19c17 20 34 39 53 57c55 55 99 83 130 83h102l124 511c4 17 18 34 42 53c20 16 45 32 76 47c25 13 49 24 72 33
c21 8 32 11 31 8l-159 -652h337l125 511c4 17 18 34 42 53c19 16 44 32 75 47c25 13 49 24 72 33z" />
    <glyph glyph-name="dollar" unicode="$" horiz-adv-x="1466" 
d="M685 1568v-463c14 -3 28 -7 43 -10c74 -15 135 -30 184 -45c71 -22 132 -47 182 -75c131 -73 200 -173 208 -300c9 -145 -39 -280 -146 -407c-95 -115 -217 -200 -364 -257c-36 -14 -72 -25 -107 -33v-170h-60v158c-98 -14 -193 -5 -285 27c-149 51 -259 152 -331 305
c-6 12 1 29 22 50c17 19 42 38 73 58c29 19 56 34 81 44c25 11 40 13 43 7c44 -94 103 -170 178 -228c67 -51 140 -84 219 -99v763l-36 9c-85 21 -151 43 -199 66c-75 35 -136 78 -182 130c-46 51 -74 106 -85 164c-10 59 -1 117 28 174c30 61 80 115 151 164
c115 79 222 127 323 145v169h60v-162c19 1 37 1 56 0c149 -9 272 -94 371 -253c13 -21 -18 -57 -92 -108c-29 -21 -56 -36 -80 -46c-27 -11 -42 -13 -47 -5c-22 35 -40 63 -55 84c-22 31 -44 58 -65 79c-28 29 -57 50 -88 65zM685 878v-756c59 -4 116 4 171 24
c57 21 105 52 145 93c41 43 68 92 81 147c15 59 12 121 -8 185c-23 76 -61 137 -114 183c-43 38 -100 69 -171 94c-27 9 -60 19 -98 29zM625 1124v465c-9 2 -19 3 -29 4c-81 7 -148 -4 -203 -31c-71 -35 -91 -91 -60 -168c51 -128 149 -218 292 -270z" />
    <glyph glyph-name="percent" unicode="%" horiz-adv-x="1853" 
d="M961 570c81 85 175 141 280 170c111 31 215 16 311 -45c101 -65 148 -156 142 -274c-6 -102 -52 -198 -139 -289c-81 -85 -175 -142 -280 -171c-116 -32 -219 -17 -308 45c-90 63 -138 154 -145 275c6 102 52 198 139 289zM276 -57l919 1753c13 25 54 56 123 94
c28 15 50 25 66 29c18 5 24 2 17 -10l-919 -1753c-6 -12 -22 -27 -47 -46c-23 -17 -48 -33 -76 -48s-50 -25 -66 -30c-18 -5 -24 -1 -17 11zM1082 273c36 -53 82 -96 139 -127c61 -33 115 -43 164 -29c55 24 87 66 96 127c10 60 -5 120 -45 180c-36 53 -82 96 -139 127
c-61 33 -115 43 -164 29c-56 -16 -88 -58 -97 -125c-7 -64 8 -125 46 -182zM139 1620c81 85 175 141 280 170c111 31 215 16 311 -45c101 -65 148 -156 142 -274c-6 -102 -52 -198 -139 -289c-81 -85 -175 -142 -280 -171c-116 -32 -219 -17 -308 45
c-90 63 -138 154 -145 275c6 102 52 198 139 289zM260 1323c36 -53 82 -96 139 -127c61 -33 115 -43 164 -29c55 24 87 66 96 127c10 60 -5 120 -45 180c-36 53 -82 96 -139 127c-61 33 -115 43 -164 29c-56 -16 -88 -58 -97 -125c-7 -64 8 -125 46 -182z" />
    <glyph glyph-name="ampersand" unicode="&#x26;" horiz-adv-x="1731" 
d="M636 1452c1 34 -11 62 -35 83s-52 -1 -83 -68s-14 -136 50 -209c44 73 67 137 68 194zM1350 1297c7 -73 31 -152 73 -237s67 -134 74 -149c18 -40 32 -76 43 -108c27 -85 33 -159 16 -224c-55 -213 -211 -398 -468 -554c-101 -61 -204 -99 -310 -116
c-119 -19 -228 -7 -327 36c-121 53 -223 128 -305 227c-97 118 -131 235 -100 352c24 145 139 313 346 504c-90 93 -125 194 -104 303c17 87 58 169 123 247c65 79 129 126 190 141c61 16 119 9 172 -22c53 -30 79 -65 78 -106s-12 -82 -31 -121
c-41 -86 -106 -181 -194 -285c29 -31 79 -76 150 -135c72 -59 118 -98 137 -118c100 -105 136 -223 109 -356c-3 -16 -17 -34 -40 -53c-20 -16 -45 -32 -76 -48c-25 -13 -50 -24 -73 -32c-21 -8 -32 -11 -31 -8c24 117 -6 223 -91 318c-29 33 -76 74 -141 125
c-64 51 -105 83 -122 98c-25 -31 -46 -58 -64 -83c-93 -129 -127 -257 -101 -385c25 -128 107 -237 244 -327c163 -107 319 -141 469 -102c131 33 229 109 292 227c64 119 71 242 22 367c-13 33 -46 104 -101 213c-54 109 -92 207 -113 293c-21 87 60 217 245 391
c28 15 50 25 66 29c17 5 23 2 17 -9c-57 -104 -82 -202 -74 -293z" />
    <glyph glyph-name="quotesingle" unicode="'" horiz-adv-x="370" 
d="M220 1893v-388c0 -15 -11 -32 -34 -52c-19 -17 -45 -35 -76 -52c-28 -15 -53 -27 -75 -35c-23 -7 -35 -8 -35 -1v388c0 15 12 32 35 52c19 17 44 35 75 52c28 15 53 27 76 35c23 7 34 8 34 1z" />
    <glyph glyph-name="parenleft" unicode="(" horiz-adv-x="828" 
d="M514 -439c-27 -18 -47 -22 -60 -11c-149 125 -262 293 -341 504c-75 205 -109 425 -101 660c16 444 167 854 452 1231c51 67 102 116 154 145c22 12 36 13 42 4s0 -25 -17 -48c-146 -193 -254 -397 -324 -613c-78 -240 -105 -483 -81 -730c41 -423 186 -739 435 -948
c3 -3 -4 -17 -21 -43c-18 -27 -39 -54 -63 -81c-28 -32 -53 -55 -75 -70z" />
    <glyph glyph-name="parenright" unicode=")" horiz-adv-x="828" 
d="M164 2083c27 18 47 22 60 11c149 -125 262 -293 340 -504c76 -204 110 -424 101 -659c-15 -445 -166 -855 -451 -1232c-51 -67 -102 -116 -155 -145c-21 -12 -35 -13 -41 -4s0 25 17 48c145 193 253 397 324 613c78 240 105 483 81 730c-41 423 -186 739 -435 948
c-3 3 4 18 21 43c18 27 39 54 62 81c29 32 54 55 76 70z" />
    <glyph glyph-name="asterisk" unicode="*" horiz-adv-x="609" 
d="M459 1751l-141 -82l104 -132l-92 -73l-100 126l-101 -126l-92 73l104 132l-141 82l59 102l112 -65v136h118v-135l111 64z" />
    <glyph glyph-name="plus" unicode="+" horiz-adv-x="928" 
d="M306 587v283h-283c-15 0 -11 14 12 41c8 9 17 19 28 30l10 10l3 3l2 1l7 6l8 6l16 13c13 11 26 20 37 27c31 19 57 29 79 29h81v81c0 22 10 48 29 79c7 11 16 24 27 37l13 16l6 8l6 7l1 2l3 3l10 10c11 11 21 20 30 28c27 23 41 27 41 12v-283h283c15 0 11 -14 -13 -41
c-7 -9 -16 -19 -27 -29c-3 -4 -7 -7 -10 -10l-4 -4l-1 -1l-7 -6l-8 -6l-16 -13c-14 -11 -26 -20 -37 -27c-31 -19 -57 -29 -79 -29h-81v-81c0 -22 -10 -48 -29 -79c-7 -11 -16 -23 -27 -37l-13 -16l-6 -8l-6 -7l-1 -1l-4 -4c-3 -3 -6 -7 -10 -10c-10 -11 -20 -20 -29 -27
c-27 -24 -41 -28 -41 -13z" />
    <glyph glyph-name="comma" unicode="," horiz-adv-x="432" 
d="M282 111l-3 -16c-1 -37 -16 -81 -44 -132l-17 -30c-7 -11 -13 -21 -19 -30c-15 -22 -31 -39 -46 -52c-15 -11 -30 -15 -45 -12c-17 3 -27 14 -30 32c-3 17 -1 36 8 59c3 7 7 16 13 28l6 14l3 13l-96 96c-8 8 -12 18 -12 30c0 11 4 21 12 30l99 98c8 9 18 13 30 13
c11 0 21 -4 30 -13l98 -98c9 -9 13 -19 13 -30z" />
    <glyph glyph-name="hyphen" unicode="-" horiz-adv-x="928" 
d="M225 1036h530c15 0 11 -14 -13 -41c-7 -9 -16 -19 -27 -29c-3 -4 -7 -7 -10 -10l-4 -4l-1 -1l-7 -6l-8 -6l-16 -13c-14 -11 -26 -20 -37 -27c-31 -19 -57 -29 -79 -29h-530c-15 0 -11 14 12 41c8 9 17 19 28 30l10 10l3 3c1 1 2 1 2 1l7 6l8 6l16 13c13 11 26 20 37 27
c31 19 57 29 79 29z" />
    <glyph glyph-name="hyphen" unicode="&#xad;" horiz-adv-x="928" 
d="M225 1036h530c15 0 11 -14 -13 -41c-7 -9 -16 -19 -27 -29c-3 -4 -7 -7 -10 -10l-4 -4l-1 -1l-7 -6l-8 -6l-16 -13c-14 -11 -26 -20 -37 -27c-31 -19 -57 -29 -79 -29h-530c-15 0 -11 14 12 41c8 9 17 19 28 30l10 10l3 3c1 1 2 1 2 1l7 6l8 6l16 13c13 11 26 20 37 27
c31 19 57 29 79 29z" />
    <glyph glyph-name="period" unicode="." horiz-adv-x="432" 
d="M141 252c11 0 21 -4 30 -13l98 -98c9 -9 13 -19 13 -30c0 -12 -4 -22 -13 -30l-98 -99c-9 -8 -19 -12 -30 -12c-12 0 -22 4 -30 12l-99 99c-8 8 -12 18 -12 30c0 11 4 21 12 30l99 98c8 9 18 13 30 13z" />
    <glyph glyph-name="slash" unicode="/" horiz-adv-x="1305" 
d="M1013 1895c9 6 20 14 35 23c0 0 2 1 5 3c4 2 8 4 13 6c14 7 26 12 37 17c35 13 49 13 43 0l-916 -2063c-10 -22 -28 -44 -53 -66c-10 -8 -22 -17 -35 -26c-9 -6 -20 -14 -35 -23c-1 0 -2 -1 -5 -3c-4 -2 -8 -4 -13 -6c-14 -7 -26 -12 -37 -17c-35 -13 -49 -13 -43 0
l916 2063c10 22 28 44 53 66c10 8 22 17 35 26z" />
    <glyph glyph-name="zero" unicode="0" horiz-adv-x="1498" 
d="M839 151c78 7 133 32 166 75c79 101 116 217 113 346c-3 131 -44 250 -122 355c-81 109 -183 177 -304 202c-29 6 -59 10 -88 13c-36 3 -69 4 -99 1c-78 -7 -133 -31 -166 -74c-71 -93 -109 -208 -113 -346c3 -131 44 -250 122 -355c81 -110 183 -177 304 -202
c29 -6 59 -10 88 -13c36 -3 69 -4 99 -2zM213 1053c129 137 280 223 453 258c84 17 168 14 252 -10c81 -23 154 -62 219 -119c66 -56 117 -123 153 -201c39 -82 57 -168 54 -258c-5 -177 -76 -337 -213 -482c-129 -136 -280 -222 -453 -257c-87 -18 -172 -15 -255 9
c-79 23 -151 62 -214 119c-63 56 -113 123 -149 202c-37 81 -57 167 -60 258c5 176 76 336 213 481z" />
    <glyph glyph-name="one" unicode="1" horiz-adv-x="662" 
d="M225 1343h275c8 -1 11 -5 9 -13v-1205c0 -29 -37 -63 -110 -104c-28 -15 -53 -27 -76 -35c-23 -7 -34 -8 -34 -2v1186v6h-266c-15 0 -11 14 12 42c8 9 17 18 28 29l10 10l3 3c1 1 2 1 2 2l7 5l8 7l16 13c13 11 26 19 37 26c31 20 57 30 79 30z" />
    <glyph glyph-name="two" unicode="2" horiz-adv-x="1399" 
d="M467 166h759c15 0 11 -14 -12 -41c-8 -9 -17 -19 -27 -29c-4 -4 -8 -7 -11 -10c-1 -1 -2 -3 -3 -4s-1 -1 -2 -1l-7 -6l-7 -6l-17 -13c-13 -11 -26 -20 -37 -27c-30 -19 -56 -29 -79 -29h-1001c-15 0 -11 14 12 41c8 9 17 19 28 30l10 10l3 3c1 1 2 1 2 1
c12 10 22 18 29 24c12 9 23 16 33 23c25 17 49 27 70 32c112 25 217 61 315 110c117 58 205 125 265 200c67 84 109 175 126 272c19 113 -2 208 -63 285c-59 75 -139 130 -239 164c-117 40 -203 21 -258 -58c-59 -86 -88 -175 -86 -266c1 -97 38 -182 109 -255
c5 -5 -1 -19 -19 -40c-17 -20 -40 -41 -68 -63c-71 -55 -115 -74 -132 -56c-101 104 -136 227 -103 370c30 128 105 245 224 350c119 106 246 168 381 186c150 20 273 -22 370 -126c100 -107 131 -238 93 -392c-33 -132 -105 -252 -218 -360c-131 -125 -278 -232 -440 -319z
" />
    <glyph glyph-name="three" unicode="3" horiz-adv-x="1607" 
d="M836 819c106 -9 195 -35 266 -78c146 -87 242 -212 287 -375c45 -162 30 -319 -46 -472c-67 -135 -173 -250 -319 -345c-153 -99 -302 -143 -447 -131c-166 13 -303 80 -411 201c-106 119 -161 262 -165 429c-1 15 11 32 34 52c19 17 44 35 75 52c29 16 54 28 76 35
c23 8 35 8 35 1c3 -139 47 -265 132 -378c89 -118 201 -190 336 -215c72 -13 138 -17 197 -10c80 9 138 35 174 78c93 111 138 240 135 385c-3 139 -47 265 -132 378c-89 118 -201 190 -335 215c-60 11 -133 16 -220 16l-56 -1l-55 -1c-49 -1 -85 -2 -110 -2
c-16 0 -8 17 25 52c11 11 23 24 37 37c5 5 10 9 14 12s6 5 7 6l565 416h-661c-15 0 -11 14 13 42c7 9 16 18 27 29l10 10c1 1 3 2 4 3s1 1 1 2l7 5l8 7l16 13c13 11 26 19 37 26c31 20 57 30 79 30h723c16 0 8 -17 -25 -52c-11 -11 -23 -24 -37 -37c-5 -5 -10 -9 -14 -13
c-4 -3 -6 -5 -7 -6l-564 -415l70 2l71 1c55 1 102 -1 143 -4z" />
    <glyph glyph-name="four" unicode="4" horiz-adv-x="1555" 
d="M234 164h652v962zM1107 164h275c15 0 11 -14 -12 -42c-8 -9 -17 -18 -28 -29l-10 -10l-3 -3l-2 -2l-7 -5l-8 -7l-16 -13c-13 -11 -26 -19 -37 -26c-31 -20 -57 -30 -79 -30h-73v-423c0 -29 -37 -63 -110 -104c-29 -15 -54 -27 -76 -35c-23 -7 -35 -8 -35 -2v564h-874
c-8 0 -11 4 -10 11l3 9c1 3 3 5 4 7l884 1304c5 7 18 19 41 37c23 19 48 36 73 53c67 45 100 57 100 36v-1290z" />
    <glyph glyph-name="five" unicode="5" horiz-adv-x="1554" 
d="M696 761c79 1 143 -3 194 -12c101 -19 192 -58 272 -117c84 -62 145 -139 182 -230c40 -99 54 -199 42 -301c-11 -95 -43 -186 -98 -274c-108 -175 -264 -298 -469 -369c-97 -34 -196 -44 -295 -31c-95 13 -181 46 -259 99c-79 53 -142 122 -188 205
c-48 87 -73 182 -76 286c-1 28 36 63 109 104c29 16 54 28 76 35c23 8 35 8 35 1c4 -133 48 -252 131 -359c87 -111 195 -178 324 -201c73 -14 140 -18 200 -11c81 9 139 35 176 79c85 103 125 221 121 352c-3 133 -47 253 -131 360c-86 110 -194 177 -324 201
c-59 11 -131 16 -217 16l-55 -1l-55 -1c-49 -1 -85 -2 -109 -2c-8 1 -11 5 -9 13l111 586c6 29 35 62 88 99c52 37 93 55 123 55h733c15 0 11 -14 -12 -42c-8 -9 -17 -18 -28 -29l-10 -10l-3 -3l-2 -2l-7 -6l-8 -6l-16 -13c-13 -11 -26 -19 -37 -26c-31 -20 -57 -30 -79 -30
h-551l-30 -161l-40 -210l-10 -49h6c23 0 56 1 97 2l49 2z" />
    <glyph glyph-name="six" unicode="6" horiz-adv-x="1463" 
d="M821 137c76 6 130 29 162 69c69 86 106 193 110 322c-3 122 -43 232 -119 331c-79 102 -178 164 -296 187c-29 6 -58 10 -86 13c-35 3 -67 3 -97 1c-75 -6 -129 -29 -162 -69c-47 -59 -79 -126 -97 -203c-5 -35 -9 -69 -10 -102c0 -3 -1 -7 -2 -12v-6
c3 -122 43 -232 119 -330c79 -102 177 -165 295 -188c29 -6 58 -10 86 -12c35 -3 68 -4 97 -1zM330 1076c101 71 209 118 323 140c85 17 167 14 248 -8c77 -21 147 -58 209 -111c61 -53 110 -116 145 -189c37 -75 56 -155 58 -240c-5 -164 -74 -313 -207 -448
c-127 -127 -274 -207 -442 -240c-82 -16 -164 -13 -246 9c-78 21 -149 58 -213 111c-65 53 -115 115 -150 187c-37 77 -54 157 -52 241c1 22 3 44 6 65c22 249 143 488 364 718c192 201 417 355 674 464c22 9 36 10 41 3s0 -19 -16 -37c-45 -50 -96 -88 -155 -113
c-122 -51 -235 -125 -338 -222c-104 -98 -187 -208 -249 -330z" />
    <glyph glyph-name="seven" unicode="7" horiz-adv-x="1319" 
d="M390 1342h768c7 -1 -61 -105 -204 -310s-259 -404 -350 -596c-91 -191 -143 -334 -157 -427c-40 -256 39 -406 238 -449c15 -3 12 -18 -11 -43c-7 -8 -16 -17 -27 -27c-4 -3 -8 -7 -11 -10l-4 -3l-2 -2l-6 -5l-7 -6c-6 -5 -11 -9 -16 -13c-15 -11 -28 -21 -39 -29
c-34 -23 -60 -32 -79 -28c-203 45 -294 171 -272 378c23 207 78 391 165 553c87 163 191 333 312 510c121 178 197 291 228 338h-669c-41 -1 -80 -27 -119 -77s-60 -76 -64 -78c-11 -4 -21 -7 -29 -9c-23 -5 -28 2 -14 23l27 41l27 41c21 31 40 56 56 77
c45 55 93 97 146 126c29 16 66 24 113 25z" />
    <glyph glyph-name="eight" unicode="8" horiz-adv-x="1209" 
d="M639 951c61 -4 101 4 118 25c51 63 78 143 81 242c-3 87 -30 166 -81 238c-54 76 -122 125 -205 147c-17 4 -35 8 -54 11c-25 5 -49 9 -71 10c-61 5 -101 -3 -118 -24c-57 -71 -84 -152 -81 -242c3 -87 30 -167 81 -239c54 -76 122 -125 205 -146c17 -5 34 -9 53 -12
c26 -5 50 -8 72 -10zM639 109c61 -5 101 4 118 25c51 62 78 142 81 241c-3 87 -30 167 -81 239c-54 76 -122 125 -205 146c-17 5 -35 9 -54 12c-25 5 -49 8 -71 10c-61 5 -101 -4 -118 -25c-57 -71 -84 -152 -81 -241c3 -87 30 -167 81 -239c54 -76 122 -125 205 -146
c17 -5 34 -9 53 -12c26 -5 50 -9 72 -10zM893 1693c105 -81 161 -193 166 -335c-3 -83 -31 -166 -83 -248c-49 -77 -112 -144 -191 -199c80 -31 144 -80 193 -148c50 -71 77 -154 81 -247c-5 -127 -61 -247 -170 -359c-104 -108 -221 -174 -351 -198
c-136 -25 -258 2 -367 81c-114 83 -169 195 -164 335c3 84 31 167 83 249c49 77 113 144 192 200c-84 31 -151 79 -200 146c-53 72 -78 155 -75 248c5 127 61 246 170 358c104 108 221 174 351 198c139 26 261 -1 365 -81z" />
    <glyph glyph-name="nine" unicode="9" horiz-adv-x="1464" 
d="M818 231c75 6 129 29 162 69c47 59 80 126 97 203c5 35 9 69 10 102c0 3 1 7 3 11v6c-3 123 -43 233 -120 331c-79 102 -177 165 -295 188c-29 6 -58 10 -86 12c-35 3 -67 4 -97 1c-75 -6 -129 -29 -162 -69c-69 -86 -106 -193 -110 -322c3 -122 43 -232 120 -331
c79 -102 177 -165 295 -188c29 -5 58 -9 86 -12c35 -3 68 -4 97 -1zM208 1071c126 127 273 207 441 240c82 16 164 13 246 -10c79 -21 150 -58 213 -110c65 -53 115 -115 150 -188c37 -76 55 -156 52 -240c-1 -22 -3 -44 -6 -65c-22 -249 -143 -488 -364 -718
c-192 -201 -417 -355 -674 -464c-22 -9 -36 -10 -41 -3s0 19 16 37c45 50 96 87 155 112c123 52 235 126 338 223c105 98 188 208 249 330c-101 -71 -209 -118 -322 -140c-85 -17 -168 -14 -249 8c-77 21 -146 58 -209 111c-61 53 -109 116 -145 189c-36 75 -55 155 -58 239
c5 165 74 314 208 449z" />
    <glyph glyph-name="colon" unicode=":" horiz-adv-x="432" 
d="M141 252c11 0 21 -4 30 -13l98 -98c9 -9 13 -19 13 -30c0 -12 -4 -22 -13 -30l-98 -99c-9 -8 -19 -12 -30 -12c-12 0 -22 4 -30 12l-99 99c-8 8 -12 18 -12 30c0 11 4 21 12 30l99 98c8 9 18 13 30 13zM141 1320c11 0 21 -4 30 -13l98 -98c9 -9 13 -19 13 -30
c0 -12 -4 -22 -13 -30l-98 -99c-9 -8 -19 -12 -30 -12c-12 0 -22 4 -30 12l-99 99c-8 8 -12 18 -12 30c0 11 4 21 12 30l99 98c8 9 18 13 30 13z" />
    <glyph glyph-name="semicolon" unicode=";" horiz-adv-x="432" 
d="M141 1320c11 0 21 -4 30 -13l98 -98c9 -9 13 -19 13 -30c0 -12 -4 -22 -13 -30l-98 -99c-9 -8 -19 -12 -30 -12c-12 0 -22 4 -30 12l-99 99c-8 8 -12 18 -12 30c0 11 4 21 12 30l99 98c8 9 18 13 30 13zM282 111l-3 -16c-1 -37 -16 -81 -44 -132l-17 -30
c-7 -11 -13 -21 -19 -30c-15 -22 -31 -39 -46 -52c-15 -11 -30 -15 -45 -12c-17 3 -27 14 -30 32c-3 17 -1 36 8 59c3 7 7 16 13 28l6 14l3 13l-96 96c-8 8 -12 18 -12 30c0 11 4 21 12 30l99 98c8 9 18 13 30 13c11 0 21 -4 30 -13l98 -98c9 -9 13 -19 13 -30z" />
    <glyph glyph-name="semicolon" unicode="&#x37e;" horiz-adv-x="432" 
d="M141 1320c11 0 21 -4 30 -13l98 -98c9 -9 13 -19 13 -30c0 -12 -4 -22 -13 -30l-98 -99c-9 -8 -19 -12 -30 -12c-12 0 -22 4 -30 12l-99 99c-8 8 -12 18 -12 30c0 11 4 21 12 30l99 98c8 9 18 13 30 13zM282 111l-3 -16c-1 -37 -16 -81 -44 -132l-17 -30
c-7 -11 -13 -21 -19 -30c-15 -22 -31 -39 -46 -52c-15 -11 -30 -15 -45 -12c-17 3 -27 14 -30 32c-3 17 -1 36 8 59c3 7 7 16 13 28l6 14l3 13l-96 96c-8 8 -12 18 -12 30c0 11 4 21 12 30l99 98c8 9 18 13 30 13c11 0 21 -4 30 -13l98 -98c9 -9 13 -19 13 -30z" />
    <glyph glyph-name="less" unicode="&#x3c;" horiz-adv-x="1141" 
d="M812 1196l-497 -230l672 -312s-2 -3 -6 -8c-5 -6 -11 -13 -18 -21c-19 -23 -39 -43 -60 -62c-27 -25 -51 -44 -72 -56c-27 -15 -48 -19 -63 -12l-750 348c-12 5 12 31 71 78c21 17 42 33 65 49c21 15 34 23 39 25l749 347c22 11 36 12 41 4c5 -7 0 -20 -16 -38
c-41 -46 -93 -83 -155 -112z" />
    <glyph glyph-name="equal" unicode="=" horiz-adv-x="928" 
d="M225 1176h530c15 0 11 -14 -13 -41c-7 -9 -16 -19 -27 -29c-3 -4 -7 -7 -10 -10l-4 -4l-1 -1l-7 -6l-8 -6l-16 -13c-14 -11 -26 -20 -37 -27c-31 -19 -57 -29 -79 -29h-530c-15 0 -11 14 12 41c8 9 17 19 28 30l10 10l3 3c1 1 2 1 2 1l7 6l8 6l16 13c13 11 26 20 37 27
c31 19 57 29 79 29zM225 896h530c15 0 11 -14 -13 -41c-7 -9 -16 -19 -27 -29c-3 -4 -7 -7 -10 -10l-4 -4l-1 -1l-7 -6l-8 -6l-16 -13c-14 -11 -26 -20 -37 -27c-31 -19 -57 -29 -79 -29h-530c-15 0 -11 14 12 41c8 9 17 19 28 30l10 10l3 3c1 1 2 1 2 1l7 6l8 6l16 13
c13 11 26 20 37 27c31 19 57 29 79 29z" />
    <glyph glyph-name="greater" unicode="&#x3e;" horiz-adv-x="1141" 
d="M178 647l498 230l-672 312c-1 0 1 3 6 8c5 6 11 13 18 21c19 23 39 43 59 62c27 25 52 44 73 56c27 15 48 19 63 12l750 -348c12 -5 -12 -31 -71 -78c-21 -17 -43 -33 -66 -49c-21 -15 -33 -23 -38 -25l-750 -347c-21 -11 -35 -12 -40 -4c-5 7 0 20 16 38
c41 46 92 83 154 112z" />
    <glyph glyph-name="question" unicode="?" horiz-adv-x="1593" 
d="M1399 1532c29 -113 9 -224 -60 -335c-52 -83 -145 -170 -278 -262l-38 -26l-37 -25c-27 -19 -49 -37 -65 -54c-43 -43 -64 -95 -63 -156c0 -15 -11 -32 -34 -52c-19 -17 -45 -35 -76 -52c-28 -15 -53 -27 -76 -35c-23 -7 -34 -8 -34 -1c-1 91 45 181 140 268
c34 31 77 65 129 101c17 12 39 27 66 45l31 21l30 19c81 55 131 132 152 231c21 102 4 193 -53 272c-55 77 -128 135 -221 174c-92 39 -186 52 -281 40c-63 -8 -121 -32 -174 -72c-51 -39 -90 -87 -118 -145c-29 -59 -41 -118 -37 -178c4 -65 27 -124 69 -176
c6 -7 0 -22 -19 -43c-17 -20 -41 -41 -70 -62c-72 -54 -115 -72 -130 -54c-101 125 -102 268 -3 427c39 61 91 123 158 186c53 51 113 99 178 144c109 76 224 121 343 136c130 16 249 -7 358 -70c113 -65 184 -154 213 -266zM743 252c11 0 21 -4 30 -13l98 -98
c9 -9 13 -19 13 -30c0 -12 -4 -22 -13 -30l-98 -99c-9 -8 -19 -12 -30 -12c-12 0 -22 4 -30 12l-99 99c-8 8 -12 18 -12 30c0 11 4 21 12 30l99 98c8 9 18 13 30 13z" />
    <glyph glyph-name="at" unicode="@" horiz-adv-x="1913" 
d="M1203 1634c128 -29 236 -89 323 -180c90 -95 151 -198 182 -310c37 -128 26 -245 -32 -351c-47 -87 -111 -166 -192 -238c-93 -83 -183 -129 -269 -138c-127 -15 -218 67 -273 246c-63 -70 -141 -128 -233 -174c-43 -22 -84 -35 -121 -38c-48 -5 -88 6 -121 31
c-36 29 -62 66 -77 112c-15 45 -19 90 -10 136c13 70 48 139 105 206c55 65 119 118 192 157c77 41 149 59 216 55c75 -5 134 -37 177 -98c1 17 10 28 25 31c15 4 23 -3 22 -22c5 -43 10 -82 15 -116c7 -48 17 -91 28 -130c30 -100 74 -168 132 -204c51 -31 94 -34 129 -7
c29 23 50 64 63 125c12 51 17 109 14 172c-2 59 -9 103 -22 134c-33 83 -81 160 -146 229c-65 70 -138 125 -219 166c-86 43 -173 65 -260 66c-95 2 -183 -21 -266 -68c-72 -41 -135 -100 -190 -177c-52 -73 -92 -155 -119 -248c-59 -199 -52 -374 21 -526
c149 -310 460 -428 934 -354c13 3 15 -4 5 -20c-9 -14 -26 -32 -49 -54s-46 -41 -69 -57c-26 -18 -46 -28 -59 -30c-153 -24 -281 -33 -384 -28c-147 7 -268 44 -363 109c-104 71 -182 164 -234 279s-70 235 -55 360c26 209 116 404 271 583s334 298 539 357
c126 36 249 41 370 14zM702 1009c-41 -5 -72 -27 -93 -67c-20 -40 -23 -86 -10 -138c13 -53 38 -96 77 -130s79 -49 120 -45c42 4 73 26 93 66s24 86 11 139s-39 96 -78 130s-79 49 -120 45z" />
    <glyph glyph-name="A" unicode="A" horiz-adv-x="2089" 
d="M455 179c145 -63 284 -90 416 -82c149 9 277 59 386 151c-61 91 -130 217 -207 378l-57 119l-56 120c-45 97 -84 176 -115 237l-26 51l-515 -787l-41 -63l6 -3c65 -48 134 -88 209 -121zM1816 -20c16 -5 37 -8 64 -10l22 -2l22 -2h3l5 -1c5 -1 7 -2 7 -3
c-1 -2 -4 -4 -10 -6l-6 -2l-3 -1h-2c-97 -27 -191 -31 -280 -14c-98 19 -179 62 -243 131c-32 35 -64 74 -97 119c-257 -206 -513 -294 -766 -263c-206 25 -382 96 -528 215c-3 9 -1 17 6 24l723 1107c-36 65 -71 121 -106 166c-71 93 -137 154 -200 181
c-31 13 -72 20 -122 21h-64c-25 0 -45 1 -62 3c-1 0 -4 0 -8 1s-8 1 -13 2c-12 3 -22 6 -30 9c-25 8 -25 15 0 21c57 13 124 22 201 27c126 8 244 -16 355 -71c114 -57 202 -139 264 -246l1 -1l1 -2c2 -3 4 -6 5 -9c6 -10 12 -21 19 -32c21 -37 42 -73 61 -108
c63 -112 108 -197 135 -255l51 -105l50 -106l40 -85l40 -85c31 -68 59 -125 83 -170c67 -127 136 -232 208 -313c39 -45 73 -78 101 -97c22 -19 46 -31 73 -38z" />
    <glyph glyph-name="B" unicode="B" horiz-adv-x="1770" 
d="M407 167c246 -46 461 -30 645 47c185 78 289 169 314 273c25 105 11 201 -40 288c-159 272 -466 381 -919 326v-934zM972 1454c-7 11 -17 21 -30 30c-17 11 -38 19 -63 24c-18 4 -40 7 -66 8c-37 2 -79 -2 -127 -11c-18 -4 -56 -14 -113 -29s-112 -31 -165 -49
c3 -42 4 -91 3 -148c33 3 71 5 115 6l115 4c95 3 171 9 229 18c39 5 70 22 95 50c28 31 30 64 7 97zM1035 1267c53 -9 103 -21 149 -38c121 -44 221 -112 300 -203c91 -105 129 -217 114 -336c-15 -116 -72 -227 -171 -334c-78 -83 -179 -161 -304 -232
c-159 -91 -363 -145 -610 -160l-327 5v1322c-3 55 -18 97 -44 126c-25 31 -65 52 -119 63c-15 3 10 33 75 88c66 56 108 82 127 78c89 -19 144 -61 167 -125c7 3 32 12 76 29s84 32 121 45c103 35 193 59 272 74c230 43 348 -1 353 -132c4 -99 -56 -189 -179 -270z" />
    <glyph glyph-name="C" unicode="C" horiz-adv-x="1718" 
d="M1556 1276l8 -34l2 -10l1 -11c1 -8 0 -15 -3 -20c-1 -3 -4 -7 -7 -10l-8 -10c-11 -13 -28 -29 -52 -46c-21 -15 -42 -29 -65 -41c-24 -13 -43 -22 -58 -27h-2l-3 -2l-9 -2c-7 -2 -12 -1 -13 2c-54 135 -126 239 -216 313c-103 84 -223 121 -358 112
c-171 -12 -299 -72 -384 -179c-95 -121 -149 -253 -162 -398c-11 -129 9 -252 60 -369c53 -121 132 -217 237 -288c126 -86 257 -132 394 -138c81 -3 153 0 216 10c85 13 151 39 198 77l7 6l7 6l17 13c13 11 26 20 37 27c31 21 58 30 79 29c15 -1 11 -14 -12 -41
c-7 -9 -16 -19 -27 -29c-4 -4 -8 -7 -11 -10l-5 -5c-155 -125 -323 -203 -503 -236c-198 -36 -378 -8 -541 85c-148 85 -255 205 -321 361c-67 158 -77 318 -29 481c49 167 143 318 282 453c137 133 291 224 461 275c199 59 366 49 503 -28c22 -13 44 -27 65 -44
c13 11 29 24 50 38c7 5 15 10 24 16l10 6c3 2 6 4 8 5l2 2l5 2c4 3 8 5 12 8c13 7 24 12 34 17c31 13 46 12 45 -3c-1 -33 -2 -63 -3 -91c0 -58 2 -111 7 -160c3 -27 8 -54 13 -79z" />
    <glyph glyph-name="D" unicode="D" horiz-adv-x="1861" 
d="M1064 126c101 14 186 55 256 122c57 55 101 125 131 209c29 79 42 164 40 255c-3 177 -62 336 -176 475c-117 143 -262 228 -435 254c-95 14 -183 14 -262 -1c-100 -19 -176 -58 -227 -119c-115 -136 -171 -292 -168 -468c4 -177 63 -336 176 -475
c117 -143 262 -228 435 -254c71 -10 147 -9 230 2zM957 1652c92 -20 167 -42 224 -67h2l2 -1l3 -1c5 -2 11 -5 17 -8c19 -9 39 -19 60 -30c67 -36 127 -78 182 -127c176 -155 264 -343 264 -565c-4 -215 -90 -411 -259 -588c-164 -173 -355 -275 -572 -307
c-111 -16 -221 -8 -329 24c-105 31 -200 82 -283 152c-84 71 -149 156 -196 253c-48 103 -71 211 -69 325c3 169 60 329 170 481c105 145 239 256 401 333c-105 23 -189 48 -250 77c-85 40 -155 96 -209 167c-6 8 1 23 20 45c17 19 41 40 70 61c73 53 116 71 129 53
c81 -108 213 -184 394 -228c29 -7 67 -16 114 -25l58 -12z" />
    <glyph glyph-name="E.001" horiz-adv-x="1925" 
d="M615 1482c-107 -18 -186 -60 -239 -125c-118 -145 -172 -318 -163 -519c15 6 29 9 40 9h586c393 32 552 152 477 359c-29 82 -87 148 -173 197c-71 41 -155 67 -253 80c-103 13 -195 13 -275 -1zM1018 85c227 -3 434 67 623 212l2 1l2 1l5 4c4 3 8 7 13 10
c13 9 26 17 37 24c35 20 56 25 63 14c8 -11 -3 -30 -32 -57c-10 -9 -21 -18 -34 -28c-5 -3 -9 -7 -14 -11l-5 -3l-3 -3c-141 -108 -271 -187 -388 -236c-281 -118 -550 -124 -805 -17c-107 45 -201 110 -280 197c-82 89 -138 190 -169 301c-62 225 -34 443 83 653
c113 201 278 347 495 437c111 46 226 70 344 73c126 3 241 -21 344 -70c93 -44 160 -102 201 -175c47 -83 50 -170 7 -260c-55 -115 -158 -217 -311 -305h480c15 0 11 -13 -12 -40c-7 -9 -16 -18 -26 -29l-10 -10l-3 -3c-1 -1 -2 -1 -2 -1l-7 -6l-7 -6l-16 -13
c-13 -11 -24 -19 -35 -26c-29 -19 -55 -29 -76 -29h-898c-81 -5 -197 -6 -348 -3c32 -133 92 -246 181 -338c163 -168 363 -254 601 -258z" />
    <glyph glyph-name="F" unicode="F" horiz-adv-x="1973" 
d="M296 1573c602 -110 1096 -77 1482 100l5 2l7 3c5 3 10 4 15 5c12 2 18 -2 18 -13v-225c0 -15 -12 -33 -35 -53c-19 -17 -44 -34 -75 -51c-28 -16 -53 -28 -76 -35c-23 -8 -34 -9 -34 -2v203c-361 -153 -797 -210 -1307 -171v-1171h1352c15 0 11 -14 -12 -42
c-7 -9 -16 -18 -27 -29c-4 -3 -8 -7 -11 -10l-3 -3c-1 -1 -1 -1 -2 -1l-7 -6l-7 -6l-17 -14c-13 -10 -26 -19 -37 -26c-30 -19 -56 -29 -79 -29h-1150v-1018c0 -17 -32 -26 -95 -26c-90 0 -135 9 -135 26v2652c-10 0 -22 1 -35 2c-21 3 -31 10 -31 21s10 18 31 21h202
c42 -3 63 -10 63 -21v-83z" />
    <glyph glyph-name="G" unicode="G" horiz-adv-x="1956" 
d="M1117 770c13 -8 23 -15 30 -20c131 -85 236 -165 315 -242c108 -103 184 -210 228 -321c77 -199 75 -391 -7 -576c-79 -177 -213 -316 -404 -417c-141 -74 -297 -102 -469 -85c-163 17 -313 71 -450 163c-141 94 -242 210 -302 349c-67 152 -75 310 -24 475
c6 21 23 43 52 66c10 9 22 18 37 27l17 12l8 5l8 5c1 0 1 0 2 1l4 2c4 2 8 4 13 7c13 7 25 12 36 17c33 14 48 14 43 -1c-26 -85 -38 -162 -35 -231c7 -163 72 -311 196 -443c115 -122 256 -207 421 -254c178 -51 334 -56 469 -13c60 19 109 62 146 127c30 53 51 117 62 192
c40 268 -41 503 -242 704c-43 43 -96 88 -159 134c-24 17 -52 37 -84 60l-87 58c-149 101 -256 187 -321 259c-123 136 -118 289 15 459c31 41 58 74 81 100c34 38 66 70 97 97h-461v-178c0 -15 -11 -32 -34 -52c-19 -17 -45 -35 -76 -52c-28 -15 -53 -27 -76 -34
c-23 -8 -34 -9 -34 -2v331c0 26 29 59 87 98c55 37 96 55 124 55h1345c15 0 11 -14 -12 -41c-8 -9 -17 -19 -27 -30c-4 -3 -8 -7 -11 -10l-3 -3c-1 -1 -1 -1 -2 -1l-7 -6l-7 -6l-17 -14c-13 -10 -26 -19 -37 -26c-31 -19 -57 -29 -79 -29h-204c-201 -9 -337 -38 -409 -87
s-114 -105 -125 -168c-17 -95 26 -191 128 -286c36 -34 82 -70 139 -109c19 -13 42 -28 69 -46l17 -10z" />
    <glyph glyph-name="H" unicode="H" horiz-adv-x="2046" 
d="M966 168c98 21 185 49 260 84l-1 1c173 80 289 197 346 350c47 126 62 251 45 376c-19 137 -74 248 -166 335c-96 91 -225 137 -388 137c-162 0 -312 -90 -449 -270s-206 -386 -206 -619v-456c0 -29 -37 -63 -110 -104c-28 -15 -53 -27 -76 -34c-23 -8 -34 -9 -34 -2
l-1 1875c-3 55 -18 97 -44 127c-25 30 -65 51 -119 62c-15 3 10 33 75 88c66 56 108 82 127 78c55 -12 96 -31 124 -58c31 -29 49 -70 55 -123c6 -48 9 -351 9 -909c84 141 188 260 313 357c151 117 304 182 460 195c176 15 330 -40 462 -165c125 -119 191 -270 196 -455
c5 -179 -47 -339 -154 -479c-75 -97 -162 -184 -263 -260h2c-63 -48 -131 -92 -204 -131h648c15 0 -3 -28 -56 -83c-52 -55 -100 -83 -145 -83h-900c-75 0 -72 36 9 107c31 23 59 36 84 39l68 13c12 4 23 6 33 7z" />
    <glyph glyph-name="I" unicode="I" horiz-adv-x="684" 
d="M404 1456c6 -48 7 -498 3 -1350c0 -29 -37 -63 -110 -104c-28 -15 -53 -27 -76 -34c-23 -8 -34 -9 -34 -2l-1 1316c-3 55 -18 97 -44 127c-25 30 -65 51 -119 62c-15 3 -12 18 11 43c7 9 16 18 27 28c4 3 8 6 11 9l4 3c1 1 1 2 2 2l6 5l7 6c6 5 11 10 16 13
c15 12 28 22 39 29c34 23 60 32 79 28c55 -12 96 -31 124 -58c31 -29 49 -70 55 -123z" />
    <glyph glyph-name="J" unicode="J" horiz-adv-x="1515" 
d="M690 1443c172 -25 343 2 512 80c32 22 66 41 102 56s54 18 54 9c0 -69 1 -157 2 -264l3 -265c1 -77 -1 -187 -6 -328c-7 -191 -42 -332 -104 -422c-73 -107 -182 -203 -325 -287c-137 -81 -288 -108 -453 -81c-164 26 -300 98 -407 217c-6 6 0 20 19 41
c17 20 40 41 68 63c29 23 56 39 79 50c27 12 44 14 53 5c110 -122 247 -193 410 -214c33 -5 63 -7 88 -8c35 -2 67 -1 95 2c73 9 124 36 155 81c47 69 78 157 92 264c5 41 9 88 10 142l1 71v754c-204 -101 -399 -146 -586 -135c-209 11 -390 91 -544 240c-5 5 1 18 19 39
c17 20 40 41 67 63c29 23 55 40 78 51c27 13 46 15 55 6c133 -128 287 -205 463 -230z" />
    <glyph glyph-name="K" unicode="K" horiz-adv-x="1728" 
d="M404 1454v-898l588 500c36 33 65 65 87 94c62 82 79 156 51 221c-12 27 -30 49 -55 66c-10 6 -23 13 -38 20l-20 10l-22 10c73 98 146 151 219 159l25 -11l24 -12c18 -9 33 -18 44 -27c29 -23 46 -52 51 -88c10 -77 -6 -144 -48 -203s-201 -214 -476 -466
c105 -16 198 -55 277 -116c86 -67 141 -150 166 -249l54 -198c11 -44 24 -80 39 -107c40 -77 97 -105 172 -83c24 7 30 0 17 -21c-4 -7 -10 -15 -18 -24c-3 -3 -5 -7 -8 -10l-6 -6c-56 -53 -108 -86 -156 -100c-85 -25 -152 -6 -199 58c-19 26 -35 60 -49 101
c-10 29 -20 67 -31 114c-42 165 -103 282 -184 351c-77 65 -168 106 -273 123l-231 -189v-368c0 -29 -36 -63 -107 -104c-28 -15 -65 -27 -111 -35v1315c-3 55 -18 97 -44 126c-25 30 -65 51 -119 63c-15 3 10 33 75 88c66 56 108 82 127 78c55 -12 96 -31 124 -58
c31 -29 49 -71 55 -124z" />
    <glyph glyph-name="L" unicode="L" horiz-adv-x="1311" 
d="M407 167h731c15 0 11 -14 -12 -41c-7 -9 -16 -18 -27 -29c-4 -3 -8 -7 -11 -10l-3 -3l-2 -2l-7 -6l-7 -6l-17 -13c-13 -11 -26 -19 -37 -26c-30 -20 -56 -30 -79 -30h-740v1282c0 43 -18 85 -54 126c-25 30 -65 51 -119 62c-15 3 10 33 75 88c66 56 108 82 127 79
c97 -21 155 -78 175 -169c7 -34 11 -78 10 -131z" />
    <glyph glyph-name="M" unicode="M" horiz-adv-x="3014" 
d="M1629 1284c-41 -45 -76 -93 -106 -146c53 -371 47 -725 -19 -1063c0 -29 -37 -63 -110 -104c-28 -15 -53 -27 -76 -35c-23 -7 -41 -8 -54 -2c34 311 56 549 66 713c11 165 -8 325 -57 480c-32 104 -80 188 -144 252c-77 76 -165 111 -265 105c-103 -7 -197 -56 -281 -149
c-68 -74 -124 -168 -168 -283c-1 -5 -4 -10 -8 -16v-931c0 -29 -37 -63 -110 -104c-28 -15 -53 -27 -76 -35c-23 -7 -34 -8 -34 -2l-1 1287c-3 75 -18 127 -44 156c-25 30 -65 51 -119 63c-15 3 -12 18 11 43c7 8 16 17 27 27c4 3 8 7 11 10l4 3l2 2l6 5l7 6c6 5 11 9 16 13
c15 11 28 21 39 29c34 23 60 32 79 28c55 -12 96 -31 124 -58c31 -29 49 -71 55 -124c6 -47 9 -115 8 -204c161 189 326 315 493 376c204 75 367 29 489 -137c43 -59 78 -132 105 -217c60 71 126 135 197 191c151 117 304 182 460 195c176 15 330 -40 463 -165
c125 -119 190 -271 195 -456c5 -179 -46 -339 -154 -478c-122 -158 -278 -288 -467 -391h648c15 0 -3 -28 -56 -83c-52 -55 -100 -83 -145 -83h-900c-75 0 -72 36 9 107c31 23 59 36 84 39l68 13c12 4 23 6 33 7c322 69 524 214 607 435c47 125 62 250 45 375
c-19 137 -74 249 -165 336c-97 91 -209 151 -337 179c-148 32 -300 -38 -455 -209z" />
    <glyph glyph-name="N" unicode="N" horiz-adv-x="2046" 
d="M966 168c98 21 185 49 260 84l-1 1c173 80 289 197 346 350c47 126 62 251 45 376c-19 137 -74 248 -166 335c-96 91 -225 137 -388 137c-162 0 -312 -90 -449 -270s-206 -386 -206 -619v-456c0 -29 -37 -63 -110 -104c-28 -15 -53 -27 -76 -34c-23 -8 -34 -9 -34 -2
l-1 1316c-3 55 -18 97 -44 127c-25 30 -65 51 -119 62c-15 3 -12 18 11 43c7 9 16 18 27 28c4 3 8 6 11 9l4 3c1 1 1 2 2 2l6 5l7 6c6 5 11 10 16 13c15 12 28 22 39 29c34 23 60 32 79 28c55 -12 96 -31 124 -58c31 -29 49 -70 55 -123c6 -48 9 -165 9 -350
c84 141 188 260 313 357c151 117 304 182 460 195c176 15 330 -40 462 -165c125 -119 191 -270 196 -455c5 -179 -47 -339 -154 -479c-75 -97 -162 -184 -263 -260h2c-63 -48 -131 -92 -204 -131h648c15 0 -3 -28 -56 -83c-52 -55 -100 -83 -145 -83h-900
c-75 0 -72 36 9 107c31 23 59 36 84 39l68 13c12 4 23 6 33 7z" />
    <glyph glyph-name="O" unicode="O" horiz-adv-x="1888" 
d="M1107 138c100 18 176 57 227 116c109 125 165 278 168 459c-3 173 -62 328 -176 465c-117 141 -263 224 -437 249c-95 14 -183 14 -263 -1c-100 -18 -176 -57 -228 -116c-115 -133 -171 -286 -168 -459s62 -328 176 -465c117 -141 263 -224 437 -249
c96 -14 184 -14 264 1zM266 1311c167 175 360 279 581 312c117 17 230 9 339 -24c105 -31 198 -83 281 -155s148 -158 195 -258c49 -103 74 -212 76 -329c-5 -219 -92 -418 -263 -597c-167 -175 -360 -279 -581 -312c-113 -17 -225 -9 -335 24c-106 32 -202 84 -287 155
c-85 73 -152 158 -199 257c-49 104 -72 214 -70 330c5 219 92 418 263 597z" />
    <glyph glyph-name="P" unicode="P" horiz-adv-x="1878" 
d="M409 311c270 -171 521 -204 752 -98c101 47 182 123 243 228c59 103 86 212 81 325c-7 125 -48 245 -123 358c-73 109 -165 196 -277 261c-118 69 -234 105 -348 108c-133 5 -242 -37 -328 -126v-1056zM404 1449c256 203 502 260 739 170c166 -63 302 -162 409 -299
c117 -149 168 -308 152 -475c-15 -151 -79 -294 -192 -428c-98 -117 -222 -217 -373 -298c-78 -42 -149 -74 -213 -96c-84 -29 -160 -43 -229 -41c-97 3 -194 22 -290 58v-810c0 -29 -37 -63 -110 -104c-28 -16 -53 -28 -76 -35c-23 -8 -34 -9 -34 -2v2200
c-16 103 -71 165 -164 185c-15 3 -12 18 11 43c109 86 172 127 191 123c103 -22 162 -86 179 -191z" />
    <glyph glyph-name="Q" unicode="Q" horiz-adv-x="1890" 
d="M1107 138c100 18 176 57 227 116c109 125 165 278 168 459c-3 173 -62 328 -176 465c-117 141 -263 224 -437 249c-95 14 -183 14 -263 -1c-100 -18 -176 -57 -228 -116c-115 -133 -171 -286 -168 -459s62 -328 176 -465c117 -141 263 -224 437 -249
c96 -14 184 -14 264 1zM1475 260c-117 -123 -248 -211 -392 -264c73 -17 154 -44 243 -80c67 -27 151 -65 254 -113l371 -166c51 -20 98 -35 139 -45c114 -29 203 -24 266 14c1 0 1 0 2 1l4 2c4 3 8 5 13 7c13 7 24 12 35 17c33 14 48 14 44 -1c-5 -21 -23 -43 -52 -67
c-11 -9 -23 -18 -37 -27c-10 -7 -21 -14 -33 -21c-156 -93 -308 -120 -455 -83c-70 17 -149 45 -237 84c-30 13 -68 31 -115 53c-214 99 -341 157 -381 173c-105 43 -200 73 -283 90c-218 46 -403 13 -554 -98l-2 -1l-2 -2l-5 -3c-5 -4 -9 -7 -14 -10
c-14 -10 -27 -18 -39 -25c-36 -21 -58 -26 -65 -15c-8 11 3 31 34 58c10 9 22 19 35 29c5 3 9 7 14 11l5 4c2 1 3 1 4 2c112 83 215 143 309 182c-7 2 -15 4 -22 6c-106 32 -202 84 -287 155c-85 73 -152 158 -199 257c-49 104 -72 214 -70 330c5 219 92 418 263 597
c167 175 360 279 581 312c117 17 230 9 339 -24c105 -31 198 -83 281 -155s148 -158 195 -258c49 -103 74 -212 76 -329c-5 -219 -92 -418 -263 -597z" />
    <glyph glyph-name="R" unicode="R" horiz-adv-x="1916" 
d="M1258 181c148 -86 280 -120 395 -103c13 2 14 -4 5 -19c-9 -13 -24 -29 -45 -50c-54 -51 -94 -78 -120 -82c-147 -22 -310 24 -490 139c-69 44 -142 99 -219 165c-55 47 -116 104 -185 172c-5 5 1 17 18 36c15 19 36 38 61 58c64 51 105 70 124 55c9 3 16 5 23 6
c78 10 144 21 198 32c79 17 149 37 208 61c155 63 250 154 284 273c24 85 25 167 4 246c-23 84 -70 151 -139 201c-94 67 -196 112 -305 133c-121 24 -231 13 -328 -32c-90 -41 -167 -112 -231 -213c-84 -161 -125 -309 -124 -442v-704c0 -29 -37 -63 -110 -104
c-28 -16 -53 -28 -76 -35l-34 -2v1246c-3 147 -58 233 -164 259c-5 1 -1 12 14 31c111 94 173 139 188 136c87 -22 143 -74 170 -156c19 -56 25 -140 20 -251c163 207 348 343 556 410c238 76 447 34 628 -127c121 -108 171 -235 149 -382c-21 -132 -92 -254 -215 -365
c-162 -147 -367 -253 -614 -318c129 -121 247 -212 354 -274z" />
    <glyph glyph-name="S" unicode="S" horiz-adv-x="1685" 
d="M410 1287c43 -75 108 -135 195 -180c51 -27 130 -52 235 -75l67 -13l69 -14c55 -11 101 -22 136 -31c104 -26 185 -59 243 -98c74 -49 122 -114 143 -195c25 -89 18 -178 -19 -267c-33 -79 -89 -154 -167 -225c-71 -65 -154 -120 -248 -166c-91 -43 -180 -72 -266 -86
c-100 -17 -198 -15 -294 6c-95 20 -181 56 -256 108c-77 53 -137 119 -180 198c-45 84 -68 176 -67 277c0 28 37 62 110 101c28 15 53 26 76 33s34 8 34 2c0 -106 29 -204 88 -294c56 -85 131 -153 225 -205s194 -80 300 -85c111 -4 215 20 312 71c80 43 128 116 145 220
c15 101 -6 187 -63 257c-81 99 -226 170 -435 214l-66 13l-67 13c-53 10 -96 20 -131 30c-98 28 -177 68 -238 121c-71 61 -110 125 -117 191c-8 69 19 137 82 204c75 79 166 142 274 190c113 51 222 74 328 71c108 -3 202 -35 283 -97c61 -46 127 -122 198 -227
c6 -9 -1 -23 -20 -44c-17 -19 -41 -38 -71 -59c-30 -20 -57 -35 -81 -46c-26 -11 -42 -12 -47 -4c-82 121 -163 205 -243 254c-103 63 -218 80 -347 50l-23 -5l-24 -5c-17 -4 -31 -9 -42 -14c-29 -13 -46 -36 -51 -67c-7 -46 -1 -87 20 -122z" />
    <glyph glyph-name="T" unicode="T" horiz-adv-x="1738" 
d="M1387 295c35 46 87 84 154 113c23 10 36 11 41 4c4 -7 -1 -20 -16 -38c-117 -149 -246 -263 -389 -342c-166 -93 -332 -128 -498 -105c-165 23 -306 79 -423 170c-131 102 -207 230 -227 384c-19 147 16 291 107 434c72 113 177 223 315 329c49 38 104 76 163 113
c-222 -27 -402 17 -540 131c-5 3 2 15 20 36c17 21 39 42 65 63c29 24 55 42 78 53c27 13 45 16 56 7c85 -70 192 -112 322 -126c119 -13 241 -2 366 33c42 20 90 42 144 67l146 64c47 21 50 10 11 -34c-13 -16 -30 -33 -50 -52c-19 -17 -31 -27 -38 -31
c-107 -67 -221 -119 -342 -158c-207 -99 -358 -200 -454 -305c-132 -144 -181 -308 -146 -493c21 -116 75 -218 162 -305c83 -83 183 -143 300 -178c129 -39 243 -52 341 -39c74 9 137 31 189 65c45 29 92 76 143 140z" />
    <glyph glyph-name="U" unicode="U" horiz-adv-x="2046" 
d="M930 1454c-98 -21 -185 -50 -261 -85h2c-173 -80 -289 -197 -346 -350c-47 -126 -62 -251 -45 -376c19 -137 74 -248 166 -335c96 -91 225 -137 387 -137c163 0 313 90 450 270s206 386 206 619v456c0 29 37 63 110 104c28 15 53 27 76 34c23 8 34 9 34 2l1 -1316
c3 -55 18 -97 44 -127c25 -30 65 -51 119 -62c15 -3 12 -18 -11 -43c-7 -9 -16 -18 -27 -28c-4 -3 -8 -6 -11 -9l-4 -3c-1 -1 -1 -2 -2 -2l-6 -5l-7 -6c-6 -5 -11 -10 -16 -13c-15 -12 -28 -22 -39 -29c-34 -23 -60 -32 -79 -28c-55 12 -96 31 -124 58
c-31 29 -49 70 -55 123c-6 48 -9 165 -9 350c-84 -141 -188 -260 -313 -357c-151 -117 -304 -182 -460 -195c-176 -15 -330 40 -462 165c-125 119 -191 270 -196 455c-5 179 47 339 154 479c75 97 162 184 263 260h-2c63 48 131 92 204 131h-648c-15 0 3 28 55 83
c53 55 101 83 146 83h900c75 0 72 -36 -9 -107c-31 -23 -59 -36 -84 -39l-68 -13c-12 -4 -23 -6 -33 -7z" />
    <glyph glyph-name="V" unicode="V" horiz-adv-x="2077" 
d="M1281 1615c27 15 48 18 61 9c161 -95 295 -222 402 -381c122 -181 172 -356 150 -526c-20 -156 -94 -298 -223 -426c-168 -165 -330 -273 -487 -323c-171 -55 -355 -8 -550 139c-209 157 -361 302 -456 434c-119 164 -173 341 -164 531c10 201 92 362 245 483
c3 3 8 7 15 12l17 13c14 11 26 21 36 28c31 21 58 30 79 29c15 -1 11 -15 -12 -42c-7 -9 -16 -19 -27 -29c-4 -4 -8 -7 -11 -10l-5 -5c-59 -47 -97 -123 -113 -228c-13 -84 -10 -172 7 -263c31 -160 94 -295 190 -406c107 -123 228 -237 362 -342c81 -64 150 -111 207 -140
c85 -44 165 -64 239 -61c75 4 143 27 206 70c58 39 107 92 146 159c37 64 62 134 74 210s10 149 -7 219c-33 137 -100 269 -203 398c-97 123 -209 221 -335 296c-3 1 4 12 21 32c19 22 39 43 62 64c28 25 53 44 74 56z" />
    <glyph glyph-name="W" unicode="W" horiz-adv-x="3073" 
d="M1235 331c35 39 88 99 159 182c-47 357 -39 700 25 1027c0 29 37 63 110 104c28 15 53 27 76 35c23 7 41 8 54 2c-34 -311 -56 -549 -67 -714c-10 -164 9 -324 58 -479c32 -104 80 -188 144 -252c77 -76 165 -111 265 -105c103 7 197 56 281 149c68 74 124 168 168 283
c1 5 4 10 8 16v961c0 29 37 63 110 104c28 15 53 27 76 35c23 7 34 8 34 2l1 -1317c3 -55 18 -97 44 -126c25 -30 65 -51 119 -63c15 -3 12 -18 -11 -43c-7 -8 -16 -17 -27 -27c-4 -3 -8 -7 -11 -10l-4 -3l-2 -2l-6 -5l-7 -6c-6 -5 -11 -9 -16 -13c-15 -11 -28 -21 -39 -29
c-34 -23 -60 -32 -79 -28c-55 12 -96 31 -124 58c-31 29 -49 71 -55 124c-6 47 -9 105 -8 174c-161 -189 -326 -315 -493 -376c-204 -75 -367 -29 -489 137c-43 59 -78 132 -105 217l-7 38c-105 -105 -188 -181 -249 -229c-151 -117 -304 -182 -460 -195
c-176 -15 -330 40 -463 165c-125 119 -190 271 -195 456c-5 179 46 339 154 478c122 158 278 288 467 391h-648c-15 0 3 28 55 83c53 55 101 83 146 83h900c75 0 72 -36 -9 -107c-31 -23 -59 -36 -84 -39l-68 -13c-12 -4 -23 -6 -33 -7c-322 -69 -524 -214 -607 -435
c-47 -125 -62 -250 -45 -375c19 -137 74 -249 165 -336c97 -91 209 -151 337 -179c148 -32 300 38 455 209z" />
    <glyph glyph-name="X" unicode="X" horiz-adv-x="2128" 
d="M1853 150c42 30 76 45 102 44c15 -1 11 -15 -12 -42c-8 -9 -17 -18 -28 -29l-10 -10l-4 -3c-1 -1 -1 -1 -1 -2c-83 -71 -159 -108 -228 -113c-77 -5 -151 28 -222 101c-40 40 -80 86 -121 139c-62 -55 -126 -105 -192 -148c-65 -43 -136 -82 -215 -116
c-92 -39 -180 -66 -263 -80c-214 -36 -364 17 -449 159c-83 139 -91 281 -24 427c76 148 197 257 362 328c23 5 28 -2 14 -22c-76 -67 -123 -111 -140 -134s-29 -44 -35 -63c-17 -57 -25 -108 -23 -154c5 -127 45 -223 120 -289c90 -79 210 -108 361 -89
c139 17 255 67 350 149c31 26 61 56 92 89c-37 50 -114 169 -233 357s-194 305 -226 351c-85 123 -167 225 -248 306c-42 41 -79 74 -110 98c-44 33 -87 57 -129 70c-44 14 -99 6 -166 -25s-113 -50 -140 -57c-23 -7 -29 0 -17 21c4 7 34 38 90 91c57 53 127 95 210 124
c109 39 210 31 305 -23c89 -52 178 -130 265 -234c34 -41 84 -109 150 -205s116 -170 149 -223l89 -141c75 -120 136 -213 182 -280c74 126 128 258 161 395c19 79 30 144 32 195c3 73 -10 137 -37 192c-33 70 -78 121 -134 154c-65 37 -121 45 -166 22s-71 -35 -79 -37
c-23 -5 -28 2 -15 23c28 43 76 82 143 118c88 46 169 66 243 60c88 -7 155 -51 202 -133c75 -131 81 -300 17 -507s-166 -397 -305 -569l12 -18c39 -51 70 -90 93 -117c37 -42 73 -76 109 -102c35 -25 64 -39 89 -44l18 -3c4 -1 8 -1 12 -1z" />
    <glyph glyph-name="Y" unicode="Y" horiz-adv-x="2120" 
d="M1223 1641c28 17 54 27 79 30c122 16 228 14 317 -5c118 -25 204 -81 258 -168c62 -99 92 -216 90 -351c-1 -125 -28 -243 -80 -356c-189 -417 -604 -874 -1247 -1371c-26 -24 -50 -44 -73 -59c-29 -20 -57 -34 -83 -41c-24 -6 -30 1 -17 21c4 7 10 16 17 25
c3 3 6 7 9 10l6 6l133 123l132 123c107 99 195 182 264 248l-1019 1610c-6 9 1 25 20 47c17 19 41 39 72 60c29 21 56 36 80 47c27 11 42 13 47 5l998 -1578c243 239 398 454 465 644c41 115 60 229 55 342c-5 134 -43 241 -114 321c-107 120 -285 164 -532 131
c-15 -2 -10 11 13 40c8 9 17 19 27 30c3 4 7 8 10 11c3 2 4 3 5 4c27 23 50 40 68 51z" />
    <glyph glyph-name="Z" unicode="Z" horiz-adv-x="1327" 
d="M265 166h907c1 0 -1 -2 -4 -7c-4 -5 -9 -12 -15 -19c-17 -20 -34 -39 -52 -57c-56 -55 -99 -83 -130 -83h-958c-9 1 -12 5 -9 13c19 491 234 912 645 1264c73 75 151 148 234 217c-165 -65 -439 -62 -822 8c-3 1 2 10 17 28c15 19 32 39 53 59c58 57 102 83 132 79
c387 -79 680 -77 877 7c25 5 31 -3 18 -24c-27 -48 -160 -179 -397 -393s-399 -456 -488 -725c-30 -125 -46 -233 -48 -323c-1 -29 -1 -43 0 -43c0 -1 13 -1 40 -1z" />
    <glyph glyph-name="bracketleft" unicode="[" horiz-adv-x="656" 
d="M270 1953v-2294c123 0 192 -1 205 -2c21 -3 31 -10 31 -21s-10 -18 -31 -21h-412c-42 3 -63 10 -63 21v2340c0 11 21 18 63 21h412c21 -3 31 -10 31 -21s-10 -18 -31 -21c-127 -1 -195 -2 -205 -2z" />
    <glyph glyph-name="backslash" unicode="\" horiz-adv-x="1305" 
d="M107 1918c15 -9 26 -17 35 -23c13 -9 25 -18 35 -26c25 -22 43 -44 53 -66l916 -2063c6 -13 -8 -13 -43 0c-11 5 -23 10 -37 17c-5 2 -9 4 -13 6c-3 2 -5 3 -5 3c-15 9 -26 17 -35 23c-13 9 -25 18 -35 26c-25 22 -43 44 -53 66l-916 2063c-6 13 8 13 43 0
c11 -5 23 -10 37 -17c5 -2 9 -4 13 -6c3 -2 4 -3 5 -3z" />
    <glyph glyph-name="bracketright" unicode="]" horiz-adv-x="656" 
d="M236 -341v2294c-10 0 -78 1 -205 2c-21 3 -31 10 -31 21s10 18 31 21h412c42 -3 63 -10 63 -21v-2340c0 -11 -21 -18 -63 -21h-412c-21 3 -31 10 -31 21s10 18 31 21c13 1 82 2 205 2z" />
    <glyph glyph-name="asciicircum" unicode="^" horiz-adv-x="657" 
d="M345 1522l-44 114l-131 -282c0 -1 -3 1 -9 6s-13 10 -21 17c-23 20 -43 40 -62 60c-25 27 -44 52 -56 73c-15 26 -18 47 -11 63l167 359c5 12 31 -11 78 -70c17 -21 33 -43 49 -66c15 -21 23 -33 26 -38l161 -366c10 -22 11 -35 3 -40c-7 -5 -20 0 -37 15
c-47 41 -84 93 -113 155z" />
    <glyph glyph-name="underscore" unicode="_" horiz-adv-x="928" 
d="M225 -2h530c15 0 11 -14 -13 -41c-7 -9 -16 -19 -27 -29c-3 -4 -7 -7 -10 -10l-4 -4l-1 -1l-7 -6l-8 -6l-16 -13c-14 -11 -26 -20 -37 -27c-31 -19 -57 -29 -79 -29h-530c-15 0 -11 14 12 41c8 9 17 19 28 30l10 10l3 3c1 1 2 1 2 1l7 6l8 6l16 13c13 11 26 20 37 27
c31 19 57 29 79 29z" />
    <glyph glyph-name="grave" unicode="`" horiz-adv-x="731" 
d="M567 1863c9 -7 -15 -10 -72 -11c-57 0 -115 17 -173 52s-161 126 -310 273c-8 9 26 14 103 17s122 -2 133 -14c130 -148 236 -254 319 -317z" />
    <glyph glyph-name="a" unicode="a" horiz-adv-x="1835" 
d="M1058 112c122 13 213 58 274 134c29 35 54 74 75 115c-22 225 -27 465 -14 718c-99 182 -239 297 -418 345c-111 29 -214 39 -311 28c-123 -13 -214 -57 -275 -134c-114 -143 -168 -298 -162 -465c6 -162 55 -309 146 -441c97 -140 222 -230 374 -271
c110 -29 214 -39 311 -29zM1632 1528c-48 -502 -33 -958 44 -1368c6 -30 -28 -67 -102 -112c-25 -15 -51 -29 -77 -40c-24 -11 -36 -15 -36 -13c-13 66 -26 143 -38 232c-144 -143 -306 -231 -485 -265c-115 -21 -229 -18 -343 9c-113 27 -214 74 -303 143
c-92 70 -163 155 -213 254c-53 106 -77 221 -72 344c7 206 87 396 240 571c152 174 331 280 536 319c126 24 248 20 365 -11c113 -30 213 -83 300 -159c28 26 67 51 116 74c47 23 69 30 68 22z" />
    <glyph glyph-name="b" unicode="b" horiz-adv-x="1857" 
d="M1094 125c99 19 175 58 226 119c107 127 163 283 167 468c-3 177 -62 335 -175 475c-117 143 -261 228 -434 254c-95 14 -183 14 -262 -1c-99 -19 -175 -58 -226 -119c-115 -136 -170 -292 -166 -468c3 -177 61 -335 174 -474c117 -144 262 -229 435 -255
c95 -14 182 -14 261 1zM575 1527c85 40 171 67 258 80c114 17 225 9 332 -23c103 -31 195 -83 277 -154c81 -71 144 -155 190 -253c48 -101 73 -209 75 -324c-4 -215 -90 -410 -258 -587c-164 -173 -354 -275 -571 -308c-111 -16 -221 -8 -329 24c-105 31 -199 82 -282 153
c-84 71 -149 156 -195 253c-48 102 -71 210 -69 324c4 206 105 417 304 632c0 1 60 71 179 210c119 140 218 256 296 348c-131 -26 -242 -38 -335 -36c-121 3 -230 28 -325 77c-1 1 6 11 23 31c19 22 39 43 60 62c27 25 52 44 74 55c27 15 47 18 62 11
c93 -48 202 -72 326 -71c90 0 201 14 334 42c18 4 26 0 23 -11c-1 -4 -3 -9 -7 -15c-3 -5 -7 -10 -12 -15z" />
    <glyph glyph-name="c" unicode="c" horiz-adv-x="1904" 
d="M1652 408c31 21 58 30 79 29c15 -1 11 -15 -12 -42c-8 -9 -17 -18 -28 -29l-10 -10l-4 -3c-1 -1 -1 -1 -1 -2c-193 -158 -360 -268 -501 -330c-207 -91 -400 -105 -579 -43c-175 60 -319 157 -432 292c-125 149 -179 312 -162 487c19 182 105 353 258 513
c141 147 304 252 489 314c202 67 379 56 530 -33c121 -71 254 -211 400 -420c6 -9 -1 -24 -20 -46c-17 -19 -41 -40 -70 -62c-30 -21 -57 -37 -81 -48c-26 -11 -42 -13 -48 -4c-111 159 -208 273 -292 343c-129 107 -266 155 -411 144c-165 -13 -300 -86 -407 -220
c-108 -135 -150 -286 -125 -452c17 -73 38 -141 63 -206c89 -187 233 -322 431 -405c154 -65 306 -78 456 -41c133 33 269 107 409 222l7 5l7 6l17 14c13 11 26 20 37 27z" />
    <glyph glyph-name="d" unicode="d" horiz-adv-x="1861" 
d="M1064 126c101 14 186 55 256 122c57 55 101 125 131 209c29 79 42 164 40 255c-3 177 -62 336 -176 475c-117 143 -262 228 -435 254c-95 14 -183 14 -262 -1c-100 -19 -176 -58 -227 -119c-115 -136 -171 -292 -168 -468c4 -177 63 -336 176 -475
c117 -143 262 -228 435 -254c71 -10 147 -9 230 2zM957 1652c92 -20 167 -42 224 -67h2l2 -1l3 -1c5 -2 11 -5 17 -8c19 -9 39 -19 60 -30c67 -36 127 -78 182 -127c176 -155 264 -343 264 -565c-4 -215 -90 -411 -259 -588c-164 -173 -355 -275 -572 -307
c-111 -16 -221 -8 -329 24c-105 31 -200 82 -283 152c-84 71 -149 156 -196 253c-48 103 -71 211 -69 325c3 169 60 329 170 481c105 145 239 256 401 333c-105 23 -189 48 -250 77c-85 40 -155 96 -209 167c-6 8 1 23 20 45c17 19 41 40 70 61c73 53 116 71 129 53
c81 -108 213 -184 394 -228c29 -7 67 -16 114 -25l58 -12z" />
    <glyph glyph-name="e" unicode="e" horiz-adv-x="1904" 
d="M1652 408c31 21 58 30 79 29c15 -1 11 -15 -12 -42c-8 -9 -17 -18 -28 -29l-10 -10l-4 -3c-1 -1 -1 -1 -1 -2c-193 -158 -360 -268 -501 -330c-207 -91 -400 -105 -579 -43c-175 60 -319 157 -432 292c-125 149 -179 312 -162 487c19 182 105 353 258 513
c141 147 304 252 489 314c202 67 379 56 530 -33c121 -71 254 -211 400 -420c6 -9 -1 -24 -20 -46c-17 -19 -41 -40 -70 -62c-30 -21 -57 -37 -81 -48c-26 -11 -42 -13 -48 -4c-111 159 -208 273 -292 343c-129 107 -266 155 -411 144c-165 -13 -300 -86 -407 -220
c-108 -135 -150 -286 -125 -452c1 -11 4 -24 7 -40c7 1 13 2 18 2h1364c15 0 11 -14 -12 -42c-8 -9 -17 -18 -27 -29c-4 -4 -8 -7 -11 -10c-1 -1 -2 -3 -3 -4s-1 -1 -2 -1l-7 -6l-8 -6l-16 -14c-13 -10 -26 -19 -37 -26c-30 -20 -56 -30 -79 -30h-1124
c89 -187 233 -322 431 -405c154 -65 306 -78 456 -41c133 33 269 107 409 222l7 5l7 6l17 14c13 11 26 20 37 27z" />
    <glyph glyph-name="f" unicode="f" horiz-adv-x="1812" 
d="M287 1458c151 145 336 221 555 227c243 6 429 -56 558 -186c139 -140 224 -334 255 -583c1 -6 -13 -11 -40 -16s-57 -8 -92 -9c-90 -3 -136 5 -139 25c-75 505 -277 723 -606 653c-328 -70 -492 -325 -491 -764v-636h1352c15 0 11 -14 -12 -42c-7 -9 -16 -18 -27 -29
c-4 -3 -8 -7 -11 -10l-3 -3c-1 -1 -1 -1 -2 -1l-7 -6l-7 -6l-17 -14c-13 -10 -26 -19 -37 -26c-30 -19 -56 -29 -78 -29h-1151v-1018c0 -17 -32 -26 -95 -26c-90 0 -135 9 -135 26v2652l-23 2c-23 3 -34 10 -34 21s11 18 34 21h190c42 -3 63 -10 63 -21v-202z" />
    <glyph glyph-name="g" unicode="g" horiz-adv-x="2023" 
d="M1345 -626c47 44 87 108 118 191c48 126 64 251 47 375c-17 128 -63 240 -140 336c-77 97 -139 163 -186 200s-121 63 -220 77c-99 15 -228 -6 -387 -62c-167 -59 -277 -181 -330 -368c-47 -166 -31 -323 50 -471c77 -143 197 -249 360 -317c171 -73 334 -92 491 -58
c81 18 147 50 197 97zM361 1648h1489c15 0 -4 -28 -59 -85c-55 -56 -102 -84 -143 -84h-357h-33c-25 0 -73 -18 -145 -53s-132 -96 -180 -184c-48 -87 -25 -181 68 -281c39 -43 89 -88 150 -137l183 -142c180 -141 297 -277 350 -408c83 -203 75 -408 -25 -616
c-92 -193 -238 -343 -437 -449c-147 -78 -302 -114 -466 -108c-167 6 -319 55 -454 148c-144 99 -237 228 -280 385c-43 159 -25 317 54 474c77 153 191 281 343 384c143 97 304 163 483 196c-57 46 -103 90 -137 133c-114 145 -88 305 77 478c73 77 138 138 193 182h-665
v-177c0 -15 -37 -43 -110 -86s-110 -61 -110 -54v330c0 27 22 59 65 97s92 57 146 57z" />
    <glyph glyph-name="h" unicode="h" horiz-adv-x="2160" 
d="M407 1133c139 159 310 294 515 403s415 124 631 43c153 -57 267 -154 344 -290c75 -133 100 -281 75 -443c-42 -272 -177 -544 -406 -817c-39 -47 -91 -84 -155 -112c-22 -10 -35 -11 -40 -4s1 20 16 38c179 214 296 437 350 670c68 293 3 519 -195 678
c-109 88 -233 142 -373 162c-159 23 -325 -51 -500 -221c-175 -169 -262 -396 -262 -679v-455c0 -29 -37 -63 -110 -104c-28 -16 -53 -28 -76 -35c-23 -8 -34 -9 -34 -2v1576c1 79 -8 136 -26 173c-24 48 -70 79 -138 94c-15 3 10 33 75 88c66 56 108 82 127 79
c65 -15 112 -42 141 -81c27 -37 41 -90 41 -159c1 -67 1 -267 0 -602z" />
    <glyph glyph-name="i" unicode="i" horiz-adv-x="691" 
d="M404 1456c6 -48 7 -498 3 -1350c0 -29 -37 -63 -110 -104c-28 -15 -53 -27 -76 -34c-23 -8 -34 -9 -34 -2l-1 1316c-3 55 -18 97 -44 127c-25 30 -65 51 -119 62c-15 3 -12 18 11 43c7 9 16 18 27 28c4 3 8 6 11 9l4 3c1 1 1 2 2 2l6 5l7 6c6 5 11 10 16 13
c15 12 28 22 39 29c34 23 60 32 79 28c55 -12 96 -31 124 -58c31 -29 49 -70 55 -123zM587 2177c-149 -147 -252 -238 -310 -273s-116 -52 -173 -52c-57 1 -81 4 -72 11c83 63 189 169 319 317c11 12 55 17 132 14s112 -8 104 -17z" />
    <glyph glyph-name="j" unicode="j" horiz-adv-x="691" 
d="M404 1456c5 -43 7 -517 4 -1420c0 -136 -53 -256 -159 -359c-90 -105 -201 -174 -333 -208c-24 -6 -30 1 -18 21c4 7 41 37 111 88c71 51 118 112 142 182c25 69 37 132 38 189v13c-1 1 -2 3 -2 4l-1 1316c-3 55 -18 97 -44 127c-25 30 -65 51 -119 62
c-15 3 -12 18 11 43c7 9 16 18 27 28c4 3 8 6 11 9l4 3c1 1 1 2 2 2l6 5l7 6c6 5 11 10 16 13c15 12 28 22 39 29c34 23 60 32 79 28c55 -12 96 -31 124 -58c31 -29 49 -70 55 -123zM587 2177c-149 -147 -252 -238 -310 -273s-116 -52 -173 -52c-57 1 -81 4 -72 11
c83 63 189 169 319 317c11 12 55 17 132 14s112 -8 104 -17z" />
    <glyph glyph-name="k" unicode="k" horiz-adv-x="1730" 
d="M1368 225c41 -63 100 -85 177 -67c23 5 29 -2 17 -21c-4 -7 -10 -15 -17 -24c-3 -3 -6 -7 -9 -10s-5 -5 -7 -6c-25 -25 -49 -45 -72 -60c-30 -21 -58 -34 -84 -41c-83 -19 -149 -5 -198 43c-38 37 -69 101 -94 191c-21 77 -63 142 -126 196c-57 48 -126 84 -209 108
c-39 -29 -152 -111 -337 -244l-2 -1v-184c0 -29 -37 -63 -110 -104c-28 -15 -53 -27 -76 -35c-23 -7 -34 -8 -34 -2v1541c1 103 -10 175 -31 217c-21 43 -65 71 -133 86c-15 3 10 33 75 88c66 56 108 82 127 78c65 -14 112 -41 141 -81c27 -37 41 -89 41 -158
c1 -67 1 -482 0 -1247c421 325 689 688 806 1090c4 21 51 30 140 25c34 -2 64 -5 91 -10s41 -10 40 -15c-33 -173 -194 -452 -482 -837l-47 -41c175 -51 287 -145 336 -282c4 -11 10 -27 17 -49l17 -51c14 -39 28 -70 43 -93z" />
    <glyph glyph-name="l" unicode="l" horiz-adv-x="1311" 
d="M407 167h731c15 0 11 -14 -12 -41c-7 -9 -16 -18 -27 -29c-4 -3 -8 -7 -11 -10l-3 -3l-2 -2l-7 -6l-7 -6l-17 -13c-13 -11 -26 -19 -37 -26c-30 -20 -56 -30 -79 -30h-740v1282c0 43 -18 85 -54 126c-25 30 -65 51 -119 62c-15 3 10 33 75 88c66 56 108 82 127 79
c97 -21 155 -78 175 -169c7 -34 11 -78 10 -131z" />
    <glyph glyph-name="m" unicode="m" horiz-adv-x="3014" 
d="M1629 1284c-41 -45 -76 -93 -106 -146c53 -371 47 -725 -19 -1063c0 -29 -37 -63 -110 -104c-28 -15 -53 -27 -76 -35c-23 -7 -41 -8 -54 -2c34 311 56 549 66 713c11 165 -8 325 -57 480c-32 104 -80 188 -144 252c-77 76 -165 111 -265 105c-103 -7 -197 -56 -281 -149
c-68 -74 -124 -168 -168 -283c-1 -5 -4 -10 -8 -16v-961c0 -29 -37 -63 -110 -104c-28 -15 -53 -27 -76 -35c-23 -7 -34 -8 -34 -2l-1 1317c-3 55 -18 97 -44 126c-25 30 -65 51 -119 63c-15 3 -12 18 11 43c7 8 16 17 27 27c4 3 8 7 11 10l4 3l2 2l6 5l7 6c6 5 11 9 16 13
c15 11 28 21 39 29c34 23 60 32 79 28c55 -12 96 -31 124 -58c31 -29 49 -71 55 -124c6 -47 9 -105 8 -174c161 189 326 315 493 376c204 75 367 29 489 -137c43 -59 78 -132 105 -217c60 71 126 135 197 191c151 117 304 182 460 195c176 15 330 -40 463 -165
c125 -119 190 -271 195 -456c5 -179 -46 -339 -154 -478c-122 -158 -278 -288 -467 -391h648c15 0 -3 -28 -56 -83c-52 -55 -100 -83 -145 -83h-900c-75 0 -72 36 9 107c31 23 59 36 84 39l68 13c12 4 23 6 33 7c322 69 524 214 607 435c47 125 62 250 45 375
c-19 137 -74 249 -165 336c-97 91 -209 151 -337 179c-148 32 -300 -38 -455 -209z" />
    <glyph glyph-name="n" unicode="n" horiz-adv-x="2046" 
d="M966 168c98 21 185 49 260 84l-1 1c173 80 289 197 346 350c47 126 62 251 45 376c-19 137 -74 248 -166 335c-96 91 -225 137 -388 137c-162 0 -312 -90 -449 -270s-206 -386 -206 -619v-456c0 -29 -37 -63 -110 -104c-28 -15 -53 -27 -76 -34c-23 -8 -34 -9 -34 -2
l-1 1316c-3 55 -18 97 -44 127c-25 30 -65 51 -119 62c-15 3 -12 18 11 43c7 9 16 18 27 28c4 3 8 6 11 9l4 3c1 1 1 2 2 2l6 5l7 6c6 5 11 10 16 13c15 12 28 22 39 29c34 23 60 32 79 28c55 -12 96 -31 124 -58c31 -29 49 -70 55 -123c6 -48 9 -165 9 -350
c84 141 188 260 313 357c151 117 304 182 460 195c176 15 330 -40 462 -165c125 -119 191 -270 196 -455c5 -179 -47 -339 -154 -479c-75 -97 -162 -184 -263 -260h2c-63 -48 -131 -92 -204 -131h648c15 0 -3 -28 -56 -83c-52 -55 -100 -83 -145 -83h-900
c-75 0 -72 36 9 107c31 23 59 36 84 39l68 13c12 4 23 6 33 7z" />
    <glyph glyph-name="o" unicode="o" horiz-adv-x="1888" 
d="M1107 138c100 18 176 57 227 116c109 125 165 278 168 459c-3 173 -62 328 -176 465c-117 141 -263 224 -437 249c-95 14 -183 14 -263 -1c-100 -18 -176 -57 -228 -116c-115 -133 -171 -286 -168 -459s62 -328 176 -465c117 -141 263 -224 437 -249
c96 -14 184 -14 264 1zM266 1311c167 175 360 279 581 312c117 17 230 9 339 -24c105 -31 198 -83 281 -155s148 -158 195 -258c49 -103 74 -212 76 -329c-5 -219 -92 -418 -263 -597c-167 -175 -360 -279 -581 -312c-113 -17 -225 -9 -335 24c-106 32 -202 84 -287 155
c-85 73 -152 158 -199 257c-49 104 -72 214 -70 330c5 219 92 418 263 597z" />
    <glyph glyph-name="p" unicode="p" horiz-adv-x="1878" 
d="M409 311c270 -171 521 -204 752 -98c101 47 182 123 243 228c59 103 86 212 81 325c-7 125 -48 245 -123 358c-73 109 -165 196 -277 261c-118 69 -234 105 -348 108c-133 5 -242 -37 -328 -126v-1056zM404 1449c256 203 502 260 739 170c166 -63 302 -162 409 -299
c117 -149 168 -308 152 -475c-15 -151 -79 -294 -192 -428c-98 -117 -222 -217 -373 -298c-78 -42 -149 -74 -213 -96c-84 -29 -160 -43 -229 -41c-97 3 -194 22 -290 58v-810c0 -29 -37 -63 -110 -104c-28 -16 -53 -28 -76 -35c-23 -8 -34 -9 -34 -2v2200
c-16 103 -71 165 -164 185c-15 3 -12 18 11 43c109 86 172 127 191 123c103 -22 162 -86 179 -191z" />
    <glyph glyph-name="q" unicode="q" horiz-adv-x="1890" 
d="M1107 138c100 18 176 57 227 116c109 125 165 278 168 459c-3 173 -62 328 -176 465c-117 141 -263 224 -437 249c-95 14 -183 14 -263 -1c-100 -18 -176 -57 -228 -116c-115 -133 -171 -286 -168 -459s62 -328 176 -465c117 -141 263 -224 437 -249
c96 -14 184 -14 264 1zM1475 260c-117 -123 -248 -211 -392 -264c73 -17 154 -44 243 -80c67 -27 151 -65 254 -113l371 -166c51 -20 98 -35 139 -45c114 -29 203 -24 266 14c1 0 1 0 2 1l4 2c4 3 8 5 13 7c13 7 24 12 35 17c33 14 48 14 44 -1c-5 -21 -23 -43 -52 -67
c-11 -9 -23 -18 -37 -27c-10 -7 -21 -14 -33 -21c-156 -93 -308 -120 -455 -83c-70 17 -149 45 -237 84c-30 13 -68 31 -115 53c-214 99 -341 157 -381 173c-105 43 -200 73 -283 90c-218 46 -403 13 -554 -98l-2 -1l-2 -2l-5 -3c-5 -4 -9 -7 -14 -10
c-14 -10 -27 -18 -39 -25c-36 -21 -58 -26 -65 -15c-8 11 3 31 34 58c10 9 22 19 35 29c5 3 9 7 14 11l5 4c2 1 3 1 4 2c112 83 215 143 309 182c-7 2 -15 4 -22 6c-106 32 -202 84 -287 155c-85 73 -152 158 -199 257c-49 104 -72 214 -70 330c5 219 92 418 263 597
c167 175 360 279 581 312c117 17 230 9 339 -24c105 -31 198 -83 281 -155s148 -158 195 -258c49 -103 74 -212 76 -329c-5 -219 -92 -418 -263 -597z" />
    <glyph glyph-name="r" unicode="r" horiz-adv-x="1916" 
d="M1258 181c148 -86 280 -120 395 -103c13 2 14 -4 5 -19c-9 -13 -24 -29 -45 -50c-54 -51 -94 -78 -120 -82c-147 -22 -310 24 -490 139c-69 44 -142 99 -219 165c-55 47 -116 104 -185 172c-5 5 1 17 18 36c15 19 36 38 61 58c64 51 105 70 124 55c9 3 16 5 23 6
c78 10 144 21 198 32c79 17 149 37 208 61c155 63 250 154 284 273c24 85 25 167 4 246c-23 84 -70 151 -139 201c-94 67 -196 112 -305 133c-121 24 -231 13 -328 -32c-90 -41 -167 -112 -231 -213c-84 -161 -125 -309 -124 -442v-704c0 -29 -37 -63 -110 -104
c-28 -16 -53 -28 -76 -35l-34 -2v1246c-3 147 -58 233 -164 259c-5 1 -1 12 14 31c111 94 173 139 188 136c87 -22 143 -74 170 -156c19 -56 25 -140 20 -251c163 207 348 343 556 410c238 76 447 34 628 -127c121 -108 171 -235 149 -382c-21 -132 -92 -254 -215 -365
c-162 -147 -367 -253 -614 -318c129 -121 247 -212 354 -274z" />
    <glyph glyph-name="s" unicode="s" horiz-adv-x="1685" 
d="M410 1287c43 -75 108 -135 195 -180c51 -27 130 -52 235 -75l67 -13l69 -14c55 -11 101 -22 136 -31c104 -26 185 -59 243 -98c74 -49 122 -114 143 -195c25 -89 18 -178 -19 -267c-33 -79 -89 -154 -167 -225c-71 -65 -154 -120 -248 -166c-91 -43 -180 -72 -266 -86
c-100 -17 -198 -15 -294 6c-95 20 -181 56 -256 108c-77 53 -137 119 -180 198c-45 84 -68 176 -67 277c0 28 37 62 110 101c28 15 53 26 76 33s34 8 34 2c0 -106 29 -204 88 -294c56 -85 131 -153 225 -205s194 -80 300 -85c111 -4 215 20 312 71c80 43 128 116 145 220
c15 101 -6 187 -63 257c-81 99 -226 170 -435 214l-66 13l-67 13c-53 10 -96 20 -131 30c-98 28 -177 68 -238 121c-71 61 -110 125 -117 191c-8 69 19 137 82 204c75 79 166 142 274 190c113 51 222 74 328 71c108 -3 202 -35 283 -97c61 -46 127 -122 198 -227
c6 -9 -1 -23 -20 -44c-17 -19 -41 -38 -71 -59c-30 -20 -57 -35 -81 -46c-26 -11 -42 -12 -47 -4c-82 121 -163 205 -243 254c-103 63 -218 80 -347 50l-23 -5l-24 -5c-17 -4 -31 -9 -42 -14c-29 -13 -46 -36 -51 -67c-7 -46 -1 -87 20 -122z" />
    <glyph glyph-name="t" unicode="t" horiz-adv-x="1580" 
d="M788 1618h604c25 0 28 -11 9 -34c-8 -9 -46 -41 -114 -98c-35 -23 -68 -34 -97 -34h-514c-197 -301 -304 -574 -321 -818c-7 -113 9 -217 50 -311c48 -106 118 -171 210 -195c97 -26 207 -24 330 6c96 24 180 54 253 90s115 55 124 58c43 10 58 2 45 -25
s-63 -63 -149 -110c-144 -74 -265 -127 -363 -158c-153 -48 -288 -61 -404 -38c-114 22 -204 78 -270 169c-59 81 -88 177 -89 286c-1 171 40 350 124 539c63 142 162 311 298 507h-324c-25 0 -28 11 -9 34c87 88 158 132 211 132h239c175 224 282 349 321 374
c40 26 65 40 76 41c42 9 57 5 44 -14c-33 -50 -78 -115 -135 -194z" />
    <glyph glyph-name="u" unicode="u" horiz-adv-x="1882" 
d="M1503 1014c13 181 -27 314 -120 399c-5 5 1 18 19 39c17 20 39 41 66 63c69 56 114 75 134 57c61 -55 98 -140 113 -253c11 -89 8 -184 -9 -286c-34 -193 -105 -368 -212 -524c-113 -165 -246 -298 -399 -399c-187 -124 -364 -169 -532 -136c-103 20 -195 62 -275 126
c-75 61 -134 137 -176 226c-41 89 -62 183 -63 283c-1 103 21 201 65 296c103 225 287 409 552 550h-643c-15 0 -11 14 12 42c8 9 17 18 28 29l10 10l3 3c1 1 2 1 2 2l7 5l8 7l16 13c13 11 26 19 37 26c31 19 57 29 79 29h898c27 6 54 11 80 15c23 4 29 -3 18 -22
c-4 -7 -10 -14 -17 -23l-9 -9c-3 -3 -5 -5 -8 -7c-12 -11 -23 -21 -33 -30c-13 -12 -26 -22 -38 -31c-32 -23 -60 -36 -85 -39c-23 -4 -46 -8 -68 -13c-10 -3 -20 -5 -29 -6c-181 -41 -327 -108 -438 -201c-129 -110 -203 -251 -221 -423c-17 -168 21 -320 115 -455
c99 -143 232 -223 399 -241c263 -29 465 123 606 456c63 146 99 287 108 422z" />
    <glyph glyph-name="v" unicode="v" horiz-adv-x="2077" 
d="M1281 1615c27 15 48 18 61 9c161 -95 295 -222 402 -381c122 -181 172 -356 150 -526c-20 -156 -94 -298 -223 -426c-168 -165 -330 -273 -487 -323c-171 -55 -355 -8 -550 139c-209 157 -361 302 -456 434c-119 164 -173 341 -164 531c10 201 92 362 245 483
c3 3 8 7 15 12l17 13c14 11 26 21 36 28c31 21 58 30 79 29c15 -1 11 -15 -12 -42c-7 -9 -16 -19 -27 -29c-4 -4 -8 -7 -11 -10l-5 -5c-59 -47 -97 -123 -113 -228c-13 -84 -10 -172 7 -263c31 -160 94 -295 190 -406c107 -123 228 -237 362 -342c81 -64 150 -111 207 -140
c85 -44 165 -64 239 -61c75 4 143 27 206 70c58 39 107 92 146 159c37 64 62 134 74 210s10 149 -7 219c-33 137 -100 269 -203 398c-97 123 -209 221 -335 296c-3 1 4 12 21 32c19 22 39 43 62 64c28 25 53 44 74 56z" />
    <glyph glyph-name="w" unicode="w" horiz-adv-x="3073" 
d="M1235 331c35 39 88 99 159 182c-47 357 -39 700 25 1027c0 29 37 63 110 104c28 15 53 27 76 35c23 7 41 8 54 2c-34 -311 -56 -549 -67 -714c-10 -164 9 -324 58 -479c32 -104 80 -188 144 -252c77 -76 165 -111 265 -105c103 7 197 56 281 149c68 74 124 168 168 283
c1 5 4 10 8 16v961c0 29 37 63 110 104c28 15 53 27 76 35c23 7 34 8 34 2l1 -1317c3 -55 18 -97 44 -126c25 -30 65 -51 119 -63c15 -3 12 -18 -11 -43c-7 -8 -16 -17 -27 -27c-4 -3 -8 -7 -11 -10l-4 -3l-2 -2l-6 -5l-7 -6c-6 -5 -11 -9 -16 -13c-15 -11 -28 -21 -39 -29
c-34 -23 -60 -32 -79 -28c-55 12 -96 31 -124 58c-31 29 -49 71 -55 124c-6 47 -9 105 -8 174c-161 -189 -326 -315 -493 -376c-204 -75 -367 -29 -489 137c-43 59 -78 132 -105 217l-7 38c-105 -105 -188 -181 -249 -229c-151 -117 -304 -182 -460 -195
c-176 -15 -330 40 -463 165c-125 119 -190 271 -195 456c-5 179 46 339 154 478c122 158 278 288 467 391h-648c-15 0 3 28 55 83c53 55 101 83 146 83h900c75 0 72 -36 -9 -107c-31 -23 -59 -36 -84 -39l-68 -13c-12 -4 -23 -6 -33 -7c-322 -69 -524 -214 -607 -435
c-47 -125 -62 -250 -45 -375c19 -137 74 -249 165 -336c97 -91 209 -151 337 -179c148 -32 300 38 455 209z" />
    <glyph glyph-name="x" unicode="x" horiz-adv-x="2128" 
d="M1853 150c42 30 76 45 102 44c15 -1 11 -15 -12 -42c-8 -9 -17 -18 -28 -29l-10 -10l-4 -3c-1 -1 -1 -1 -1 -2c-83 -71 -159 -108 -228 -113c-77 -5 -151 28 -222 101c-40 40 -80 86 -121 139c-62 -55 -126 -105 -192 -148c-65 -43 -136 -82 -215 -116
c-92 -39 -180 -66 -263 -80c-214 -36 -364 17 -449 159c-83 139 -91 281 -24 427c76 148 197 257 362 328c23 5 28 -2 14 -22c-76 -67 -123 -111 -140 -134s-29 -44 -35 -63c-17 -57 -25 -108 -23 -154c5 -127 45 -223 120 -289c90 -79 210 -108 361 -89
c139 17 255 67 350 149c31 26 61 56 92 89c-37 50 -114 169 -233 357s-194 305 -226 351c-85 123 -167 225 -248 306c-42 41 -79 74 -110 98c-44 33 -87 57 -129 70c-44 14 -99 6 -166 -25s-113 -50 -140 -57c-23 -7 -29 0 -17 21c4 7 34 38 90 91c57 53 127 95 210 124
c109 39 210 31 305 -23c89 -52 178 -130 265 -234c34 -41 84 -109 150 -205s116 -170 149 -223l89 -141c75 -120 136 -213 182 -280c74 126 128 258 161 395c19 79 30 144 32 195c3 73 -10 137 -37 192c-33 70 -78 121 -134 154c-65 37 -121 45 -166 22s-71 -35 -79 -37
c-23 -5 -28 2 -15 23c28 43 76 82 143 118c88 46 169 66 243 60c88 -7 155 -51 202 -133c75 -131 81 -300 17 -507s-166 -397 -305 -569l12 -18c39 -51 70 -90 93 -117c37 -42 73 -76 109 -102c35 -25 64 -39 89 -44l18 -3c4 -1 8 -1 12 -1z" />
    <glyph glyph-name="y" unicode="y" horiz-adv-x="2120" 
d="M1223 1641c28 17 54 27 79 30c122 16 228 14 317 -5c118 -25 204 -81 258 -168c62 -99 92 -216 90 -351c-1 -125 -28 -243 -80 -356c-189 -417 -604 -874 -1247 -1371c-26 -24 -50 -44 -73 -59c-29 -20 -57 -34 -83 -41c-24 -6 -30 1 -17 21c4 7 10 16 17 25
c3 3 6 7 9 10l6 6l133 123l132 123c107 99 195 182 264 248l-1019 1610c-6 9 1 25 20 47c17 19 41 39 72 60c29 21 56 36 80 47c27 11 42 13 47 5l998 -1578c243 239 398 454 465 644c41 115 60 229 55 342c-5 134 -43 241 -114 321c-107 120 -285 164 -532 131
c-15 -2 -10 11 13 40c8 9 17 19 27 30c3 4 7 8 10 11c3 2 4 3 5 4c27 23 50 40 68 51z" />
    <glyph glyph-name="z" unicode="z" horiz-adv-x="1327" 
d="M265 166h907c1 0 -1 -2 -4 -7c-4 -5 -9 -12 -15 -19c-17 -20 -34 -39 -52 -57c-56 -55 -99 -83 -130 -83h-958c-9 1 -12 5 -9 13c19 491 234 912 645 1264c73 75 151 148 234 217c-165 -65 -439 -62 -822 8c-3 1 2 10 17 28c15 19 32 39 53 59c58 57 102 83 132 79
c387 -79 680 -77 877 7c25 5 31 -3 18 -24c-27 -48 -160 -179 -397 -393s-399 -456 -488 -725c-30 -125 -46 -233 -48 -323c-1 -29 -1 -43 0 -43c0 -1 13 -1 40 -1z" />
    <glyph glyph-name="braceleft" unicode="{" horiz-adv-x="1028" 
d="M547 319c-9 -139 -8 -246 3 -323c33 -223 135 -365 308 -428c7 -2 3 -13 -12 -33c-14 -19 -33 -39 -57 -62c-62 -57 -106 -80 -133 -71c-169 62 -274 189 -313 381c-14 69 -21 157 -22 262c0 31 1 76 2 133c9 62 7 132 -4 209c-33 222 -135 364 -307 427
c-8 1 -11 5 -9 13v3c0 27 27 58 80 93c20 13 42 25 65 36c20 10 37 17 51 22c59 22 97 91 114 207c6 41 10 125 12 251v195c0 47 6 100 17 157c18 90 55 166 111 229c118 131 248 222 390 274c23 9 29 2 16 -20c-4 -8 -10 -17 -18 -26c-3 -3 -5 -7 -8 -10l-6 -6
c-49 -47 -95 -84 -137 -111s-86 -92 -133 -195c-6 -42 -10 -158 -12 -347c0 -113 -6 -199 -17 -256c-18 -91 -55 -167 -112 -229c-45 -51 -95 -97 -149 -139c21 -11 44 -25 69 -42c24 -17 40 -29 47 -36c100 -95 153 -201 159 -316c3 -66 5 -147 5 -242z" />
    <glyph glyph-name="bar" unicode="|" horiz-adv-x="435" 
d="M270 1953v-2304c-98 -23 -168 -33 -209 -31c-41 1 -61 7 -61 18v2340c0 -15 20 -17 61 -6s89 11 143 0s76 -17 66 -17z" />
    <glyph glyph-name="braceright" unicode="}" horiz-adv-x="1028" 
d="M331 1379c9 138 7 245 -4 322c-33 223 -135 365 -307 428c-7 3 -3 14 12 33c14 19 33 40 57 62c62 57 106 81 133 71c169 -62 273 -189 312 -380c15 -70 22 -157 22 -262c1 -32 0 -76 -1 -133c-9 -63 -8 -132 3 -209c33 -223 135 -365 308 -428c8 -1 11 -5 9 -13v-3
c-1 -27 -28 -57 -81 -92c-19 -13 -41 -25 -65 -37c-19 -10 -36 -17 -50 -22c-59 -21 -97 -90 -114 -207c-7 -41 -11 -125 -12 -251v-195c0 -47 -6 -99 -17 -156c-19 -91 -56 -167 -112 -230c-118 -131 -248 -222 -389 -273c-23 -9 -29 -2 -16 20c4 7 10 16 17 25
c3 4 6 7 9 10s4 5 5 6c50 47 96 84 138 111s86 92 133 196c6 41 10 157 12 346c0 114 6 199 17 256c18 91 55 167 111 230c46 51 96 97 150 138c-21 12 -44 26 -69 43c-25 16 -41 28 -48 35c-100 95 -153 201 -159 316c-3 67 -5 148 -4 243z" />
    <glyph glyph-name="asciitilde" unicode="~" horiz-adv-x="1586" 
d="M1141 814c18 13 48 45 90 98c17 23 60 52 128 88c29 15 48 23 58 23c13 0 10 -11 -7 -33c-76 -96 -149 -173 -220 -230c-94 -77 -188 -123 -283 -139c-57 -10 -119 6 -186 49c-23 15 -52 36 -85 63l-41 35l-41 33c-64 51 -117 78 -160 82c-58 6 -113 -25 -165 -94
c-33 -44 -81 -83 -143 -117c-1 -1 -4 -2 -8 -4c-3 -1 -7 -3 -12 -5c-11 -4 -21 -7 -29 -9c-25 -5 -29 2 -14 22c34 46 66 86 95 119c40 46 79 86 117 120c97 86 190 133 279 141c61 5 119 -8 174 -39c32 -18 80 -55 145 -111l19 -17l21 -18c17 -14 32 -26 45 -35
c36 -25 69 -40 100 -45c49 -8 90 0 123 23z" />
    <glyph glyph-name="exclamdown" unicode="&#xa1;" horiz-adv-x="432" 
d="M28 -25v1222c0 15 11 32 34 52c19 17 45 35 76 52c28 15 53 27 75 35c23 7 35 8 35 1v-1222c0 -15 -12 -32 -35 -52c-19 -17 -44 -35 -75 -52c-28 -15 -53 -27 -76 -35c-23 -7 -34 -8 -34 -1zM141 1616c-11 0 -21 4 -30 13l-98 98c-9 9 -13 19 -13 30c0 12 4 22 13 30
l98 99c9 8 19 12 30 12c12 0 22 -4 30 -12l99 -99c8 -8 12 -18 12 -30c0 -11 -4 -21 -12 -30l-99 -98c-8 -9 -18 -13 -30 -13z" />
    <glyph glyph-name="cent" unicode="&#xa2;" horiz-adv-x="1328" 
d="M787 1036l-203 -861l15 -9c169 -96 323 -91 461 14c29 22 54 37 75 45c19 7 31 8 36 1s1 -18 -12 -34c-13 -18 -35 -38 -64 -60c-111 -85 -214 -141 -309 -169c-88 -26 -173 -30 -255 -12l-52 -221l-52 12l53 224c-13 4 -27 9 -40 15c-121 52 -221 130 -300 233
c-85 109 -129 227 -134 353c-4 119 25 232 86 341c57 102 136 190 237 263c119 87 238 128 356 124c33 -1 68 -6 105 -15l53 226l52 -13l-54 -227c64 -21 132 -52 205 -94c2 -1 -5 -12 -22 -32c-19 -21 -39 -42 -62 -63c-27 -25 -52 -43 -74 -55c-27 -14 -47 -17 -61 -9
c-13 8 -27 16 -40 23zM536 205l202 856c-91 45 -167 70 -228 74c-118 7 -199 -54 -244 -185c-54 -155 -52 -296 6 -424c61 -134 149 -241 264 -321z" />
    <glyph glyph-name="sterling" unicode="&#xa3;" horiz-adv-x="1656" 
d="M0 661h154c-17 23 -31 44 -41 62c-45 77 -73 149 -84 218c-19 118 18 239 111 363c73 97 170 184 291 261c267 171 508 200 723 89c131 -67 224 -167 281 -300c46 -108 70 -245 71 -412c0 -15 -11 -32 -34 -52c-19 -17 -45 -35 -76 -52c-28 -15 -53 -27 -76 -34
c-23 -8 -34 -9 -34 -2c-1 142 -19 261 -52 358c-43 124 -114 219 -213 284c-103 68 -215 105 -338 111c-141 7 -248 -35 -321 -125c-45 -54 -77 -111 -97 -170c-23 -69 -26 -133 -11 -194c21 -82 75 -187 163 -316c21 -30 38 -60 53 -89h393v-40h-377
c23 -59 36 -110 38 -153c4 -87 -22 -184 -77 -291l-7 -11h976c15 0 11 -14 -12 -41c-8 -9 -17 -19 -28 -29c-3 -4 -7 -7 -10 -10c-1 -1 -2 -3 -3 -4l-2 -1l-7 -6l-8 -6l-16 -13c-13 -11 -26 -20 -37 -27c-31 -19 -57 -29 -79 -29h-1001c-10 0 -12 6 -5 18c5 9 14 21 28 36
c1 3 3 7 4 10c89 171 89 325 2 461l-61 96h-181v40z" />
    <glyph glyph-name="currency" unicode="&#xa4;" 
 />
    <glyph glyph-name="yen" unicode="&#xa5;" 
 />
    <glyph glyph-name="brokenbar" unicode="&#xa6;" 
 />
    <glyph glyph-name="section" unicode="&#xa7;" 
 />
    <glyph glyph-name="dieresis" unicode="&#xa8;" horiz-adv-x="965" 
d="M170 2027l99 -98c8 -9 12 -19 12 -30c0 -12 -4 -22 -12 -30l-99 -99c-8 -8 -18 -12 -29 -12c-12 0 -22 4 -30 12l-99 99c-8 8 -12 18 -12 30c0 11 4 21 12 30l99 98c8 9 18 13 30 13c11 0 21 -4 29 -13zM704 2027l99 -98c8 -9 12 -19 12 -30c0 -12 -4 -22 -12 -30
l-99 -99c-8 -8 -18 -12 -29 -12c-12 0 -22 4 -30 12l-99 99c-8 8 -12 18 -12 30c0 11 4 21 12 30l99 98c8 9 18 13 30 13c11 0 21 -4 29 -13z" />
    <glyph glyph-name="copyright" unicode="&#xa9;" horiz-adv-x="2700" 
d="M919 1653l-42 -16c101 211 236 370 403 479c167 -132 292 -277 375 -434c99 -188 148 -408 146 -661c-16 3 -38 10 -66 21l-32 12c-12 4 -23 7 -34 9c-9 361 -140 655 -394 882c-76 -62 -149 -147 -218 -256c-30 -4 -61 -11 -94 -22c-13 -4 -28 -9 -44 -14zM1212 1788
c24 28 47 50 68 67c8 -11 18 -24 30 -37l31 -35c27 -29 46 -54 57 -75c-28 4 -70 6 -126 5l-32 -1l-32 -1c-23 0 -41 1 -56 2l30 37zM294 698c-8 -7 -14 -8 -19 -4c28 304 145 543 352 718c217 185 492 258 824 220c25 -44 50 -96 75 -156c-275 68 -518 33 -728 -105
c-94 -62 -173 -141 -237 -236c-63 -94 -106 -197 -130 -309c-17 -11 -37 -29 -61 -52c-8 -7 -18 -17 -30 -30l-14 -14l-13 -13l-4 -4l-5 -5zM1829 1402c-12 43 -16 72 -13 88c241 -160 388 -381 440 -664c22 -118 21 -240 -2 -365c-21 -111 -56 -212 -107 -303l-4 -7l-5 -9
c-4 -8 -8 -15 -12 -22c-11 -19 -21 -35 -31 -50c-28 -41 -50 -64 -66 -69c-18 -5 -45 -3 -80 4l-20 4l-20 4c-15 3 -27 4 -37 3c74 81 131 160 172 235c55 101 86 208 94 319c11 151 -13 292 -71 425c-51 115 -124 216 -218 301c0 15 -2 33 -6 54l-6 26zM979 1324l17 71
c75 31 168 47 279 47c113 1 207 -15 280 -47l17 -71c6 -27 11 -51 14 -73c9 -56 13 -111 12 -164c-215 51 -430 51 -645 0c-1 53 2 108 11 164c4 22 9 46 15 73zM758 1253c43 39 95 74 157 104c-49 -215 -39 -427 28 -634c59 -181 153 -334 280 -461l-100 -76
c-285 273 -406 628 -365 1067zM1867 1140c0 18 0 32 1 42c78 -91 133 -188 166 -289c-12 6 -26 14 -42 24l-42 25c-33 20 -62 35 -87 45c4 21 6 54 5 101v26zM517 893c41 120 97 216 170 289c-4 -23 -6 -55 -5 -97l1 -52v-50c-25 -9 -54 -23 -86 -43l-40 -24
c-15 -9 -29 -17 -40 -23zM956 982l-3 34c165 47 341 53 529 20c162 -28 310 -81 443 -158l9 -5l9 -5l21 -12c16 -10 30 -19 42 -26c31 -21 50 -38 56 -51c8 -17 11 -45 10 -84l-1 -23l-1 -22c0 -17 1 -31 2 -42c-124 118 -279 205 -464 262c-217 65 -429 70 -636 13
c-5 17 -9 38 -12 64zM0 -89c61 451 292 786 692 1005c3 -21 6 -44 11 -69l13 -68c-310 -190 -498 -451 -564 -782c87 -32 196 -53 327 -62c9 -11 19 -22 32 -34l17 -16l18 -16c31 -27 53 -49 66 -67c-227 -9 -431 28 -612 109zM1270 314c-146 157 -241 324 -284 503
c84 24 180 36 289 36s205 -12 289 -36c-54 -209 -152 -376 -294 -503zM872 -38c-15 10 -26 17 -33 21c395 120 660 390 796 810l31 -12l30 -13c24 -10 43 -19 58 -27c-45 -167 -122 -319 -232 -455c-106 -131 -234 -238 -384 -322c-5 -3 -10 -6 -16 -10l-17 -10
c-16 -9 -28 -17 -37 -22c-31 -17 -53 -25 -68 -25c-21 1 -50 13 -87 37l-21 14l-10 7zM1526 128l-33 16c148 165 257 353 327 564l66 -44c25 -17 47 -33 64 -47c47 -36 85 -72 112 -108c-26 -113 -61 -204 -104 -275c-4 -7 -8 -14 -13 -21c-6 -9 -12 -19 -19 -28
c-16 -24 -32 -46 -47 -65c-43 -53 -76 -82 -101 -85c-17 -3 -42 2 -73 15c-9 3 -22 9 -39 16l-18 9c-7 3 -12 5 -17 7c-23 9 -47 20 -72 31zM488 513c69 76 152 141 247 195c55 -191 162 -379 322 -564l-32 -15l-32 -15c-28 -14 -51 -25 -69 -32c-5 -2 -10 -4 -17 -7l-19 -9
c-17 -7 -30 -13 -41 -17c-33 -12 -57 -17 -74 -14c-13 1 -31 13 -52 36c-7 7 -16 17 -26 28l-12 14c-5 5 -8 9 -10 12c-100 115 -162 244 -185 388zM2327 447c5 17 9 33 10 47c118 -179 189 -374 213 -583c-172 -91 -387 -124 -646 -99c-251 23 -440 90 -567 199
c9 5 18 12 28 21l26 22c22 20 40 34 55 42c111 -77 260 -127 446 -150c198 -24 367 -6 507 55c-15 75 -30 130 -43 166c-4 11 -10 23 -18 38l-10 19l-11 19c-17 31 -26 54 -27 71c-1 20 5 49 20 87l9 23zM382 382c19 28 37 50 54 65c33 -167 123 -317 270 -450
c105 -95 229 -159 372 -192c156 -36 312 -29 467 21c21 -10 53 -21 97 -34l25 -7l25 -8c19 -5 35 -11 48 -17c-98 -55 -210 -89 -337 -103c-125 -14 -246 -7 -365 22c-172 42 -319 119 -440 230c-115 106 -202 240 -261 401l22 36zM2197 113c27 47 49 83 64 107
c24 -61 45 -120 62 -176c-23 -8 -54 -15 -92 -22l-49 -8l-49 -8c10 15 21 33 33 53zM258 139c12 37 26 64 41 81c23 -59 64 -131 123 -214c-13 3 -30 5 -51 8l-26 4l-26 4c-41 7 -71 16 -91 27c5 11 11 26 16 44l7 23zM1272 -151c-67 0 -121 7 -163 20c13 6 28 14 44 23
l43 25c35 22 65 38 89 47c15 -15 40 -32 77 -51l21 -11l20 -12c15 -9 28 -17 38 -26c-56 -9 -112 -14 -169 -15z" />
    <glyph glyph-name="ordfeminine" unicode="&#xaa;" 
 />
    <glyph glyph-name="guillemotleft" unicode="&#xab;" 
 />
    <glyph glyph-name="logicalnot" unicode="&#xac;" horiz-adv-x="1465" 
 />
    <glyph glyph-name="registered" unicode="&#xae;" horiz-adv-x="3050" 
d="M344 1148c-101 -75 -191 -174 -268 -297c71 -121 161 -220 270 -295c9 -32 19 -64 31 -95c-161 96 -286 226 -377 390c93 167 217 297 373 390c-11 -31 -20 -62 -29 -93zM1151 -248c76 -107 176 -200 301 -277c119 76 217 168 295 277c33 9 65 20 96 31
c-94 -160 -224 -286 -391 -379c-165 84 -296 210 -395 378c30 -11 61 -21 94 -30zM2586 758c33 32 60 65 81 98l-40 44l-40 44c-3 33 -7 66 -12 99c67 -55 123 -119 168 -192c-53 -75 -110 -138 -169 -191c5 32 9 65 12 98zM2552 1148c-9 33 -19 65 -30 96
c151 -91 277 -220 378 -388c-88 -167 -215 -299 -380 -396c11 31 21 62 30 93c106 76 197 177 274 303c-81 125 -171 222 -272 292zM1388 2019l-1 -1l-26 -25c-33 -2 -66 -6 -99 -11c57 68 121 123 190 165c72 -51 134 -107 185 -166c-33 5 -65 9 -97 12
c-31 30 -63 54 -98 73c-1 1 -10 -7 -27 -22c-5 -5 -11 -10 -18 -17c-2 -1 -4 -3 -7 -6zM1353 -283c29 -29 62 -55 99 -80c41 33 72 59 94 80c33 3 65 7 97 13c-55 -67 -120 -125 -196 -174c-75 55 -138 113 -191 173c32 -5 64 -9 97 -12zM310 943c-31 -31 -56 -64 -77 -97
c33 -37 58 -65 77 -84c3 -33 7 -67 13 -100c-67 56 -124 121 -171 194c55 72 111 133 170 184c-5 -33 -9 -65 -12 -97zM1744 1958c-77 105 -176 195 -297 270c-117 -71 -213 -161 -290 -269c-33 -9 -66 -19 -97 -30c89 149 213 270 372 364l4 3l3 3c3 3 5 4 8 5
c165 -91 295 -216 391 -376c-31 11 -62 21 -94 30zM1994 305c0 -29 -2 -51 -5 -66c4 3 8 5 11 7l13 9c10 7 19 14 26 20c19 17 26 30 21 40c-9 -3 -19 -5 -31 -6l-17 -2c-7 -1 -13 -1 -18 -2zM2208 333c-17 -4 -33 -7 -47 -8c-90 -137 -225 -239 -406 -304
c-199 -73 -396 -76 -591 -10l8 -22l8 -23c7 -17 15 -29 24 -36c208 -64 422 -46 643 55c94 43 177 97 250 162c71 64 123 130 155 198l-22 -6zM1447 441c-103 -57 -218 -97 -344 -121c-1 -40 1 -81 8 -122c3 -16 6 -34 10 -54l13 -52c83 -41 189 -62 316 -61
c126 0 231 20 316 61l12 53c4 21 7 39 10 54c7 42 9 82 8 121c-107 18 -223 58 -349 121zM760 402c6 -8 11 -15 14 -21c212 -31 414 1 607 96c-29 25 -51 41 -65 50c-69 -40 -159 -67 -270 -80c-114 -13 -220 -8 -317 15c3 -14 10 -28 19 -42l6 -9zM861 304
c-9 0 -17 0 -26 1c28 -32 52 -54 71 -66v66c-3 1 -11 1 -24 0h-10zM648 335c59 -93 129 -170 212 -233c4 -3 11 -8 20 -16l12 -9l11 -10c19 -15 32 -20 38 -15c-6 23 -13 51 -20 86c-137 94 -238 231 -303 410c-72 198 -76 394 -11 587c0 4 -2 6 -5 5
c-21 -13 -47 -25 -76 -36c-36 -133 -41 -274 -15 -425c25 -143 70 -257 137 -344zM743 1181l-55 -11c-39 -84 -59 -189 -59 -316c-1 -129 19 -234 59 -316c55 -17 131 -29 228 -36c20 111 60 227 121 349l-18 40l-18 40c-14 32 -25 60 -34 83c-24 64 -39 126 -46 186
c-38 1 -79 -2 -122 -9c-15 -2 -33 -5 -56 -10zM648 1357c30 12 59 19 86 21c91 138 229 240 416 307c203 73 398 75 586 6c-6 24 -20 53 -41 86c-227 55 -442 36 -645 -57c-183 -83 -317 -204 -402 -363zM866 1395c14 2 27 3 40 3c-1 5 -2 12 -1 21l1 11l1 11
c2 17 0 26 -6 28c-4 -7 -9 -13 -16 -20l-9 -8l-10 -9c-15 -14 -26 -27 -31 -39l15 1zM1452 1261c102 60 217 101 344 122c1 39 -1 79 -8 120c-3 16 -6 34 -10 54l-12 53c-81 43 -187 64 -316 64s-235 -21 -316 -64c-11 -39 -19 -76 -25 -111c-7 -45 -9 -83 -6 -116
c103 -16 220 -57 349 -122zM2147 1286c-9 13 -16 25 -22 36c-111 17 -222 15 -334 -5c-101 -18 -192 -48 -273 -91c5 -3 11 -7 16 -11l14 -10c12 -9 24 -18 36 -25c69 39 161 64 274 77c107 11 212 9 313 -6zM2030 1436c-14 15 -28 26 -41 33c-1 -6 -1 -12 0 -19l3 -16
c3 -14 3 -26 2 -36c6 1 13 2 20 1l10 -2l9 -1c15 -3 26 -3 32 2l-18 19zM2353 593l20 10c55 225 37 440 -54 644c-83 184 -205 322 -366 414l7 -25l7 -24c5 -19 9 -37 12 -52c105 -75 189 -173 254 -292c71 -132 106 -273 105 -422c0 -43 -6 -94 -17 -153
c-4 -20 -9 -44 -15 -71l-4 -16l-3 -15c-3 -12 -5 -21 -7 -28c9 5 22 12 41 20zM1235 796c-15 -21 -27 -40 -36 -56c152 -195 351 -312 597 -349l-1 16l-2 16c-2 12 -4 23 -7 34c-219 47 -402 160 -551 339zM1193 643c-9 9 -17 18 -24 26c-22 -54 -37 -101 -46 -142
c33 4 81 18 142 41c-10 13 -26 30 -48 51zM1392 1069c-17 14 -34 24 -51 30c-188 -135 -306 -333 -354 -592c22 -1 46 0 71 5c20 117 62 223 125 320c49 75 119 154 209 237zM1220 1087c21 20 36 36 45 48c-47 17 -95 32 -142 45l10 -39c3 -15 7 -27 10 -37
c9 -28 19 -50 31 -65c6 7 13 15 22 24zM1665 912c15 24 25 44 30 61c-157 185 -354 300 -592 344c0 -29 2 -52 5 -71c204 -38 390 -149 557 -334zM1635 1135c29 -35 61 -67 96 -96c7 17 15 39 24 66l11 35l10 35c-49 -4 -96 -17 -141 -40zM1275 856
c45 -68 104 -127 177 -177c82 69 139 128 172 177c-73 84 -132 141 -177 171c-60 -49 -117 -106 -172 -171zM1754 602c-10 29 -19 51 -28 67c-9 -13 -24 -29 -44 -49l-24 -25c-9 -9 -16 -18 -23 -27c70 -23 118 -37 143 -41l-12 37zM1508 634c12 -9 31 -19 56 -31
c186 148 302 345 349 592c-5 3 -16 3 -33 1c-16 -1 -29 -3 -38 -6c-21 -115 -63 -221 -127 -318c-49 -75 -118 -154 -207 -238zM1114 961l12 18c-39 68 -66 161 -80 278c-13 113 -10 219 7 318c-5 -5 -12 -9 -19 -14l-21 -12c-17 -11 -29 -21 -36 -30
c-15 -113 -12 -224 9 -333c19 -105 51 -194 97 -269c3 6 10 15 20 28zM1817 785c-9 -23 -22 -44 -41 -65c39 -75 65 -165 78 -272c13 -112 9 -217 -12 -315l22 10c8 3 15 7 20 10c15 9 27 19 34 30c17 112 15 224 -5 335c-19 105 -51 194 -96 267zM2152 522l54 10
c43 83 64 189 64 320c1 131 -21 237 -64 318c-81 20 -155 30 -222 30c-37 -156 -80 -271 -127 -344c68 -135 109 -253 122 -354c36 1 75 5 118 11zM2494 598c-140 -97 -308 -149 -505 -157c3 -22 5 -45 5 -70c180 11 337 53 470 128c-11 -30 -22 -59 -35 -87
c-23 -11 -47 -22 -71 -31c-121 -201 -266 -345 -435 -430c-10 -27 -21 -52 -33 -77c-28 -13 -57 -25 -88 -36c13 22 24 44 35 67c-23 -8 -55 -18 -96 -30c-12 -23 -25 -45 -39 -66c-31 -7 -61 -13 -91 -18c15 21 26 42 34 63c-53 -15 -118 -22 -197 -21
c-77 0 -143 7 -198 21c11 -22 24 -43 39 -63c-31 5 -63 11 -95 18c-95 140 -148 307 -157 501c-5 -1 -11 -1 -18 -1l-18 1c-16 1 -28 0 -35 -1c13 -179 56 -336 131 -471c-30 10 -59 22 -88 35c-11 23 -22 47 -32 72c-199 116 -341 260 -425 431c-29 11 -57 23 -84 36
c-14 31 -26 62 -37 94c25 -13 50 -25 75 -34c-15 26 -25 55 -30 86c-25 13 -50 28 -74 44c-7 31 -13 61 -18 92c22 -17 44 -32 66 -45c-14 53 -20 121 -19 205c1 63 5 130 14 200c-23 -17 -44 -32 -62 -46c5 31 11 63 18 94c143 99 313 154 510 164l-2 16l-2 16
c-2 12 -2 23 -1 34c-183 -9 -341 -52 -476 -129c10 29 21 58 33 86c26 12 52 23 78 33c108 191 253 336 436 435c11 28 22 55 35 82c29 13 60 25 91 36c-15 -26 -28 -52 -40 -77l12 4l12 4l23 8c17 6 31 11 44 14c15 26 31 51 48 75c31 7 62 12 93 17c-6 -8 -11 -15 -16 -21
c-7 -9 -12 -18 -17 -25c-13 -18 -17 -27 -12 -26c137 28 270 30 400 5c-17 25 -32 48 -46 67c32 -5 64 -11 96 -19c97 -141 151 -310 162 -508h10h10h20c15 1 23 6 26 15c-8 174 -51 329 -128 464c30 -10 59 -22 87 -35c13 -26 25 -53 36 -80c202 -119 344 -262 425 -430
c29 -11 57 -22 84 -35c13 -31 25 -62 36 -94c-25 13 -49 24 -74 33c11 -16 21 -45 30 -86c25 -14 49 -28 72 -43c7 -30 13 -60 17 -91c-21 17 -42 31 -64 43c14 -53 20 -122 19 -206c-1 -60 -5 -126 -14 -199l59 45c-5 -32 -12 -64 -19 -96zM2513 694c8 53 12 107 12 161
c0 52 -4 104 -12 156c-4 31 -10 61 -17 91c27 -18 54 -38 79 -59c5 -33 9 -66 12 -99c2 -30 3 -60 3 -89c0 -32 -1 -64 -4 -97s-7 -66 -12 -98c-26 -23 -53 -43 -80 -62c7 32 14 64 19 96zM463 1289c-12 -28 -23 -57 -33 -86c-29 -17 -58 -35 -86 -55c9 31 18 62 29 93
c57 159 147 300 268 421s260 210 419 267c31 11 64 21 97 30c-19 -26 -37 -54 -54 -84c-31 -11 -62 -23 -91 -36c-121 -54 -229 -128 -324 -223c-96 -96 -171 -205 -225 -327zM1009 -127c29 -13 58 -25 88 -35c17 -30 35 -59 54 -86c-33 9 -64 19 -94 30
c-157 57 -296 146 -415 265s-208 257 -265 414c-12 31 -22 63 -31 95c27 -19 56 -35 85 -50c11 -32 23 -63 37 -94c112 -248 292 -428 541 -539zM1449 1997c30 0 60 -1 91 -4c32 -3 64 -7 97 -12c23 -25 44 -52 63 -80c-32 8 -64 14 -96 19c-52 7 -104 11 -155 11
c-52 0 -103 -4 -154 -11c-31 -5 -62 -10 -93 -17c19 28 39 54 60 79c33 5 66 9 99 11c29 3 59 4 88 4zM2429 412c13 28 24 57 35 87c31 17 59 35 86 54c-9 -31 -19 -62 -30 -93c-58 -157 -146 -294 -265 -412c-119 -119 -256 -207 -412 -265c-31 -11 -63 -22 -96 -31
c20 29 38 57 55 86c31 11 60 23 88 36c247 111 427 291 539 538zM1887 1837c-28 13 -57 25 -87 35c-17 30 -36 59 -56 86c32 -9 63 -19 94 -30c159 -57 298 -146 418 -266c120 -121 209 -260 266 -418c11 -31 21 -63 30 -96l-84 50c-11 32 -23 63 -36 94
c-54 121 -128 228 -222 323c-94 94 -202 168 -323 222zM307 855c0 29 1 58 3 88c3 32 7 64 12 97c25 23 52 43 79 62c-7 -31 -13 -63 -18 -94c-7 -51 -11 -102 -11 -153c0 -54 4 -108 12 -161c5 -31 11 -61 18 -92c-27 19 -54 39 -79 60c-6 33 -10 67 -13 100
c-2 31 -3 62 -3 93zM1449 -287c-32 0 -64 1 -96 4c-33 3 -65 7 -97 12c-22 26 -43 53 -62 80c32 -7 64 -13 95 -18c53 -8 107 -12 160 -12c54 0 108 4 162 12c30 5 60 11 91 18c-18 -28 -38 -54 -59 -79c-32 -6 -64 -10 -97 -13s-65 -4 -97 -4z" />
    <glyph glyph-name="overscore" unicode="&#xaf;" 
 />
    <glyph glyph-name="degree" unicode="&#xb0;" horiz-adv-x="436" 
d="M158 1676c7 1 12 3 15 7c7 9 11 19 11 30s-4 22 -11 31c-8 9 -18 15 -29 16c-6 1 -12 1 -17 0c-7 -1 -12 -4 -15 -7c-7 -9 -11 -20 -11 -31s4 -21 11 -30c8 -9 18 -15 29 -16c7 -1 12 -1 17 0zM44 1805c27 29 59 46 96 51c19 3 37 1 55 -4c17 -5 33 -14 46 -25
c14 -12 25 -26 32 -43c8 -17 12 -35 13 -54c-1 -36 -15 -69 -43 -98c-27 -29 -59 -46 -96 -51c-19 -3 -37 -1 -55 4c-17 5 -33 14 -47 25c-14 12 -25 26 -33 43s-12 35 -11 54c1 36 15 69 43 98z" />
    <glyph glyph-name="plusminus" unicode="&#xb1;" 
 />
    <glyph glyph-name="uni00B2" unicode="&#xb2;" 
 />
    <glyph glyph-name="uni00B3" unicode="&#xb3;" 
 />
    <glyph glyph-name="acute" unicode="&#xb4;" horiz-adv-x="731" 
d="M569 2177c-149 -147 -252 -238 -310 -273s-116 -52 -173 -52c-57 1 -81 4 -72 11c83 63 189 169 319 317c11 12 55 17 132 14s112 -8 104 -17z" />
    <glyph glyph-name="mu" unicode="&#xb5;" 
 />
    <glyph glyph-name="paragraph" unicode="&#xb6;" 
 />
    <glyph glyph-name="middot" unicode="&#xb7;" 
 />
    <glyph glyph-name="middot" unicode="&#x2219;" 
 />
    <glyph glyph-name="cedilla" unicode="&#xb8;" horiz-adv-x="626" 
d="M371 -237l8 -9c16 -21 23 -41 22 -61c-2 -22 -13 -41 -34 -57c-41 -32 -96 -52 -165 -59c-53 -5 -113 -3 -178 6c-16 3 -24 6 -24 11s8 8 24 11l128 16l10 5l9 6c7 4 12 8 17 13c16 15 25 31 28 48c3 19 -2 37 -17 53l-7 8l-8 9c-7 7 -12 14 -15 19c-11 17 -15 32 -10 45
l131 264c3 9 15 15 36 17l142 -15c5 -1 8 -1 8 -2c-3 -6 -25 -55 -68 -147c-43 -93 -61 -145 -55 -157c3 -4 6 -9 11 -16z" />
    <glyph glyph-name="uni00B9" unicode="&#xb9;" 
 />
    <glyph glyph-name="ordmasculine" unicode="&#xba;" horiz-adv-x="1914" 
 />
    <glyph glyph-name="guillemotright" unicode="&#xbb;" 
 />
    <glyph glyph-name="onequarter" unicode="&#xbc;" 
 />
    <glyph glyph-name="onehalf" unicode="&#xbd;" 
 />
    <glyph glyph-name="threequarters" unicode="&#xbe;" 
 />
    <glyph glyph-name="questiondown" unicode="&#xbf;" horiz-adv-x="1593" 
d="M44 311c-29 113 -9 224 60 335c52 83 145 170 278 262l38 26l37 25c27 19 49 37 65 54c43 43 64 95 63 156c0 15 11 32 34 52c19 17 45 35 76 52c28 15 53 27 76 35c23 7 34 8 34 1c1 -91 -45 -181 -140 -268c-34 -31 -77 -65 -129 -101c-17 -12 -39 -27 -66 -45l-31 -21
l-30 -19c-81 -55 -131 -132 -152 -231c-21 -102 -4 -193 53 -272c55 -77 128 -135 221 -174c92 -39 186 -52 281 -40c63 8 121 32 174 72c51 39 90 87 118 145c29 59 41 118 37 178c-4 65 -27 124 -69 176c-6 7 0 22 19 43c17 20 41 41 70 62c72 54 115 72 130 54
c101 -125 102 -268 3 -427c-39 -61 -91 -123 -158 -186c-53 -51 -113 -99 -178 -144c-109 -76 -224 -121 -343 -136c-130 -16 -249 7 -358 70c-113 65 -184 154 -213 266zM700 1591c-11 0 -21 4 -30 13l-98 98c-9 9 -13 19 -13 30c0 12 4 22 13 30l98 99c9 8 19 12 30 12
c12 0 22 -4 30 -12l99 -99c8 -8 12 -18 12 -30c0 -11 -4 -21 -12 -30l-99 -98c-8 -9 -18 -13 -30 -13z" />
    <glyph glyph-name="Agrave" unicode="&#xc0;" horiz-adv-x="2089" 
d="M455 179c145 -63 284 -90 416 -82c149 9 277 59 386 151c-61 91 -130 217 -207 378l-57 119l-56 120c-45 97 -84 176 -115 237l-26 51l-515 -787l-41 -63l6 -3c65 -48 134 -88 209 -121zM1816 -20c16 -5 37 -8 64 -10l22 -2l22 -2h3l5 -1c5 -1 7 -2 7 -3
c-1 -2 -4 -4 -10 -6l-6 -2l-3 -1h-2c-97 -27 -191 -31 -280 -14c-98 19 -179 62 -243 131c-32 35 -64 74 -97 119c-257 -206 -513 -294 -766 -263c-206 25 -382 96 -528 215c-3 9 -1 17 6 24l723 1107c-36 65 -71 121 -106 166c-71 93 -137 154 -200 181
c-31 13 -72 20 -122 21h-64c-25 0 -45 1 -62 3c-1 0 -4 0 -8 1s-8 1 -13 2c-12 3 -22 6 -30 9c-25 8 -25 15 0 21c57 13 124 22 201 27c126 8 244 -16 355 -71c114 -57 202 -139 264 -246l1 -1l1 -2c2 -3 4 -6 5 -9c6 -10 12 -21 19 -32c21 -37 42 -73 61 -108
c63 -112 108 -197 135 -255l51 -105l50 -106l40 -85l40 -85c31 -68 59 -125 83 -170c67 -127 136 -232 208 -313c39 -45 73 -78 101 -97c22 -19 46 -31 73 -38zM1155 1864c9 -7 -15 -10 -72 -11c-57 0 -115 17 -173 52s-161 126 -310 273c-8 9 26 14 103 17s122 -2 133 -14
c130 -148 236 -254 319 -317z" />
    <glyph glyph-name="Aacute" unicode="&#xc1;" horiz-adv-x="2089" 
d="M455 179c145 -63 284 -90 416 -82c149 9 277 59 386 151c-61 91 -130 217 -207 378l-57 119l-56 120c-45 97 -84 176 -115 237l-26 51l-515 -787l-41 -63l6 -3c65 -48 134 -88 209 -121zM1816 -20c16 -5 37 -8 64 -10l22 -2l22 -2h3l5 -1c5 -1 7 -2 7 -3
c-1 -2 -4 -4 -10 -6l-6 -2l-3 -1h-2c-97 -27 -191 -31 -280 -14c-98 19 -179 62 -243 131c-32 35 -64 74 -97 119c-257 -206 -513 -294 -766 -263c-206 25 -382 96 -528 215c-3 9 -1 17 6 24l723 1107c-36 65 -71 121 -106 166c-71 93 -137 154 -200 181
c-31 13 -72 20 -122 21h-64c-25 0 -45 1 -62 3c-1 0 -4 0 -8 1s-8 1 -13 2c-12 3 -22 6 -30 9c-25 8 -25 15 0 21c57 13 124 22 201 27c126 8 244 -16 355 -71c114 -57 202 -139 264 -246l1 -1l1 -2c2 -3 4 -6 5 -9c6 -10 12 -21 19 -32c21 -37 42 -73 61 -108
c63 -112 108 -197 135 -255l51 -105l50 -106l40 -85l40 -85c31 -68 59 -125 83 -170c67 -127 136 -232 208 -313c39 -45 73 -78 101 -97c22 -19 46 -31 73 -38zM1342 2178c-149 -147 -252 -238 -310 -273s-116 -52 -173 -52c-57 1 -81 4 -72 11c83 63 189 169 319 317
c11 12 55 17 132 14s112 -8 104 -17z" />
    <glyph glyph-name="Acircumflex" unicode="&#xc2;" horiz-adv-x="2089" 
d="M455 179c145 -63 284 -90 416 -82c149 9 277 59 386 151c-61 91 -130 217 -207 378l-57 119l-56 120c-45 97 -84 176 -115 237l-26 51l-515 -787l-41 -63l6 -3c65 -48 134 -88 209 -121zM1816 -20c16 -5 37 -8 64 -10l22 -2l22 -2h3l5 -1c5 -1 7 -2 7 -3
c-1 -2 -4 -4 -10 -6l-6 -2l-3 -1h-2c-97 -27 -191 -31 -280 -14c-98 19 -179 62 -243 131c-32 35 -64 74 -97 119c-257 -206 -513 -294 -766 -263c-206 25 -382 96 -528 215c-3 9 -1 17 6 24l723 1107c-36 65 -71 121 -106 166c-71 93 -137 154 -200 181
c-31 13 -72 20 -122 21h-64c-25 0 -45 1 -62 3c-1 0 -4 0 -8 1s-8 1 -13 2c-12 3 -22 6 -30 9c-25 8 -25 15 0 21c57 13 124 22 201 27c126 8 244 -16 355 -71c114 -57 202 -139 264 -246l1 -1l1 -2c2 -3 4 -6 5 -9c6 -10 12 -21 19 -32c21 -37 42 -73 61 -108
c63 -112 108 -197 135 -255l51 -105l50 -106l40 -85l40 -85c31 -68 59 -125 83 -170c67 -127 136 -232 208 -313c39 -45 73 -78 101 -97c22 -19 46 -31 73 -38zM942 2103c65 -100 133 -175 202 -225c8 -5 -2 -11 -29 -16c-9 -2 -18 -4 -29 -5c-4 0 -8 0 -11 -1h-4h-2l-14 -1
l-16 -1c-14 -1 -26 -1 -37 -1c-30 1 -51 6 -64 15c-32 23 -64 56 -97 97c-33 -41 -65 -74 -97 -97c-13 -9 -34 -14 -64 -15c-11 0 -23 0 -37 1l-16 1c-7 0 -12 0 -15 1h-1h-4c-3 1 -7 1 -11 1c-11 1 -21 3 -30 5c-27 5 -36 11 -28 16c69 50 137 125 202 225
c13 21 26 42 39 62c7 11 28 17 62 17s55 -6 62 -17c13 -21 26 -42 39 -62z" />
    <glyph glyph-name="Atilde" unicode="&#xc3;" horiz-adv-x="2089" 
d="M455 179c145 -63 284 -90 416 -82c149 9 277 59 386 151c-61 91 -130 217 -207 378l-57 119l-56 120c-45 97 -84 176 -115 237l-26 51l-515 -787l-41 -63l6 -3c65 -48 134 -88 209 -121zM1816 -20c16 -5 37 -8 64 -10l22 -2l22 -2h3l5 -1c5 -1 7 -2 7 -3
c-1 -2 -4 -4 -10 -6l-6 -2l-3 -1h-2c-97 -27 -191 -31 -280 -14c-98 19 -179 62 -243 131c-32 35 -64 74 -97 119c-257 -206 -513 -294 -766 -263c-206 25 -382 96 -528 215c-3 9 -1 17 6 24l723 1107c-36 65 -71 121 -106 166c-71 93 -137 154 -200 181
c-31 13 -72 20 -122 21h-64c-25 0 -45 1 -62 3c-1 0 -4 0 -8 1s-8 1 -13 2c-12 3 -22 6 -30 9c-25 8 -25 15 0 21c57 13 124 22 201 27c126 8 244 -16 355 -71c114 -57 202 -139 264 -246l1 -1l1 -2c2 -3 4 -6 5 -9c6 -10 12 -21 19 -32c21 -37 42 -73 61 -108
c63 -112 108 -197 135 -255l51 -105l50 -106l40 -85l40 -85c31 -68 59 -125 83 -170c67 -127 136 -232 208 -313c39 -45 73 -78 101 -97c22 -19 46 -31 73 -38zM742 2056c31 18 57 30 78 35c109 27 207 3 296 -71c11 -9 17 -25 18 -48c1 -7 1 -16 0 -27l-2 -13
c0 -5 0 -8 -1 -10v-4c-1 -3 -1 -5 -2 -8c-1 -9 -3 -16 -5 -22c-6 -20 -13 -27 -20 -22c-30 25 -60 45 -89 58c-42 19 -83 26 -122 21c-32 -4 -63 -13 -94 -26c-9 -4 -22 -10 -39 -19l-20 -10l-21 -10c-55 -25 -109 -33 -160 -23c-52 10 -89 34 -111 73c-8 15 -12 33 -12 54
c-1 15 1 33 5 55c0 1 0 3 1 5c0 3 0 5 1 7c2 7 4 12 7 17c7 13 13 13 20 0c14 -25 41 -42 80 -52c40 -10 79 -9 117 3c12 4 25 10 39 17l19 10z" />
    <glyph glyph-name="Adieresis" unicode="&#xc4;" horiz-adv-x="2089" 
d="M455 179c145 -63 284 -90 416 -82c149 9 277 59 386 151c-61 91 -130 217 -207 378l-57 119l-56 120c-45 97 -84 176 -115 237l-26 51l-515 -787l-41 -63l6 -3c65 -48 134 -88 209 -121zM1816 -20c16 -5 37 -8 64 -10l22 -2l22 -2h3l5 -1c5 -1 7 -2 7 -3
c-1 -2 -4 -4 -10 -6l-6 -2l-3 -1h-2c-97 -27 -191 -31 -280 -14c-98 19 -179 62 -243 131c-32 35 -64 74 -97 119c-257 -206 -513 -294 -766 -263c-206 25 -382 96 -528 215c-3 9 -1 17 6 24l723 1107c-36 65 -71 121 -106 166c-71 93 -137 154 -200 181
c-31 13 -72 20 -122 21h-64c-25 0 -45 1 -62 3c-1 0 -4 0 -8 1s-8 1 -13 2c-12 3 -22 6 -30 9c-25 8 -25 15 0 21c57 13 124 22 201 27c126 8 244 -16 355 -71c114 -57 202 -139 264 -246l1 -1l1 -2c2 -3 4 -6 5 -9c6 -10 12 -21 19 -32c21 -37 42 -73 61 -108
c63 -112 108 -197 135 -255l51 -105l50 -106l40 -85l40 -85c31 -68 59 -125 83 -170c67 -127 136 -232 208 -313c39 -45 73 -78 101 -97c22 -19 46 -31 73 -38zM572 2123l99 -98c8 -9 12 -19 12 -30c0 -12 -4 -22 -12 -30l-99 -99c-8 -8 -18 -12 -29 -12c-12 0 -22 4 -30 12
l-99 99c-8 8 -12 18 -12 30c0 11 4 21 12 30l99 98c8 9 18 13 30 13c11 0 21 -4 29 -13zM1106 2123l99 -98c8 -9 12 -19 12 -30c0 -12 -4 -22 -12 -30l-99 -99c-8 -8 -18 -12 -29 -12c-12 0 -22 4 -30 12l-99 99c-8 8 -12 18 -12 30c0 11 4 21 12 30l99 98c8 9 18 13 30 13
c11 0 21 -4 29 -13z" />
    <glyph glyph-name="Aring" unicode="&#xc5;" horiz-adv-x="2089" 
d="M455 179c145 -63 284 -90 416 -82c149 9 277 59 386 151c-61 91 -130 217 -207 378l-57 119l-56 120c-45 97 -84 176 -115 237l-26 51l-515 -787l-41 -63l6 -3c65 -48 134 -88 209 -121zM1816 -20c16 -5 37 -8 64 -10l22 -2l22 -2h3l5 -1c5 -1 7 -2 7 -3
c-1 -2 -4 -4 -10 -6l-6 -2l-3 -1h-2c-97 -27 -191 -31 -280 -14c-98 19 -179 62 -243 131c-32 35 -64 74 -97 119c-257 -206 -513 -294 -766 -263c-206 25 -382 96 -528 215c-3 9 -1 17 6 24l723 1107c-36 65 -71 121 -106 166c-71 93 -137 154 -200 181
c-31 13 -72 20 -122 21h-64c-25 0 -45 1 -62 3c-1 0 -4 0 -8 1s-8 1 -13 2c-12 3 -22 6 -30 9c-25 8 -25 15 0 21c57 13 124 22 201 27c126 8 244 -16 355 -71c114 -57 202 -139 264 -246l1 -1l1 -2c2 -3 4 -6 5 -9c6 -10 12 -21 19 -32c21 -37 42 -73 61 -108
c63 -112 108 -197 135 -255l51 -105l50 -106l40 -85l40 -85c31 -68 59 -125 83 -170c67 -127 136 -232 208 -313c39 -45 73 -78 101 -97c22 -19 46 -31 73 -38zM878 2019l-48 49c-5 4 -10 6 -15 6c-6 0 -11 -2 -15 -6l-48 -49c-4 -4 -6 -9 -6 -14c0 -6 2 -11 6 -15l48 -48
c4 -4 9 -6 15 -6c5 0 10 2 15 6l48 48c4 4 6 9 6 15c0 5 -2 10 -6 14zM857 2188l141 -141c12 -11 18 -25 18 -42s-6 -31 -18 -43l-141 -140c-11 -12 -25 -18 -42 -18s-31 6 -43 18l-140 140c-12 12 -18 26 -18 43s6 31 18 42l140 141c12 11 26 17 43 17s31 -6 42 -17z" />
    <glyph glyph-name="AE" unicode="&#xc6;" horiz-adv-x="3189" 
d="M293 204c11 -72 55 -131 130 -178c137 -85 296 -76 476 28c68 39 139 93 214 160c53 47 111 105 174 174c-29 49 -104 195 -223 439l-40 85c-25 -15 -149 -87 -370 -216c-138 -90 -239 -184 -304 -281c-48 -73 -67 -143 -57 -211zM1738 1465c-99 -43 -170 -105 -214 -187
c-72 -134 -105 -274 -100 -421h508c231 11 403 41 514 91c149 67 187 167 114 302c-44 82 -115 147 -213 195c-91 45 -193 70 -304 74c-112 4 -214 -14 -305 -54zM2261 84c233 -4 450 67 649 214c63 46 100 61 112 45c11 -16 -14 -47 -77 -93c-301 -221 -569 -333 -806 -336
c-153 -2 -296 24 -431 77c-108 26 -206 91 -295 196l-8 8l-7 9c-103 -95 -219 -170 -347 -225c-142 -61 -277 -94 -406 -98c-63 -2 -122 -1 -175 3c-71 5 -134 16 -189 31c-143 41 -233 116 -268 225c-53 165 51 341 312 528s475 304 641 352c-97 194 -162 317 -196 370
c-103 160 -198 231 -284 213c-26 -5 -77 -4 -152 4c-32 4 -53 8 -62 13c-11 5 -3 10 23 16c114 23 220 30 317 19c121 -13 217 -53 288 -119c69 -63 171 -215 307 -454l35 -70l9 -17c79 225 232 407 461 546c117 71 245 116 384 133c146 19 280 5 403 -44
c109 -43 190 -99 243 -168c63 -83 75 -176 37 -278c-45 -119 -156 -228 -335 -327h502c1 0 -1 -2 -5 -7c-3 -5 -8 -12 -14 -19c-17 -19 -34 -38 -53 -57c-55 -55 -99 -83 -130 -83l-1298 -2c32 -137 95 -251 189 -344c173 -170 382 -257 626 -261z" />
    <glyph glyph-name="Ccedilla" unicode="&#xc7;" horiz-adv-x="1718" 
d="M675 -173l61 123c-127 4 -245 37 -356 100c-148 85 -255 205 -321 361c-67 158 -77 318 -29 481c49 167 143 318 282 453c137 133 291 224 461 275c199 59 366 49 503 -28c22 -13 44 -27 65 -44c13 11 29 24 50 38c7 5 15 10 24 16l10 6c3 2 6 4 8 5l2 2l5 2
c4 3 8 5 12 8c13 7 24 12 34 17c31 13 46 12 45 -3c-1 -33 -2 -63 -3 -91c0 -58 2 -111 7 -160c3 -27 8 -54 13 -79l8 -33l8 -34l2 -10l1 -11c1 -8 0 -15 -3 -20c-1 -3 -4 -7 -7 -10l-8 -10c-11 -13 -28 -29 -52 -46c-21 -15 -42 -29 -65 -41c-24 -13 -43 -22 -58 -27h-2
l-3 -2l-9 -2c-7 -2 -12 -1 -13 2c-54 135 -126 239 -216 313c-103 84 -223 121 -358 112c-171 -12 -299 -72 -384 -179c-95 -121 -149 -253 -162 -398c-11 -129 9 -252 60 -369c53 -121 132 -217 237 -288c126 -86 257 -132 394 -138c81 -3 153 0 216 10
c85 13 151 39 198 77l7 6l7 6l17 13c13 11 26 20 37 27c31 21 58 30 79 29c15 -1 11 -14 -12 -41c-7 -9 -16 -19 -27 -29c-4 -4 -8 -7 -11 -10l-5 -5c-151 -121 -314 -199 -489 -233c-4 -8 -8 -16 -11 -24c-43 -93 -62 -145 -55 -157c3 -4 6 -9 11 -16l7 -8l7 -9
c17 -21 24 -41 22 -61c-1 -22 -12 -41 -33 -57c-41 -32 -96 -52 -165 -59c-53 -5 -113 -3 -178 6c-16 3 -24 6 -24 11s8 8 24 11l128 16l9 5l10 6c7 4 12 8 17 13c16 15 25 31 28 48c3 19 -2 37 -17 53l-7 8l-8 9c-7 7 -12 14 -16 19c-11 17 -14 32 -9 45z" />
    <glyph glyph-name="Egrave" unicode="&#xc8;" horiz-adv-x="1925" 
d="M615 1482c-107 -18 -186 -60 -239 -125c-118 -145 -172 -318 -163 -519c15 6 29 9 40 9h586c393 32 552 152 477 359c-29 82 -87 148 -173 197c-71 41 -155 67 -253 80c-103 13 -195 13 -275 -1zM1018 85c227 -3 434 67 623 212l2 1l2 1l5 4c4 3 8 7 13 10
c13 9 26 17 37 24c35 20 56 25 63 14c8 -11 -3 -30 -32 -57c-10 -9 -21 -18 -34 -28c-5 -3 -9 -7 -14 -11l-5 -3l-3 -3c-141 -108 -271 -187 -388 -236c-281 -118 -550 -124 -805 -17c-107 45 -201 110 -280 197c-82 89 -138 190 -169 301c-62 225 -34 443 83 653
c113 201 278 347 495 437c111 46 226 70 344 73c126 3 241 -21 344 -70c93 -44 160 -102 201 -175c47 -83 50 -170 7 -260c-55 -115 -158 -217 -311 -305h480c15 0 11 -13 -12 -40c-7 -9 -16 -18 -26 -29l-10 -10l-3 -3c-1 -1 -2 -1 -2 -1l-7 -6l-7 -6l-16 -13
c-13 -11 -24 -19 -35 -26c-29 -19 -55 -29 -76 -29h-898c-81 -5 -197 -6 -348 -3c32 -133 92 -246 181 -338c163 -168 363 -254 601 -258zM1131 1862c9 -7 -15 -10 -72 -11c-57 0 -115 17 -173 52s-161 126 -310 273c-8 9 26 14 103 17s122 -2 133 -14
c130 -148 236 -254 319 -317z" />
    <glyph glyph-name="Eacute" unicode="&#xc9;" horiz-adv-x="1925" 
d="M615 1482c-107 -18 -186 -60 -239 -125c-118 -145 -172 -318 -163 -519c15 6 29 9 40 9h586c393 32 552 152 477 359c-29 82 -87 148 -173 197c-71 41 -155 67 -253 80c-103 13 -195 13 -275 -1zM1018 85c227 -3 434 67 623 212l2 1l2 1l5 4c4 3 8 7 13 10
c13 9 26 17 37 24c35 20 56 25 63 14c8 -11 -3 -30 -32 -57c-10 -9 -21 -18 -34 -28c-5 -3 -9 -7 -14 -11l-5 -3l-3 -3c-141 -108 -271 -187 -388 -236c-281 -118 -550 -124 -805 -17c-107 45 -201 110 -280 197c-82 89 -138 190 -169 301c-62 225 -34 443 83 653
c113 201 278 347 495 437c111 46 226 70 344 73c126 3 241 -21 344 -70c93 -44 160 -102 201 -175c47 -83 50 -170 7 -260c-55 -115 -158 -217 -311 -305h480c15 0 11 -13 -12 -40c-7 -9 -16 -18 -26 -29l-10 -10l-3 -3c-1 -1 -2 -1 -2 -1l-7 -6l-7 -6l-16 -13
c-13 -11 -24 -19 -35 -26c-29 -19 -55 -29 -76 -29h-898c-81 -5 -197 -6 -348 -3c32 -133 92 -246 181 -338c163 -168 363 -254 601 -258zM1349 2177c-149 -147 -252 -238 -310 -273s-116 -52 -173 -52c-57 1 -81 4 -72 11c83 63 189 169 319 317c11 12 55 17 132 14
s112 -8 104 -17z" />
    <glyph glyph-name="Ecircumflex" unicode="&#xca;" horiz-adv-x="1925" 
d="M615 1482c-107 -18 -186 -60 -239 -125c-118 -145 -172 -318 -163 -519c15 6 29 9 40 9h586c393 32 552 152 477 359c-29 82 -87 148 -173 197c-71 41 -155 67 -253 80c-103 13 -195 13 -275 -1zM1018 85c227 -3 434 67 623 212l2 1l2 1l5 4c4 3 8 7 13 10
c13 9 26 17 37 24c35 20 56 25 63 14c8 -11 -3 -30 -32 -57c-10 -9 -21 -18 -34 -28c-5 -3 -9 -7 -14 -11l-5 -3l-3 -3c-141 -108 -271 -187 -388 -236c-281 -118 -550 -124 -805 -17c-107 45 -201 110 -280 197c-82 89 -138 190 -169 301c-62 225 -34 443 83 653
c113 201 278 347 495 437c111 46 226 70 344 73c126 3 241 -21 344 -70c93 -44 160 -102 201 -175c47 -83 50 -170 7 -260c-55 -115 -158 -217 -311 -305h480c15 0 11 -13 -12 -40c-7 -9 -16 -18 -26 -29l-10 -10l-3 -3c-1 -1 -2 -1 -2 -1l-7 -6l-7 -6l-16 -13
c-13 -11 -24 -19 -35 -26c-29 -19 -55 -29 -76 -29h-898c-81 -5 -197 -6 -348 -3c32 -133 92 -246 181 -338c163 -168 363 -254 601 -258zM1014 2105c65 -100 133 -175 202 -225c8 -6 -2 -11 -29 -16c-9 -2 -18 -4 -29 -5c-4 0 -8 0 -11 -1h-4l-2 -1h-14l-16 -1
c-15 -1 -27 -1 -37 -1c-30 1 -51 6 -64 15c-32 23 -64 56 -97 97c-33 -41 -65 -74 -97 -97c-13 -9 -34 -14 -64 -15c-11 0 -23 0 -37 1l-16 1h-15l-1 1h-4c-3 1 -7 1 -11 1c-11 1 -21 3 -30 5c-27 5 -36 10 -28 16c69 50 137 125 202 225c13 21 26 42 39 62
c7 11 28 17 62 17s55 -6 62 -17c13 -21 26 -42 39 -62z" />
    <glyph glyph-name="Edieresis" unicode="&#xcb;" horiz-adv-x="1925" 
d="M615 1482c-107 -18 -186 -60 -239 -125c-118 -145 -172 -318 -163 -519c15 6 29 9 40 9h586c393 32 552 152 477 359c-29 82 -87 148 -173 197c-71 41 -155 67 -253 80c-103 13 -195 13 -275 -1zM1018 85c227 -3 434 67 623 212l2 1l2 1l5 4c4 3 8 7 13 10
c13 9 26 17 37 24c35 20 56 25 63 14c8 -11 -3 -30 -32 -57c-10 -9 -21 -18 -34 -28c-5 -3 -9 -7 -14 -11l-5 -3l-3 -3c-141 -108 -271 -187 -388 -236c-281 -118 -550 -124 -805 -17c-107 45 -201 110 -280 197c-82 89 -138 190 -169 301c-62 225 -34 443 83 653
c113 201 278 347 495 437c111 46 226 70 344 73c126 3 241 -21 344 -70c93 -44 160 -102 201 -175c47 -83 50 -170 7 -260c-55 -115 -158 -217 -311 -305h480c15 0 11 -13 -12 -40c-7 -9 -16 -18 -26 -29l-10 -10l-3 -3c-1 -1 -2 -1 -2 -1l-7 -6l-7 -6l-16 -13
c-13 -11 -24 -19 -35 -26c-29 -19 -55 -29 -76 -29h-898c-81 -5 -197 -6 -348 -3c32 -133 92 -246 181 -338c163 -168 363 -254 601 -258zM646 2126l99 -98c8 -8 12 -18 12 -30c0 -11 -4 -21 -12 -30l-99 -98c-8 -9 -18 -13 -30 -13c-11 0 -21 4 -30 13l-98 98
c-9 9 -13 19 -13 30s4 21 13 30l98 98c9 9 19 13 30 13c12 0 22 -4 30 -13zM1180 2126l99 -98c8 -8 12 -18 12 -30c0 -11 -4 -21 -12 -30l-99 -98c-8 -9 -18 -13 -30 -13c-11 0 -21 4 -30 13l-98 98c-9 9 -13 19 -13 30s4 21 13 30l98 98c9 9 19 13 30 13c12 0 22 -4 30 -13
z" />
    <glyph glyph-name="Igrave" unicode="&#xcc;" horiz-adv-x="684" 
d="M403 1456c6 -48 7 -498 3 -1350c0 -29 -37 -63 -110 -104c-28 -15 -53 -27 -76 -34c-23 -8 -34 -9 -34 -2l-1 1316c-3 55 -18 97 -44 127c-25 30 -65 51 -119 62c-15 3 -12 18 11 43c7 9 16 18 27 28c4 3 8 6 11 9l4 3c1 1 1 2 2 2l6 5l7 6c6 5 11 10 16 13
c15 12 28 22 39 29c34 23 60 32 79 28c55 -12 96 -31 124 -58c31 -29 49 -70 55 -123zM351 1862c9 -7 -15 -10 -72 -11c-57 0 -115 17 -173 52s-161 126 -310 273c-8 9 27 14 104 17s121 -2 132 -14c130 -148 236 -254 319 -317z" />
    <glyph glyph-name="Iacute" unicode="&#xcd;" horiz-adv-x="684" 
d="M404 1456c6 -48 7 -498 3 -1350c0 -29 -37 -63 -110 -104c-28 -15 -53 -27 -76 -34c-23 -8 -34 -9 -34 -2l-1 1316c-3 55 -18 97 -44 127c-25 30 -65 51 -119 62c-15 3 -12 18 11 43c7 9 16 18 27 28c4 3 8 6 11 9l4 3c1 1 1 2 2 2l6 5l7 6c6 5 11 10 16 13
c15 12 28 22 39 29c34 23 60 32 79 28c55 -12 96 -31 124 -58c31 -29 49 -70 55 -123zM587 2177c-149 -147 -252 -238 -310 -273s-116 -52 -173 -52c-57 1 -81 4 -72 11c83 63 189 169 319 317c11 12 55 17 132 14s112 -8 104 -17z" />
    <glyph glyph-name="Icircumflex" unicode="&#xce;" horiz-adv-x="684" 
d="M404 1456c6 -48 7 -498 3 -1350c0 -29 -37 -63 -110 -104c-28 -15 -53 -27 -76 -34c-23 -8 -34 -9 -34 -2l-1 1316c-3 55 -18 97 -44 127c-25 30 -65 51 -119 62c-15 3 -12 18 11 43c7 9 16 18 27 28c4 3 8 6 11 9l4 3c1 1 1 2 2 2l6 5l7 6c6 5 11 10 16 13
c15 12 28 22 39 29c34 23 60 32 79 28c55 -12 96 -31 124 -58c31 -29 49 -70 55 -123zM374 2105c65 -100 133 -175 202 -225c7 -5 -2 -11 -29 -16c-9 -2 -19 -4 -30 -5c-3 0 -7 0 -11 -1h-3h-2l-14 -1l-17 -1c-14 -1 -26 -1 -36 -1c-30 1 -51 6 -64 15c-32 23 -64 56 -97 97
c-33 -41 -66 -74 -97 -97c-13 -9 -35 -14 -65 -15c-10 0 -22 0 -36 1l-17 1c-7 0 -11 0 -14 1h-2h-3c-3 1 -7 1 -11 1c-11 1 -21 3 -30 5c-27 5 -36 11 -29 16c69 50 137 125 202 225c14 21 27 42 40 62c7 11 27 17 62 17c34 0 54 -6 61 -17c13 -21 27 -42 40 -62z" />
    <glyph glyph-name="Idieresis" unicode="&#xcf;" horiz-adv-x="684" 
d="M404 1456c6 -48 7 -498 3 -1350c0 -29 -37 -63 -110 -104c-28 -15 -53 -27 -76 -34c-23 -8 -34 -9 -34 -2l-1 1316c-3 55 -18 97 -44 127c-25 30 -65 51 -119 62c-15 3 -12 18 11 43c7 9 16 18 27 28c4 3 8 6 11 9l4 3c1 1 1 2 2 2l6 5l7 6c6 5 11 10 16 13
c15 12 28 22 39 29c34 23 60 32 79 28c55 -12 96 -31 124 -58c31 -29 49 -70 55 -123zM20 2123l99 -98c8 -9 12 -19 12 -30c0 -12 -4 -22 -12 -30l-99 -99c-8 -8 -18 -12 -29 -12c-12 0 -22 4 -30 12l-99 99c-8 8 -12 18 -12 30c0 11 4 21 12 30l99 98c8 9 18 13 30 13
c11 0 21 -4 29 -13zM554 2123l99 -98c8 -9 12 -19 12 -30c0 -12 -4 -22 -12 -30l-99 -99c-8 -8 -18 -12 -29 -12c-12 0 -22 4 -30 12l-99 99c-8 8 -12 18 -12 30c0 11 4 21 12 30l99 98c8 9 18 13 30 13c11 0 21 -4 29 -13z" />
    <glyph glyph-name="Eth" unicode="&#xd0;" horiz-adv-x="1861" 
d="M1064 126c101 14 186 55 256 122c57 55 101 125 131 209c29 79 42 164 40 255c-3 177 -62 336 -176 475c-117 143 -262 228 -435 254c-95 14 -183 14 -262 -1c-100 -19 -176 -58 -227 -119c-115 -136 -171 -292 -168 -468c4 -177 63 -336 176 -475
c117 -143 262 -228 435 -254c71 -10 147 -9 230 2zM790 1857c-62 -47 -119 -88 -170 -124c34 -12 70 -23 108 -32c29 -7 67 -16 114 -25l58 -12l57 -12c92 -20 167 -42 224 -67h2l2 -1l3 -1c5 -2 11 -5 17 -8c19 -9 39 -19 60 -30c67 -36 127 -78 182 -127
c176 -155 264 -343 264 -565c-4 -215 -90 -411 -259 -588c-164 -173 -355 -275 -572 -307c-111 -16 -221 -8 -329 24c-105 31 -200 82 -283 152c-84 71 -149 156 -196 253c-48 103 -71 211 -69 325c3 169 60 329 170 481c105 145 239 256 401 333c-76 16 -140 34 -193 54
c-10 -5 -19 -10 -28 -14c-82 -37 -151 -55 -208 -54c-57 0 -79 4 -67 11c53 30 112 69 178 117c-55 35 -102 79 -141 130c-6 8 1 23 20 45c17 19 41 40 70 61c73 53 116 71 129 53c35 -47 80 -87 133 -122c21 17 42 35 63 53c15 13 64 18 149 15s122 -9 111 -18z" />
    <glyph glyph-name="Ntilde" unicode="&#xd1;" horiz-adv-x="2046" 
d="M966 168c98 21 185 49 260 84l-1 1c173 80 289 197 346 350c47 126 62 251 45 376c-19 137 -74 248 -166 335c-96 91 -225 137 -388 137c-162 0 -312 -90 -449 -270s-206 -386 -206 -619v-456c0 -29 -37 -63 -110 -104c-28 -15 -53 -27 -76 -34c-23 -8 -34 -9 -34 -2
l-1 1316c-3 55 -18 97 -44 127c-25 30 -65 51 -119 62c-15 3 -12 18 11 43c7 9 16 18 27 28c4 3 8 6 11 9l4 3c1 1 1 2 2 2l6 5l7 6c6 5 11 10 16 13c15 12 28 22 39 29c34 23 60 32 79 28c55 -12 96 -31 124 -58c31 -29 49 -70 55 -123c6 -48 9 -165 9 -350
c84 141 188 260 313 357c151 117 304 182 460 195c176 15 330 -40 462 -165c125 -119 191 -270 196 -455c5 -179 -47 -339 -154 -479c-75 -97 -162 -184 -263 -260h2c-63 -48 -131 -92 -204 -131h648c15 0 -3 -28 -56 -83c-52 -55 -100 -83 -145 -83h-900
c-75 0 -72 36 9 107c31 23 59 36 84 39l68 13c12 4 23 6 33 7zM903 2060c31 17 56 29 77 34c109 27 208 4 297 -71c11 -9 17 -25 18 -47c0 -8 0 -17 -1 -28l-1 -12c-1 -5 -1 -8 -1 -11c0 0 0 -1 -1 -4c0 -2 0 -5 -1 -8c-2 -8 -4 -15 -6 -22c-6 -20 -12 -27 -19 -21
c-30 25 -60 45 -90 58c-41 19 -82 25 -122 20c-32 -4 -63 -13 -93 -26c-9 -4 -22 -10 -39 -18l-20 -11l-22 -10c-55 -25 -108 -32 -160 -22c-51 9 -88 34 -110 73c-8 14 -12 32 -13 54c0 14 2 32 5 55c0 1 0 3 1 5s1 4 2 7c2 7 4 12 6 16c7 13 14 13 21 0
c14 -24 41 -41 80 -51c39 -11 78 -10 116 3c13 4 26 9 40 16l18 10z" />
    <glyph glyph-name="Ograve" unicode="&#xd2;" horiz-adv-x="1888" 
d="M1107 138c100 18 176 57 227 116c109 125 165 278 168 459c-3 173 -62 328 -176 465c-117 141 -263 224 -437 249c-95 14 -183 14 -263 -1c-100 -18 -176 -57 -228 -116c-115 -133 -171 -286 -168 -459s62 -328 176 -465c117 -141 263 -224 437 -249
c96 -14 184 -14 264 1zM266 1311c167 175 360 279 581 312c117 17 230 9 339 -24c105 -31 198 -83 281 -155s148 -158 195 -258c49 -103 74 -212 76 -329c-5 -219 -92 -418 -263 -597c-167 -175 -360 -279 -581 -312c-113 -17 -225 -9 -335 24c-106 32 -202 84 -287 155
c-85 73 -152 158 -199 257c-49 104 -72 214 -70 330c5 219 92 418 263 597zM1054 1863c9 -7 -15 -10 -72 -11c-57 0 -115 17 -173 52s-161 126 -310 273c-8 9 26 14 103 17s122 -2 133 -14c130 -148 236 -254 319 -317z" />
    <glyph glyph-name="Oacute" unicode="&#xd3;" horiz-adv-x="1888" 
d="M1107 138c100 18 176 57 227 116c109 125 165 278 168 459c-3 173 -62 328 -176 465c-117 141 -263 224 -437 249c-95 14 -183 14 -263 -1c-100 -18 -176 -57 -228 -116c-115 -133 -171 -286 -168 -459s62 -328 176 -465c117 -141 263 -224 437 -249
c96 -14 184 -14 264 1zM266 1311c167 175 360 279 581 312c117 17 230 9 339 -24c105 -31 198 -83 281 -155s148 -158 195 -258c49 -103 74 -212 76 -329c-5 -219 -92 -418 -263 -597c-167 -175 -360 -279 -581 -312c-113 -17 -225 -9 -335 24c-106 32 -202 84 -287 155
c-85 73 -152 158 -199 257c-49 104 -72 214 -70 330c5 219 92 418 263 597zM1241 2177c-149 -147 -252 -238 -310 -273s-116 -52 -173 -52c-57 1 -81 4 -72 11c83 63 189 169 319 317c11 12 55 17 132 14s112 -8 104 -17z" />
    <glyph glyph-name="Ocircumflex" unicode="&#xd4;" horiz-adv-x="1888" 
d="M1107 138c100 18 176 57 227 116c109 125 165 278 168 459c-3 173 -62 328 -176 465c-117 141 -263 224 -437 249c-95 14 -183 14 -263 -1c-100 -18 -176 -57 -228 -116c-115 -133 -171 -286 -168 -459s62 -328 176 -465c117 -141 263 -224 437 -249
c96 -14 184 -14 264 1zM266 1311c167 175 360 279 581 312c117 17 230 9 339 -24c105 -31 198 -83 281 -155s148 -158 195 -258c49 -103 74 -212 76 -329c-5 -219 -92 -418 -263 -597c-167 -175 -360 -279 -581 -312c-113 -17 -225 -9 -335 24c-106 32 -202 84 -287 155
c-85 73 -152 158 -199 257c-49 104 -72 214 -70 330c5 219 92 418 263 597zM972 2103c65 -101 133 -176 202 -226c8 -5 -2 -11 -29 -16c-9 -1 -19 -3 -30 -4c-3 -1 -7 -1 -10 -1l-4 -1h-2l-14 -1l-17 -1c-14 -1 -26 -1 -36 0c-30 1 -51 6 -64 15c-32 23 -64 55 -97 97
c-33 -42 -65 -74 -97 -97c-13 -9 -35 -14 -65 -15c-10 -1 -22 -1 -36 0l-17 1c-6 1 -11 1 -14 1h-2l-3 1c-3 0 -7 0 -11 1c-11 1 -21 3 -30 4c-27 5 -36 11 -28 16c69 50 136 125 202 226c13 21 26 41 39 62c7 11 28 17 62 17s54 -6 61 -17c13 -21 27 -42 40 -62z" />
    <glyph glyph-name="Otilde" unicode="&#xd5;" horiz-adv-x="1888" 
d="M1107 138c100 18 176 57 227 116c109 125 165 278 168 459c-3 173 -62 328 -176 465c-117 141 -263 224 -437 249c-95 14 -183 14 -263 -1c-100 -18 -176 -57 -228 -116c-115 -133 -171 -286 -168 -459s62 -328 176 -465c117 -141 263 -224 437 -249
c96 -14 184 -14 264 1zM266 1311c167 175 360 279 581 312c117 17 230 9 339 -24c105 -31 198 -83 281 -155s148 -158 195 -258c49 -103 74 -212 76 -329c-5 -219 -92 -418 -263 -597c-167 -175 -360 -279 -581 -312c-113 -17 -225 -9 -335 24c-106 32 -202 84 -287 155
c-85 73 -152 158 -199 257c-49 104 -72 214 -70 330c5 219 92 418 263 597zM828 2054c31 18 56 30 77 35c109 27 207 4 296 -71c11 -9 18 -25 19 -48c0 -7 0 -16 -1 -27l-1 -12c-1 -5 -1 -9 -1 -11c0 -1 0 -2 -1 -4c0 -3 0 -5 -1 -8c-2 -8 -4 -15 -6 -22
c-6 -20 -12 -27 -19 -22c-31 26 -61 45 -90 58c-41 19 -82 26 -122 21c-32 -4 -63 -13 -93 -26c-9 -4 -22 -10 -39 -19l-21 -10l-21 -10c-55 -25 -108 -32 -160 -23c-51 10 -88 35 -110 74c-9 14 -13 32 -13 54c0 14 2 32 5 54c0 1 0 3 1 5c1 3 1 5 2 8c2 7 4 12 6 16
c7 13 14 13 21 0c14 -25 41 -42 80 -52s78 -9 116 3c13 4 26 10 40 17l18 10z" />
    <glyph glyph-name="Odieresis" unicode="&#xd6;" horiz-adv-x="1888" 
d="M1107 138c100 18 176 57 227 116c109 125 165 278 168 459c-3 173 -62 328 -176 465c-117 141 -263 224 -437 249c-95 14 -183 14 -263 -1c-100 -18 -176 -57 -228 -116c-115 -133 -171 -286 -168 -459s62 -328 176 -465c117 -141 263 -224 437 -249
c96 -14 184 -14 264 1zM266 1311c167 175 360 279 581 312c117 17 230 9 339 -24c105 -31 198 -83 281 -155s148 -158 195 -258c49 -103 74 -212 76 -329c-5 -219 -92 -418 -263 -597c-167 -175 -360 -279 -581 -312c-113 -17 -225 -9 -335 24c-106 32 -202 84 -287 155
c-85 73 -152 158 -199 257c-49 104 -72 214 -70 330c5 219 92 418 263 597zM633 2122l99 -99c8 -8 12 -18 12 -29c0 -12 -4 -22 -12 -30l-99 -99c-8 -8 -18 -12 -30 -12c-11 0 -21 4 -30 12l-98 99c-9 8 -13 18 -13 30c0 11 4 21 13 29l98 99c9 8 19 12 30 12
c12 0 22 -4 30 -12zM1167 2122l99 -99c8 -8 12 -18 12 -29c0 -12 -4 -22 -12 -30l-99 -99c-8 -8 -18 -12 -30 -12c-11 0 -21 4 -30 12l-98 99c-9 8 -13 18 -13 30c0 11 4 21 13 29l98 99c9 8 19 12 30 12c12 0 22 -4 30 -12z" />
    <glyph glyph-name="multiply" unicode="&#xd7;" horiz-adv-x="778" 
d="M513 636l-200 200l-200 -200c-11 -11 -46 32 -107 131l190 186l-196 202l113 116l200 -201l200 201c11 11 49 -35 115 -138l-198 -180l195 -201c-64 -89 -101 -127 -112 -116z" />
    <glyph glyph-name="Oslash" unicode="&#xd8;" horiz-adv-x="1888" 
d="M1170 1321l-557 -1109c70 -38 147 -63 230 -75c96 -14 184 -14 264 1c100 18 176 57 227 116c109 125 165 278 168 459c-3 173 -62 328 -176 465c-47 57 -99 105 -156 143zM576 234l558 1109c-74 43 -156 71 -245 84c-95 14 -183 14 -263 -1c-100 -18 -176 -57 -228 -116
c-115 -133 -171 -286 -168 -459s62 -328 176 -465c51 -62 108 -113 170 -152zM1344 1668l-54 -108c63 -30 122 -69 177 -116c83 -72 148 -158 195 -258c49 -103 74 -212 76 -329c-5 -219 -92 -418 -263 -597c-167 -175 -360 -279 -581 -312c-113 -17 -225 -9 -335 24
c-19 6 -38 13 -57 20l-87 -173l-38 19l85 170c-68 31 -131 70 -190 119c-85 73 -152 158 -199 257c-49 104 -72 214 -70 330c5 219 92 418 263 597c167 175 360 279 581 312c117 17 230 9 339 -24c22 -7 44 -14 65 -23l56 111z" />
    <glyph glyph-name="Ugrave" unicode="&#xd9;" horiz-adv-x="2046" 
d="M930 1454c-98 -21 -185 -50 -261 -85h2c-173 -80 -289 -197 -346 -350c-47 -126 -62 -251 -45 -376c19 -137 74 -248 166 -335c96 -91 225 -137 387 -137c163 0 313 90 450 270s206 386 206 619v456c0 29 37 63 110 104c28 15 53 27 76 34c23 8 34 9 34 2l1 -1316
c3 -55 18 -97 44 -127c25 -30 65 -51 119 -62c15 -3 12 -18 -11 -43c-7 -9 -16 -18 -27 -28c-4 -3 -8 -6 -11 -9l-4 -3c-1 -1 -1 -2 -2 -2l-6 -5l-7 -6c-6 -5 -11 -10 -16 -13c-15 -12 -28 -22 -39 -29c-34 -23 -60 -32 -79 -28c-55 12 -96 31 -124 58
c-31 29 -49 70 -55 123c-6 48 -9 165 -9 350c-84 -141 -188 -260 -313 -357c-151 -117 -304 -182 -460 -195c-176 -15 -330 40 -462 165c-125 119 -191 270 -196 455c-5 179 47 339 154 479c75 97 162 184 263 260h-2c63 48 131 92 204 131h-648c-15 0 3 28 55 83
c53 55 101 83 146 83h900c75 0 72 -36 -9 -107c-31 -23 -59 -36 -84 -39l-68 -13c-12 -4 -23 -6 -33 -7zM1284 1863c9 -7 -15 -10 -72 -11c-57 0 -115 17 -173 52s-161 126 -310 273c-8 9 26 14 103 17s122 -2 133 -14c130 -148 236 -254 319 -317z" />
    <glyph glyph-name="Uacute" unicode="&#xda;" horiz-adv-x="2046" 
d="M930 1454c-98 -21 -185 -50 -261 -85h2c-173 -80 -289 -197 -346 -350c-47 -126 -62 -251 -45 -376c19 -137 74 -248 166 -335c96 -91 225 -137 387 -137c163 0 313 90 450 270s206 386 206 619v456c0 29 37 63 110 104c28 15 53 27 76 34c23 8 34 9 34 2l1 -1316
c3 -55 18 -97 44 -127c25 -30 65 -51 119 -62c15 -3 12 -18 -11 -43c-7 -9 -16 -18 -27 -28c-4 -3 -8 -6 -11 -9l-4 -3c-1 -1 -1 -2 -2 -2l-6 -5l-7 -6c-6 -5 -11 -10 -16 -13c-15 -12 -28 -22 -39 -29c-34 -23 -60 -32 -79 -28c-55 12 -96 31 -124 58
c-31 29 -49 70 -55 123c-6 48 -9 165 -9 350c-84 -141 -188 -260 -313 -357c-151 -117 -304 -182 -460 -195c-176 -15 -330 40 -462 165c-125 119 -191 270 -196 455c-5 179 47 339 154 479c75 97 162 184 263 260h-2c63 48 131 92 204 131h-648c-15 0 3 28 55 83
c53 55 101 83 146 83h900c75 0 72 -36 -9 -107c-31 -23 -59 -36 -84 -39l-68 -13c-12 -4 -23 -6 -33 -7zM1580 2177c-149 -147 -252 -238 -310 -273s-116 -52 -173 -52c-57 1 -81 4 -72 11c83 63 189 169 319 317c11 12 55 17 132 14s112 -8 104 -17z" />
    <glyph glyph-name="Ucircumflex" unicode="&#xdb;" horiz-adv-x="2046" 
d="M930 1454c-98 -21 -185 -50 -261 -85h2c-173 -80 -289 -197 -346 -350c-47 -126 -62 -251 -45 -376c19 -137 74 -248 166 -335c96 -91 225 -137 387 -137c163 0 313 90 450 270s206 386 206 619v456c0 29 37 63 110 104c28 15 53 27 76 34c23 8 34 9 34 2l1 -1316
c3 -55 18 -97 44 -127c25 -30 65 -51 119 -62c15 -3 12 -18 -11 -43c-7 -9 -16 -18 -27 -28c-4 -3 -8 -6 -11 -9l-4 -3c-1 -1 -1 -2 -2 -2l-6 -5l-7 -6c-6 -5 -11 -10 -16 -13c-15 -12 -28 -22 -39 -29c-34 -23 -60 -32 -79 -28c-55 12 -96 31 -124 58
c-31 29 -49 70 -55 123c-6 48 -9 165 -9 350c-84 -141 -188 -260 -313 -357c-151 -117 -304 -182 -460 -195c-176 -15 -330 40 -462 165c-125 119 -191 270 -196 455c-5 179 47 339 154 479c75 97 162 184 263 260h-2c63 48 131 92 204 131h-648c-15 0 3 28 55 83
c53 55 101 83 146 83h900c75 0 72 -36 -9 -107c-31 -23 -59 -36 -84 -39l-68 -13c-12 -4 -23 -6 -33 -7zM1151 2103c65 -101 133 -176 202 -225c8 -6 -2 -12 -29 -17c-9 -1 -18 -3 -29 -4c-4 -1 -8 -1 -11 -1l-4 -1h-2l-14 -1l-16 -1c-15 -1 -27 -1 -37 0
c-30 1 -51 6 -64 15c-32 23 -64 55 -97 97c-33 -42 -65 -74 -97 -97c-13 -9 -35 -14 -64 -15c-11 -1 -23 -1 -37 0l-16 1c-7 1 -12 1 -15 1h-1l-4 1c-3 0 -7 0 -11 1c-11 1 -21 3 -30 4c-27 5 -36 11 -28 17c69 49 136 124 202 225c13 21 26 41 39 62c7 11 28 17 62 17
s55 -6 62 -17c13 -21 26 -42 39 -62z" />
    <glyph glyph-name="Udieresis" unicode="&#xdc;" horiz-adv-x="2046" 
d="M930 1454c-98 -21 -185 -50 -261 -85h2c-173 -80 -289 -197 -346 -350c-47 -126 -62 -251 -45 -376c19 -137 74 -248 166 -335c96 -91 225 -137 387 -137c163 0 313 90 450 270s206 386 206 619v456c0 29 37 63 110 104c28 15 53 27 76 34c23 8 34 9 34 2l1 -1316
c3 -55 18 -97 44 -127c25 -30 65 -51 119 -62c15 -3 12 -18 -11 -43c-7 -9 -16 -18 -27 -28c-4 -3 -8 -6 -11 -9l-4 -3c-1 -1 -1 -2 -2 -2l-6 -5l-7 -6c-6 -5 -11 -10 -16 -13c-15 -12 -28 -22 -39 -29c-34 -23 -60 -32 -79 -28c-55 12 -96 31 -124 58
c-31 29 -49 70 -55 123c-6 48 -9 165 -9 350c-84 -141 -188 -260 -313 -357c-151 -117 -304 -182 -460 -195c-176 -15 -330 40 -462 165c-125 119 -191 270 -196 455c-5 179 47 339 154 479c75 97 162 184 263 260h-2c63 48 131 92 204 131h-648c-15 0 3 28 55 83
c53 55 101 83 146 83h900c75 0 72 -36 -9 -107c-31 -23 -59 -36 -84 -39l-68 -13c-12 -4 -23 -6 -33 -7zM793 2122l98 -99c9 -8 13 -18 13 -29c0 -12 -4 -22 -13 -30l-98 -99c-9 -8 -19 -12 -30 -12c-12 0 -22 4 -30 12l-99 99c-8 8 -12 18 -12 30c0 11 4 21 12 29l99 99
c8 8 18 12 30 12c11 0 21 -4 30 -12zM1327 2122l98 -99c9 -8 13 -18 13 -29c0 -12 -4 -22 -13 -30l-98 -99c-9 -8 -19 -12 -30 -12c-12 0 -22 4 -30 12l-99 99c-8 8 -12 18 -12 30c0 11 4 21 12 29l99 99c8 8 18 12 30 12c11 0 21 -4 30 -12z" />
    <glyph glyph-name="Yacute" unicode="&#xdd;" horiz-adv-x="2120" 
d="M1223 1641c28 17 54 27 79 30c122 16 228 14 317 -5c118 -25 204 -81 258 -168c62 -99 92 -216 90 -351c-1 -125 -28 -243 -80 -356c-189 -417 -604 -874 -1247 -1371c-26 -24 -50 -44 -73 -59c-29 -20 -57 -34 -83 -41c-24 -6 -30 1 -17 21c4 7 10 16 17 25
c3 3 6 7 9 10l6 6l133 123l132 123c107 99 195 182 264 248l-1019 1610c-6 9 1 25 20 47c17 19 41 39 72 60c29 21 56 36 80 47c27 11 42 13 47 5l998 -1578c243 239 398 454 465 644c41 115 60 229 55 342c-5 134 -43 241 -114 321c-107 120 -285 164 -532 131
c-15 -2 -10 11 13 40c8 9 17 19 27 30c3 4 7 8 10 11c3 2 4 3 5 4c27 23 50 40 68 51zM1580 2179c-149 -147 -252 -238 -310 -273s-116 -52 -173 -52c-57 1 -81 4 -72 11c83 63 189 169 319 317c11 12 55 17 132 14s112 -8 104 -17z" />
    <glyph glyph-name="Thorn" unicode="&#xde;" horiz-adv-x="1878" 
d="M404 2104c4 -33 6 -250 5 -651c254 200 499 255 734 166c166 -63 302 -162 409 -299c117 -149 168 -308 152 -475c-15 -151 -79 -294 -192 -428c-98 -117 -222 -217 -373 -298c-78 -42 -149 -74 -213 -96c-84 -29 -160 -43 -229 -41c-97 3 -194 22 -290 58v-810
c0 -29 -37 -63 -110 -104c-28 -16 -53 -28 -76 -35c-23 -8 -34 -9 -34 -2v1525l-1 1316c-3 55 -18 97 -44 127c-25 30 -65 51 -119 62c-15 3 -12 18 11 43c7 9 16 18 27 28c4 3 8 6 11 9l4 3c1 1 1 2 2 2l6 5l7 6c6 5 11 10 16 13c15 12 28 22 39 29c34 23 60 32 79 28
c55 -12 96 -31 124 -58c31 -29 49 -70 55 -123zM409 311c270 -171 521 -204 752 -98c101 47 182 123 243 228c59 103 86 212 81 325c-7 125 -48 245 -123 358c-73 109 -165 196 -277 261c-118 69 -234 105 -348 108c-133 5 -242 -37 -328 -126v-1056z" />
    <glyph glyph-name="germandbls" unicode="&#xdf;" horiz-adv-x="1767" 
d="M1251 846c29 -3 49 -5 61 -6c203 -29 305 -134 305 -316c-20 -109 -76 -211 -167 -306c-76 -79 -172 -148 -287 -207c-113 -57 -226 -80 -339 -68c-117 13 -221 62 -312 147c-5 5 1 18 19 39c17 20 39 41 66 62c29 24 56 41 79 52c27 13 45 15 54 6
c84 -78 186 -126 305 -145c138 -22 237 15 297 110c52 84 73 168 64 253c-10 97 -62 158 -157 183c-32 9 -70 16 -115 21l-58 6l-59 5c-97 9 -173 26 -226 51c-74 33 -107 83 -99 149c3 26 12 56 28 91c10 21 27 52 50 93c25 43 44 81 59 114c20 47 34 89 41 127
c17 99 -10 175 -82 228c-56 41 -126 68 -210 82c-89 15 -163 8 -224 -19c-31 -13 -56 -56 -75 -129c-7 -26 -13 -55 -18 -87c-2 -13 -4 -26 -5 -39c-1 -9 -2 -19 -3 -30c-5 -45 -9 -444 -14 -1197c-1 -15 -12 -33 -35 -53c-20 -17 -45 -34 -76 -51c-28 -15 -53 -27 -76 -34
c-23 -8 -34 -9 -34 -3c-5 643 -7 992 -5 1045c6 163 34 292 84 388c48 92 119 173 213 242c97 71 195 114 295 127c92 12 179 8 261 -13c105 -26 173 -75 205 -146c38 -83 33 -177 -16 -282c-9 -19 -20 -41 -33 -66l-37 -65c-30 -54 -51 -98 -63 -131
c-34 -94 5 -159 118 -194c38 -11 88 -20 150 -27l37 -4z" />
    <glyph glyph-name="agrave" unicode="&#xe0;" horiz-adv-x="1835" 
d="M1058 112c122 13 213 58 274 134c29 35 54 74 75 115c-22 225 -27 465 -14 718c-99 182 -239 297 -418 345c-111 29 -214 39 -311 28c-123 -13 -214 -57 -275 -134c-114 -143 -168 -298 -162 -465c6 -162 55 -309 146 -441c97 -140 222 -230 374 -271
c110 -29 214 -39 311 -29zM1632 1528c-48 -502 -33 -958 44 -1368c6 -30 -28 -67 -102 -112c-25 -15 -51 -29 -77 -40c-24 -11 -36 -15 -36 -13c-13 66 -26 143 -38 232c-144 -143 -306 -231 -485 -265c-115 -21 -229 -18 -343 9c-113 27 -214 74 -303 143
c-92 70 -163 155 -213 254c-53 106 -77 221 -72 344c7 206 87 396 240 571c152 174 331 280 536 319c126 24 248 20 365 -11c113 -30 213 -83 300 -159c28 26 67 51 116 74c47 23 69 30 68 22zM975 1863c9 -7 -15 -10 -72 -11c-57 0 -115 17 -173 52s-161 126 -310 273
c-8 9 26 14 103 17s122 -2 133 -14c130 -148 236 -254 319 -317z" />
    <glyph glyph-name="aacute" unicode="&#xe1;" horiz-adv-x="1835" 
d="M1058 112c122 13 213 58 274 134c29 35 54 74 75 115c-22 225 -27 465 -14 718c-99 182 -239 297 -418 345c-111 29 -214 39 -311 28c-123 -13 -214 -57 -275 -134c-114 -143 -168 -298 -162 -465c6 -162 55 -309 146 -441c97 -140 222 -230 374 -271
c110 -29 214 -39 311 -29zM1632 1528c-48 -502 -33 -958 44 -1368c6 -30 -28 -67 -102 -112c-25 -15 -51 -29 -77 -40c-24 -11 -36 -15 -36 -13c-13 66 -26 143 -38 232c-144 -143 -306 -231 -485 -265c-115 -21 -229 -18 -343 9c-113 27 -214 74 -303 143
c-92 70 -163 155 -213 254c-53 106 -77 221 -72 344c7 206 87 396 240 571c152 174 331 280 536 319c126 24 248 20 365 -11c113 -30 213 -83 300 -159c28 26 67 51 116 74c47 23 69 30 68 22zM1322 2177c-149 -147 -252 -238 -310 -273s-116 -52 -173 -52
c-57 1 -81 4 -72 11c83 63 189 169 319 317c11 12 55 17 132 14s112 -8 104 -17z" />
    <glyph glyph-name="acircumflex" unicode="&#xe2;" horiz-adv-x="1835" 
d="M1058 112c122 13 213 58 274 134c29 35 54 74 75 115c-22 225 -27 465 -14 718c-99 182 -239 297 -418 345c-111 29 -214 39 -311 28c-123 -13 -214 -57 -275 -134c-114 -143 -168 -298 -162 -465c6 -162 55 -309 146 -441c97 -140 222 -230 374 -271
c110 -29 214 -39 311 -29zM1632 1528c-48 -502 -33 -958 44 -1368c6 -30 -28 -67 -102 -112c-25 -15 -51 -29 -77 -40c-24 -11 -36 -15 -36 -13c-13 66 -26 143 -38 232c-144 -143 -306 -231 -485 -265c-115 -21 -229 -18 -343 9c-113 27 -214 74 -303 143
c-92 70 -163 155 -213 254c-53 106 -77 221 -72 344c7 206 87 396 240 571c152 174 331 280 536 319c126 24 248 20 365 -11c113 -30 213 -83 300 -159c28 26 67 51 116 74c47 23 69 30 68 22zM978 2104c66 -100 134 -175 203 -225c7 -5 -2 -11 -29 -16c-9 -2 -19 -4 -30 -5
c-4 0 -8 0 -11 -1h-3h-2l-14 -1l-17 -1c-14 -1 -26 -1 -36 -1c-30 1 -52 6 -65 15c-31 23 -64 56 -97 97c-33 -41 -65 -74 -97 -97c-13 -9 -34 -14 -64 -15c-10 0 -22 0 -36 1l-17 1c-7 0 -11 0 -14 1h-2h-3c-4 1 -8 1 -11 1c-11 1 -21 3 -30 5c-27 5 -36 11 -29 16
c69 50 137 125 202 225c14 21 27 42 40 62c7 11 27 17 61 17c35 0 55 -6 62 -17c13 -21 26 -42 39 -62z" />
    <glyph glyph-name="atilde" unicode="&#xe3;" horiz-adv-x="1835" 
d="M1058 112c122 13 213 58 274 134c29 35 54 74 75 115c-22 225 -27 465 -14 718c-99 182 -239 297 -418 345c-111 29 -214 39 -311 28c-123 -13 -214 -57 -275 -134c-114 -143 -168 -298 -162 -465c6 -162 55 -309 146 -441c97 -140 222 -230 374 -271
c110 -29 214 -39 311 -29zM1632 1528c-48 -502 -33 -958 44 -1368c6 -30 -28 -67 -102 -112c-25 -15 -51 -29 -77 -40c-24 -11 -36 -15 -36 -13c-13 66 -26 143 -38 232c-144 -143 -306 -231 -485 -265c-115 -21 -229 -18 -343 9c-113 27 -214 74 -303 143
c-92 70 -163 155 -213 254c-53 106 -77 221 -72 344c7 206 87 396 240 571c152 174 331 280 536 319c126 24 248 20 365 -11c113 -30 213 -83 300 -159c28 26 67 51 116 74c47 23 69 30 68 22zM847 2057c31 18 56 30 77 35c109 27 207 3 296 -71c11 -9 18 -25 19 -48
c0 -7 0 -16 -1 -27l-1 -13c-1 -5 -1 -8 -1 -10c0 -1 0 -2 -1 -4c0 -3 0 -5 -1 -8c-2 -9 -4 -16 -6 -22c-6 -20 -12 -27 -19 -22c-31 25 -61 45 -90 58c-41 19 -82 26 -122 21c-32 -4 -63 -13 -93 -26c-9 -4 -22 -10 -39 -19l-21 -10l-21 -10c-55 -25 -108 -33 -160 -23
c-51 10 -88 34 -110 73c-9 15 -13 33 -13 54c0 15 2 33 5 55c0 1 0 3 1 5c1 3 1 5 2 7c2 7 4 12 6 17c7 13 14 13 21 0c14 -25 41 -42 80 -52s78 -9 116 3c13 4 26 10 40 17l18 10z" />
    <glyph glyph-name="adieresis" unicode="&#xe4;" horiz-adv-x="1835" 
d="M1058 112c122 13 213 58 274 134c29 35 54 74 75 115c-22 225 -27 465 -14 718c-99 182 -239 297 -418 345c-111 29 -214 39 -311 28c-123 -13 -214 -57 -275 -134c-114 -143 -168 -298 -162 -465c6 -162 55 -309 146 -441c97 -140 222 -230 374 -271
c110 -29 214 -39 311 -29zM1632 1528c-48 -502 -33 -958 44 -1368c6 -30 -28 -67 -102 -112c-25 -15 -51 -29 -77 -40c-24 -11 -36 -15 -36 -13c-13 66 -26 143 -38 232c-144 -143 -306 -231 -485 -265c-115 -21 -229 -18 -343 9c-113 27 -214 74 -303 143
c-92 70 -163 155 -213 254c-53 106 -77 221 -72 344c7 206 87 396 240 571c152 174 331 280 536 319c126 24 248 20 365 -11c113 -30 213 -83 300 -159c28 26 67 51 116 74c47 23 69 30 68 22zM634 2123l99 -98c8 -9 12 -19 12 -30c0 -12 -4 -22 -12 -30l-99 -99
c-8 -8 -18 -12 -30 -12c-11 0 -21 4 -29 12l-99 99c-8 8 -12 18 -12 30c0 11 4 21 12 30l99 98c8 9 18 13 29 13c12 0 22 -4 30 -13zM1168 2123l99 -98c8 -9 12 -19 12 -30c0 -12 -4 -22 -12 -30l-99 -99c-8 -8 -18 -12 -30 -12c-11 0 -21 4 -29 12l-99 99
c-8 8 -12 18 -12 30c0 11 4 21 12 30l99 98c8 9 18 13 29 13c12 0 22 -4 30 -13z" />
    <glyph glyph-name="aring" unicode="&#xe5;" horiz-adv-x="1835" 
d="M1058 112c122 13 213 58 274 134c29 35 54 74 75 115c-22 225 -27 465 -14 718c-99 182 -239 297 -418 345c-111 29 -214 39 -311 28c-123 -13 -214 -57 -275 -134c-114 -143 -168 -298 -162 -465c6 -162 55 -309 146 -441c97 -140 222 -230 374 -271
c110 -29 214 -39 311 -29zM1632 1528c-48 -502 -33 -958 44 -1368c6 -30 -28 -67 -102 -112c-25 -15 -51 -29 -77 -40c-24 -11 -36 -15 -36 -13c-13 66 -26 143 -38 232c-144 -143 -306 -231 -485 -265c-115 -21 -229 -18 -343 9c-113 27 -214 74 -303 143
c-92 70 -163 155 -213 254c-53 106 -77 221 -72 344c7 206 87 396 240 571c152 174 331 280 536 319c126 24 248 20 365 -11c113 -30 213 -83 300 -159c28 26 67 51 116 74c47 23 69 30 68 22zM970 2019l-48 49c-4 4 -9 6 -15 6c-5 0 -10 -2 -14 -6l-48 -49
c-5 -4 -7 -9 -7 -14c0 -6 2 -11 7 -15l48 -48c4 -4 9 -6 14 -6c6 0 11 2 15 6l48 48c4 4 6 9 6 15c0 5 -2 10 -6 14zM950 2188l140 -141c12 -11 18 -25 18 -42s-6 -31 -18 -43l-140 -140c-12 -12 -26 -18 -43 -18s-31 6 -42 18l-141 140c-11 12 -17 26 -17 43s6 31 17 42
l141 141c11 11 25 17 42 17s31 -6 43 -17z" />
    <glyph glyph-name="ae" unicode="&#xe6;" horiz-adv-x="3189" 
d="M293 204c11 -72 55 -131 130 -178c137 -85 296 -76 476 28c68 39 139 93 214 160c53 47 111 105 174 174c-29 49 -104 195 -223 439l-40 85c-25 -15 -149 -87 -370 -216c-138 -90 -239 -184 -304 -281c-48 -73 -67 -143 -57 -211zM1738 1465c-99 -43 -170 -105 -214 -187
c-72 -134 -105 -274 -100 -421h508c231 11 403 41 514 91c149 67 187 167 114 302c-44 82 -115 147 -213 195c-91 45 -193 70 -304 74c-112 4 -214 -14 -305 -54zM2261 84c233 -4 450 67 649 214c63 46 100 61 112 45c11 -16 -14 -47 -77 -93c-301 -221 -569 -333 -806 -336
c-153 -2 -296 24 -431 77c-108 26 -206 91 -295 196l-8 8l-7 9c-103 -95 -219 -170 -347 -225c-142 -61 -277 -94 -406 -98c-63 -2 -122 -1 -175 3c-71 5 -134 16 -189 31c-143 41 -233 116 -268 225c-53 165 51 341 312 528s475 304 641 352c-97 194 -162 317 -196 370
c-103 160 -198 231 -284 213c-26 -5 -77 -4 -152 4c-32 4 -53 8 -62 13c-11 5 -3 10 23 16c114 23 220 30 317 19c121 -13 217 -53 288 -119c69 -63 171 -215 307 -454l35 -70l9 -17c79 225 232 407 461 546c117 71 245 116 384 133c146 19 280 5 403 -44
c109 -43 190 -99 243 -168c63 -83 75 -176 37 -278c-45 -119 -156 -228 -335 -327h502c1 0 -1 -2 -5 -7c-3 -5 -8 -12 -14 -19c-17 -19 -34 -38 -53 -57c-55 -55 -99 -83 -130 -83l-1298 -2c32 -137 95 -251 189 -344c173 -170 382 -257 626 -261z" />
    <glyph glyph-name="ccedilla" unicode="&#xe7;" horiz-adv-x="1928" 
d="M775 -173l56 113c-72 2 -142 15 -211 38c-175 60 -319 157 -432 292c-125 149 -179 312 -162 487c19 182 105 353 258 513c141 147 304 252 489 314c202 67 379 56 530 -33c121 -71 254 -211 400 -420c6 -9 -1 -24 -20 -46c-17 -19 -41 -40 -70 -62
c-30 -21 -57 -37 -81 -48c-26 -11 -42 -13 -48 -4c-111 159 -208 273 -292 343c-129 107 -266 155 -411 144c-165 -13 -300 -86 -407 -220c-108 -135 -150 -286 -125 -452c17 -73 38 -141 63 -206c89 -187 233 -322 431 -405c154 -65 306 -78 456 -41
c133 33 269 107 409 222l7 5l7 6l17 14c13 11 26 20 37 27c31 21 58 30 79 29c15 -1 11 -15 -12 -42c-8 -9 -17 -18 -28 -29l-10 -10l-4 -3c-1 -1 -1 -1 -1 -2c-193 -158 -360 -268 -501 -330c-57 -25 -112 -44 -167 -57c-3 -7 -6 -13 -9 -20c-43 -93 -61 -145 -54 -157
c3 -4 6 -9 11 -16l7 -8l7 -9c16 -21 23 -41 22 -61c-1 -22 -12 -41 -33 -57c-41 -32 -96 -52 -165 -59c-54 -5 -113 -3 -178 6c-17 3 -25 6 -24 11c0 5 8 8 24 11l128 16l9 5l10 6c7 4 12 8 17 13c16 15 25 31 28 48c3 19 -2 37 -17 53l-7 8l-8 9c-7 7 -12 14 -16 19
c-11 17 -14 32 -9 45z" />
    <glyph glyph-name="egrave" unicode="&#xe8;" horiz-adv-x="1904" 
d="M1652 408c31 21 58 30 79 29c15 -1 11 -15 -12 -42c-8 -9 -17 -18 -28 -29l-10 -10l-4 -3c-1 -1 -1 -1 -1 -2c-193 -158 -360 -268 -501 -330c-207 -91 -400 -105 -579 -43c-175 60 -319 157 -432 292c-125 149 -179 312 -162 487c19 182 105 353 258 513
c141 147 304 252 489 314c202 67 379 56 530 -33c121 -71 254 -211 400 -420c6 -9 -1 -24 -20 -46c-17 -19 -41 -40 -70 -62c-30 -21 -57 -37 -81 -48c-26 -11 -42 -13 -48 -4c-111 159 -208 273 -292 343c-129 107 -266 155 -411 144c-165 -13 -300 -86 -407 -220
c-108 -135 -150 -286 -125 -452c1 -11 4 -24 7 -40c7 1 13 2 18 2h1364c15 0 11 -14 -12 -42c-8 -9 -17 -18 -27 -29c-4 -4 -8 -7 -11 -10c-1 -1 -2 -3 -3 -4s-1 -1 -2 -1l-7 -6l-8 -6l-16 -14c-13 -10 -26 -19 -37 -26c-30 -20 -56 -30 -79 -30h-1124
c89 -187 233 -322 431 -405c154 -65 306 -78 456 -41c133 33 269 107 409 222l7 5l7 6l17 14c13 11 26 20 37 27zM1054 1863c9 -7 -15 -10 -72 -11c-57 0 -115 17 -173 52s-161 126 -310 273c-8 9 26 14 103 17s122 -2 133 -14c130 -148 236 -254 319 -317z" />
    <glyph glyph-name="eacute" unicode="&#xe9;" horiz-adv-x="1904" 
d="M1652 408c31 21 58 30 79 29c15 -1 11 -15 -12 -42c-8 -9 -17 -18 -28 -29l-10 -10l-4 -3c-1 -1 -1 -1 -1 -2c-193 -158 -360 -268 -501 -330c-207 -91 -400 -105 -579 -43c-175 60 -319 157 -432 292c-125 149 -179 312 -162 487c19 182 105 353 258 513
c141 147 304 252 489 314c202 67 379 56 530 -33c121 -71 254 -211 400 -420c6 -9 -1 -24 -20 -46c-17 -19 -41 -40 -70 -62c-30 -21 -57 -37 -81 -48c-26 -11 -42 -13 -48 -4c-111 159 -208 273 -292 343c-129 107 -266 155 -411 144c-165 -13 -300 -86 -407 -220
c-108 -135 -150 -286 -125 -452c1 -11 4 -24 7 -40c7 1 13 2 18 2h1364c15 0 11 -14 -12 -42c-8 -9 -17 -18 -27 -29c-4 -4 -8 -7 -11 -10c-1 -1 -2 -3 -3 -4s-1 -1 -2 -1l-7 -6l-8 -6l-16 -14c-13 -10 -26 -19 -37 -26c-30 -20 -56 -30 -79 -30h-1124
c89 -187 233 -322 431 -405c154 -65 306 -78 456 -41c133 33 269 107 409 222l7 5l7 6l17 14c13 11 26 20 37 27zM1240 2177c-149 -147 -252 -238 -310 -273s-116 -52 -173 -52c-57 1 -81 4 -72 11c83 63 189 169 319 317c11 12 55 17 132 14s112 -8 104 -17z" />
    <glyph glyph-name="ecircumflex" unicode="&#xea;" horiz-adv-x="1904" 
d="M1652 408c31 21 58 30 79 29c15 -1 11 -15 -12 -42c-8 -9 -17 -18 -28 -29l-10 -10l-4 -3c-1 -1 -1 -1 -1 -2c-193 -158 -360 -268 -501 -330c-207 -91 -400 -105 -579 -43c-175 60 -319 157 -432 292c-125 149 -179 312 -162 487c19 182 105 353 258 513
c141 147 304 252 489 314c202 67 379 56 530 -33c121 -71 254 -211 400 -420c6 -9 -1 -24 -20 -46c-17 -19 -41 -40 -70 -62c-30 -21 -57 -37 -81 -48c-26 -11 -42 -13 -48 -4c-111 159 -208 273 -292 343c-129 107 -266 155 -411 144c-165 -13 -300 -86 -407 -220
c-108 -135 -150 -286 -125 -452c1 -11 4 -24 7 -40c7 1 13 2 18 2h1364c15 0 11 -14 -12 -42c-8 -9 -17 -18 -27 -29c-4 -4 -8 -7 -11 -10c-1 -1 -2 -3 -3 -4s-1 -1 -2 -1l-7 -6l-8 -6l-16 -14c-13 -10 -26 -19 -37 -26c-30 -20 -56 -30 -79 -30h-1124
c89 -187 233 -322 431 -405c154 -65 306 -78 456 -41c133 33 269 107 409 222l7 5l7 6l17 14c13 11 26 20 37 27zM1011 2104c65 -100 133 -175 202 -225c7 -5 -2 -11 -29 -16c-9 -2 -19 -4 -30 -5c-4 0 -8 0 -11 -1h-3h-2l-14 -1l-17 -1c-14 -1 -26 -1 -36 -1
c-30 1 -52 6 -65 15c-31 23 -64 56 -97 97c-33 -41 -65 -74 -96 -97c-13 -9 -35 -14 -65 -15c-10 0 -22 0 -36 1l-17 1c-7 0 -11 0 -14 1h-2h-3c-3 1 -7 1 -11 1c-11 1 -21 3 -30 5c-27 5 -36 11 -29 16c69 50 137 125 202 225c14 21 27 42 40 62c7 11 27 17 61 17
c35 0 55 -6 62 -17c13 -21 27 -42 40 -62z" />
    <glyph glyph-name="edieresis" unicode="&#xeb;" horiz-adv-x="1904" 
d="M1652 408c31 21 58 30 79 29c15 -1 11 -15 -12 -42c-8 -9 -17 -18 -28 -29l-10 -10l-4 -3c-1 -1 -1 -1 -1 -2c-193 -158 -360 -268 -501 -330c-207 -91 -400 -105 -579 -43c-175 60 -319 157 -432 292c-125 149 -179 312 -162 487c19 182 105 353 258 513
c141 147 304 252 489 314c202 67 379 56 530 -33c121 -71 254 -211 400 -420c6 -9 -1 -24 -20 -46c-17 -19 -41 -40 -70 -62c-30 -21 -57 -37 -81 -48c-26 -11 -42 -13 -48 -4c-111 159 -208 273 -292 343c-129 107 -266 155 -411 144c-165 -13 -300 -86 -407 -220
c-108 -135 -150 -286 -125 -452c1 -11 4 -24 7 -40c7 1 13 2 18 2h1364c15 0 11 -14 -12 -42c-8 -9 -17 -18 -27 -29c-4 -4 -8 -7 -11 -10c-1 -1 -2 -3 -3 -4s-1 -1 -2 -1l-7 -6l-8 -6l-16 -14c-13 -10 -26 -19 -37 -26c-30 -20 -56 -30 -79 -30h-1124
c89 -187 233 -322 431 -405c154 -65 306 -78 456 -41c133 33 269 107 409 222l7 5l7 6l17 14c13 11 26 20 37 27zM642 2123l99 -98c8 -9 12 -19 12 -30c0 -12 -4 -22 -12 -30l-99 -99c-8 -8 -18 -12 -30 -12c-11 0 -21 4 -29 12l-99 99c-8 8 -12 18 -12 30c0 11 4 21 12 30
l99 98c8 9 18 13 29 13c12 0 22 -4 30 -13zM1176 2123l99 -98c8 -9 12 -19 12 -30c0 -12 -4 -22 -12 -30l-99 -99c-8 -8 -18 -12 -30 -12c-11 0 -21 4 -29 12l-99 99c-8 8 -12 18 -12 30c0 11 4 21 12 30l99 98c8 9 18 13 29 13c12 0 22 -4 30 -13z" />
    <glyph glyph-name="igrave" unicode="&#xec;" horiz-adv-x="684" 
d="M403 1456c6 -48 7 -498 3 -1350c0 -29 -37 -63 -110 -104c-28 -15 -53 -27 -76 -34c-23 -8 -34 -9 -34 -2l-1 1316c-3 55 -18 97 -44 127c-25 30 -65 51 -119 62c-15 3 -12 18 11 43c7 9 16 18 27 28c4 3 8 6 11 9l4 3c1 1 1 2 2 2l6 5l7 6c6 5 11 10 16 13
c15 12 28 22 39 29c34 23 60 32 79 28c55 -12 96 -31 124 -58c31 -29 49 -70 55 -123zM351 1862c9 -7 -15 -10 -72 -11c-57 0 -115 17 -173 52s-161 126 -310 273c-8 9 27 14 104 17s121 -2 132 -14c130 -148 236 -254 319 -317z" />
    <glyph glyph-name="iacute" unicode="&#xed;" horiz-adv-x="684" 
d="M404 1456c6 -48 7 -498 3 -1350c0 -29 -37 -63 -110 -104c-28 -15 -53 -27 -76 -34c-23 -8 -34 -9 -34 -2l-1 1316c-3 55 -18 97 -44 127c-25 30 -65 51 -119 62c-15 3 -12 18 11 43c7 9 16 18 27 28c4 3 8 6 11 9l4 3c1 1 1 2 2 2l6 5l7 6c6 5 11 10 16 13
c15 12 28 22 39 29c34 23 60 32 79 28c55 -12 96 -31 124 -58c31 -29 49 -70 55 -123zM587 2177c-149 -147 -252 -238 -310 -273s-116 -52 -173 -52c-57 1 -81 4 -72 11c83 63 189 169 319 317c11 12 55 17 132 14s112 -8 104 -17z" />
    <glyph glyph-name="icircumflex" unicode="&#xee;" horiz-adv-x="684" 
d="M404 1456c6 -48 7 -498 3 -1350c0 -29 -37 -63 -110 -104c-28 -15 -53 -27 -76 -34c-23 -8 -34 -9 -34 -2l-1 1316c-3 55 -18 97 -44 127c-25 30 -65 51 -119 62c-15 3 -12 18 11 43c7 9 16 18 27 28c4 3 8 6 11 9l4 3c1 1 1 2 2 2l6 5l7 6c6 5 11 10 16 13
c15 12 28 22 39 29c34 23 60 32 79 28c55 -12 96 -31 124 -58c31 -29 49 -70 55 -123zM374 2105c65 -100 133 -175 202 -225c7 -5 -2 -11 -29 -16c-9 -2 -19 -4 -30 -5c-3 0 -7 0 -11 -1h-3h-2l-14 -1l-17 -1c-14 -1 -26 -1 -36 -1c-30 1 -51 6 -64 15c-32 23 -64 56 -97 97
c-33 -41 -66 -74 -97 -97c-13 -9 -35 -14 -65 -15c-10 0 -22 0 -36 1l-17 1c-7 0 -11 0 -14 1h-2h-3c-3 1 -7 1 -11 1c-11 1 -21 3 -30 5c-27 5 -36 11 -29 16c69 50 137 125 202 225c14 21 27 42 40 62c7 11 27 17 62 17c34 0 54 -6 61 -17c13 -21 27 -42 40 -62z" />
    <glyph glyph-name="idieresis" unicode="&#xef;" horiz-adv-x="684" 
d="M404 1456c6 -48 7 -498 3 -1350c0 -29 -37 -63 -110 -104c-28 -15 -53 -27 -76 -34c-23 -8 -34 -9 -34 -2l-1 1316c-3 55 -18 97 -44 127c-25 30 -65 51 -119 62c-15 3 -12 18 11 43c7 9 16 18 27 28c4 3 8 6 11 9l4 3c1 1 1 2 2 2l6 5l7 6c6 5 11 10 16 13
c15 12 28 22 39 29c34 23 60 32 79 28c55 -12 96 -31 124 -58c31 -29 49 -70 55 -123zM20 2123l99 -98c8 -9 12 -19 12 -30c0 -12 -4 -22 -12 -30l-99 -99c-8 -8 -18 -12 -29 -12c-12 0 -22 4 -30 12l-99 99c-8 8 -12 18 -12 30c0 11 4 21 12 30l99 98c8 9 18 13 30 13
c11 0 21 -4 29 -13zM554 2123l99 -98c8 -9 12 -19 12 -30c0 -12 -4 -22 -12 -30l-99 -99c-8 -8 -18 -12 -29 -12c-12 0 -22 4 -30 12l-99 99c-8 8 -12 18 -12 30c0 11 4 21 12 30l99 98c8 9 18 13 30 13c11 0 21 -4 29 -13z" />
    <glyph glyph-name="eth" unicode="&#xf0;" horiz-adv-x="1861" 
d="M1064 126c101 14 186 55 256 122c57 55 101 125 131 209c29 79 42 164 40 255c-3 177 -62 336 -176 475c-117 143 -262 228 -435 254c-95 14 -183 14 -262 -1c-100 -19 -176 -58 -227 -119c-115 -136 -171 -292 -168 -468c4 -177 63 -336 176 -475
c117 -143 262 -228 435 -254c71 -10 147 -9 230 2zM790 1857c-62 -47 -119 -88 -170 -124c34 -12 70 -23 108 -32c29 -7 67 -16 114 -25l58 -12l57 -12c92 -20 167 -42 224 -67h2l2 -1l3 -1c5 -2 11 -5 17 -8c19 -9 39 -19 60 -30c67 -36 127 -78 182 -127
c176 -155 264 -343 264 -565c-4 -215 -90 -411 -259 -588c-164 -173 -355 -275 -572 -307c-111 -16 -221 -8 -329 24c-105 31 -200 82 -283 152c-84 71 -149 156 -196 253c-48 103 -71 211 -69 325c3 169 60 329 170 481c105 145 239 256 401 333c-76 16 -140 34 -193 54
c-10 -5 -19 -10 -28 -14c-82 -37 -151 -55 -208 -54c-57 0 -79 4 -67 11c53 30 112 69 178 117c-55 35 -102 79 -141 130c-6 8 1 23 20 45c17 19 41 40 70 61c73 53 116 71 129 53c35 -47 80 -87 133 -122c21 17 42 35 63 53c15 13 64 18 149 15s122 -9 111 -18z" />
    <glyph glyph-name="ntilde" unicode="&#xf1;" horiz-adv-x="2046" 
d="M966 168c98 21 185 49 260 84l-1 1c173 80 289 197 346 350c47 126 62 251 45 376c-19 137 -74 248 -166 335c-96 91 -225 137 -388 137c-162 0 -312 -90 -449 -270s-206 -386 -206 -619v-456c0 -29 -37 -63 -110 -104c-28 -15 -53 -27 -76 -34c-23 -8 -34 -9 -34 -2
l-1 1316c-3 55 -18 97 -44 127c-25 30 -65 51 -119 62c-15 3 -12 18 11 43c7 9 16 18 27 28c4 3 8 6 11 9l4 3c1 1 1 2 2 2l6 5l7 6c6 5 11 10 16 13c15 12 28 22 39 29c34 23 60 32 79 28c55 -12 96 -31 124 -58c31 -29 49 -70 55 -123c6 -48 9 -165 9 -350
c84 141 188 260 313 357c151 117 304 182 460 195c176 15 330 -40 462 -165c125 -119 191 -270 196 -455c5 -179 -47 -339 -154 -479c-75 -97 -162 -184 -263 -260h2c-63 -48 -131 -92 -204 -131h648c15 0 -3 -28 -56 -83c-52 -55 -100 -83 -145 -83h-900
c-75 0 -72 36 9 107c31 23 59 36 84 39l68 13c12 4 23 6 33 7zM903 2060c31 17 56 29 77 34c109 27 208 4 297 -71c11 -9 17 -25 18 -47c0 -8 0 -17 -1 -28l-1 -12c-1 -5 -1 -8 -1 -11c0 0 0 -1 -1 -4c0 -2 0 -5 -1 -8c-2 -8 -4 -15 -6 -22c-6 -20 -12 -27 -19 -21
c-30 25 -60 45 -90 58c-41 19 -82 25 -122 20c-32 -4 -63 -13 -93 -26c-9 -4 -22 -10 -39 -18l-20 -11l-22 -10c-55 -25 -108 -32 -160 -22c-51 9 -88 34 -110 73c-8 14 -12 32 -13 54c0 14 2 32 5 55c0 1 0 3 1 5s1 4 2 7c2 7 4 12 6 16c7 13 14 13 21 0
c14 -24 41 -41 80 -51c39 -11 78 -10 116 3c13 4 26 9 40 16l18 10z" />
    <glyph glyph-name="ograve" unicode="&#xf2;" horiz-adv-x="1888" 
d="M1107 138c100 18 176 57 227 116c109 125 165 278 168 459c-3 173 -62 328 -176 465c-117 141 -263 224 -437 249c-95 14 -183 14 -263 -1c-100 -18 -176 -57 -228 -116c-115 -133 -171 -286 -168 -459s62 -328 176 -465c117 -141 263 -224 437 -249
c96 -14 184 -14 264 1zM266 1311c167 175 360 279 581 312c117 17 230 9 339 -24c105 -31 198 -83 281 -155s148 -158 195 -258c49 -103 74 -212 76 -329c-5 -219 -92 -418 -263 -597c-167 -175 -360 -279 -581 -312c-113 -17 -225 -9 -335 24c-106 32 -202 84 -287 155
c-85 73 -152 158 -199 257c-49 104 -72 214 -70 330c5 219 92 418 263 597zM1054 1863c9 -7 -15 -10 -72 -11c-57 0 -115 17 -173 52s-161 126 -310 273c-8 9 26 14 103 17s122 -2 133 -14c130 -148 236 -254 319 -317z" />
    <glyph glyph-name="oacute" unicode="&#xf3;" horiz-adv-x="1888" 
d="M1107 138c100 18 176 57 227 116c109 125 165 278 168 459c-3 173 -62 328 -176 465c-117 141 -263 224 -437 249c-95 14 -183 14 -263 -1c-100 -18 -176 -57 -228 -116c-115 -133 -171 -286 -168 -459s62 -328 176 -465c117 -141 263 -224 437 -249
c96 -14 184 -14 264 1zM266 1311c167 175 360 279 581 312c117 17 230 9 339 -24c105 -31 198 -83 281 -155s148 -158 195 -258c49 -103 74 -212 76 -329c-5 -219 -92 -418 -263 -597c-167 -175 -360 -279 -581 -312c-113 -17 -225 -9 -335 24c-106 32 -202 84 -287 155
c-85 73 -152 158 -199 257c-49 104 -72 214 -70 330c5 219 92 418 263 597zM1241 2177c-149 -147 -252 -238 -310 -273s-116 -52 -173 -52c-57 1 -81 4 -72 11c83 63 189 169 319 317c11 12 55 17 132 14s112 -8 104 -17z" />
    <glyph glyph-name="ocircumflex" unicode="&#xf4;" horiz-adv-x="1888" 
d="M1107 138c100 18 176 57 227 116c109 125 165 278 168 459c-3 173 -62 328 -176 465c-117 141 -263 224 -437 249c-95 14 -183 14 -263 -1c-100 -18 -176 -57 -228 -116c-115 -133 -171 -286 -168 -459s62 -328 176 -465c117 -141 263 -224 437 -249
c96 -14 184 -14 264 1zM266 1311c167 175 360 279 581 312c117 17 230 9 339 -24c105 -31 198 -83 281 -155s148 -158 195 -258c49 -103 74 -212 76 -329c-5 -219 -92 -418 -263 -597c-167 -175 -360 -279 -581 -312c-113 -17 -225 -9 -335 24c-106 32 -202 84 -287 155
c-85 73 -152 158 -199 257c-49 104 -72 214 -70 330c5 219 92 418 263 597zM972 2103c65 -101 133 -176 202 -226c8 -5 -2 -11 -29 -16c-9 -1 -19 -3 -30 -4c-3 -1 -7 -1 -10 -1l-4 -1h-2l-14 -1l-17 -1c-14 -1 -26 -1 -36 0c-30 1 -51 6 -64 15c-32 23 -64 55 -97 97
c-33 -42 -65 -74 -97 -97c-13 -9 -35 -14 -65 -15c-10 -1 -22 -1 -36 0l-17 1c-6 1 -11 1 -14 1h-2l-3 1c-3 0 -7 0 -11 1c-11 1 -21 3 -30 4c-27 5 -36 11 -28 16c69 50 136 125 202 226c13 21 26 41 39 62c7 11 28 17 62 17s54 -6 61 -17c13 -21 27 -42 40 -62z" />
    <glyph glyph-name="otilde" unicode="&#xf5;" horiz-adv-x="1888" 
d="M1107 138c100 18 176 57 227 116c109 125 165 278 168 459c-3 173 -62 328 -176 465c-117 141 -263 224 -437 249c-95 14 -183 14 -263 -1c-100 -18 -176 -57 -228 -116c-115 -133 -171 -286 -168 -459s62 -328 176 -465c117 -141 263 -224 437 -249
c96 -14 184 -14 264 1zM266 1311c167 175 360 279 581 312c117 17 230 9 339 -24c105 -31 198 -83 281 -155s148 -158 195 -258c49 -103 74 -212 76 -329c-5 -219 -92 -418 -263 -597c-167 -175 -360 -279 -581 -312c-113 -17 -225 -9 -335 24c-106 32 -202 84 -287 155
c-85 73 -152 158 -199 257c-49 104 -72 214 -70 330c5 219 92 418 263 597zM828 2054c31 18 56 30 77 35c109 27 207 4 296 -71c11 -9 18 -25 19 -48c0 -7 0 -16 -1 -27l-1 -12c-1 -5 -1 -9 -1 -11c0 -1 0 -2 -1 -4c0 -3 0 -5 -1 -8c-2 -8 -4 -15 -6 -22
c-6 -20 -12 -27 -19 -22c-31 26 -61 45 -90 58c-41 19 -82 26 -122 21c-32 -4 -63 -13 -93 -26c-9 -4 -22 -10 -39 -19l-21 -10l-21 -10c-55 -25 -108 -32 -160 -23c-51 10 -88 35 -110 74c-9 14 -13 32 -13 54c0 14 2 32 5 54c0 1 0 3 1 5c1 3 1 5 2 8c2 7 4 12 6 16
c7 13 14 13 21 0c14 -25 41 -42 80 -52s78 -9 116 3c13 4 26 10 40 17l18 10z" />
    <glyph glyph-name="odieresis" unicode="&#xf6;" horiz-adv-x="1888" 
d="M1107 138c100 18 176 57 227 116c109 125 165 278 168 459c-3 173 -62 328 -176 465c-117 141 -263 224 -437 249c-95 14 -183 14 -263 -1c-100 -18 -176 -57 -228 -116c-115 -133 -171 -286 -168 -459s62 -328 176 -465c117 -141 263 -224 437 -249
c96 -14 184 -14 264 1zM266 1311c167 175 360 279 581 312c117 17 230 9 339 -24c105 -31 198 -83 281 -155s148 -158 195 -258c49 -103 74 -212 76 -329c-5 -219 -92 -418 -263 -597c-167 -175 -360 -279 -581 -312c-113 -17 -225 -9 -335 24c-106 32 -202 84 -287 155
c-85 73 -152 158 -199 257c-49 104 -72 214 -70 330c5 219 92 418 263 597zM633 2122l99 -99c8 -8 12 -18 12 -29c0 -12 -4 -22 -12 -30l-99 -99c-8 -8 -18 -12 -30 -12c-11 0 -21 4 -30 12l-98 99c-9 8 -13 18 -13 30c0 11 4 21 13 29l98 99c9 8 19 12 30 12
c12 0 22 -4 30 -12zM1167 2122l99 -99c8 -8 12 -18 12 -29c0 -12 -4 -22 -12 -30l-99 -99c-8 -8 -18 -12 -30 -12c-11 0 -21 4 -30 12l-98 99c-9 8 -13 18 -13 30c0 11 4 21 13 29l98 99c9 8 19 12 30 12c12 0 22 -4 30 -12z" />
    <glyph glyph-name="divide" unicode="&#xf7;" horiz-adv-x="928" 
d="M410 834c11 0 21 -4 30 -13l98 -98c9 -9 13 -19 13 -30c0 -12 -4 -22 -13 -30l-98 -99c-9 -8 -19 -12 -30 -12c-12 0 -22 4 -30 12l-99 99c-8 8 -12 18 -12 30c0 11 4 21 12 30l99 98c8 9 18 13 30 13zM410 1350c11 0 21 -4 30 -13l98 -98c9 -9 13 -19 13 -30
c0 -12 -4 -22 -13 -30l-98 -99c-9 -8 -19 -12 -30 -12c-12 0 -22 4 -30 12l-99 99c-8 8 -12 18 -12 30c0 11 4 21 12 30l99 98c8 9 18 13 30 13zM225 1036h530c15 0 11 -14 -13 -41c-7 -9 -16 -19 -27 -29c-3 -4 -7 -7 -10 -10l-4 -4l-1 -1l-7 -6l-8 -6l-16 -13
c-14 -11 -26 -20 -37 -27c-31 -19 -57 -29 -79 -29h-530c-15 0 -11 14 12 41c8 9 17 19 28 30l10 10l3 3c1 1 2 1 2 1l7 6l8 6l16 13c13 11 26 20 37 27c31 19 57 29 79 29z" />
    <glyph glyph-name="oslash" unicode="&#xf8;" horiz-adv-x="1888" 
d="M1170 1321l-557 -1109c70 -38 147 -63 230 -75c96 -14 184 -14 264 1c100 18 176 57 227 116c109 125 165 278 168 459c-3 173 -62 328 -176 465c-47 57 -99 105 -156 143zM576 234l558 1109c-74 43 -156 71 -245 84c-95 14 -183 14 -263 -1c-100 -18 -176 -57 -228 -116
c-115 -133 -171 -286 -168 -459s62 -328 176 -465c51 -62 108 -113 170 -152zM1344 1668l-54 -108c63 -30 122 -69 177 -116c83 -72 148 -158 195 -258c49 -103 74 -212 76 -329c-5 -219 -92 -418 -263 -597c-167 -175 -360 -279 -581 -312c-113 -17 -225 -9 -335 24
c-19 6 -38 13 -57 20l-87 -173l-38 19l85 170c-68 31 -131 70 -190 119c-85 73 -152 158 -199 257c-49 104 -72 214 -70 330c5 219 92 418 263 597c167 175 360 279 581 312c117 17 230 9 339 -24c22 -7 44 -14 65 -23l56 111z" />
    <glyph glyph-name="ugrave" unicode="&#xf9;" horiz-adv-x="1882" 
d="M1503 1014c13 181 -27 314 -120 399c-5 5 1 18 19 39c17 20 39 41 66 63c69 56 114 75 134 57c61 -55 98 -140 113 -253c11 -89 8 -184 -9 -286c-34 -193 -105 -368 -212 -524c-113 -165 -246 -298 -399 -399c-187 -124 -364 -169 -532 -136c-103 20 -195 62 -275 126
c-75 61 -134 137 -176 226c-41 89 -62 183 -63 283c-1 103 21 201 65 296c103 225 287 409 552 550h-643c-15 0 -11 14 12 42c8 9 17 18 28 29l10 10l3 3c1 1 2 1 2 2l7 5l8 7l16 13c13 11 26 19 37 26c31 19 57 29 79 29h898c27 6 54 11 80 15c23 4 29 -3 18 -22
c-4 -7 -10 -14 -17 -23l-9 -9c-3 -3 -5 -5 -8 -7c-12 -11 -23 -21 -33 -30c-13 -12 -26 -22 -38 -31c-32 -23 -60 -36 -85 -39c-23 -4 -46 -8 -68 -13c-10 -3 -20 -5 -29 -6c-181 -41 -327 -108 -438 -201c-129 -110 -203 -251 -221 -423c-17 -168 21 -320 115 -455
c99 -143 232 -223 399 -241c263 -29 465 123 606 456c63 146 99 287 108 422zM1238 1863c9 -7 -15 -10 -72 -11c-57 0 -115 17 -173 52s-161 126 -310 273c-8 9 26 14 103 17s122 -2 133 -14c130 -148 236 -254 319 -317z" />
    <glyph glyph-name="uacute" unicode="&#xfa;" horiz-adv-x="1882" 
d="M1503 1014c13 181 -27 314 -120 399c-5 5 1 18 19 39c17 20 39 41 66 63c69 56 114 75 134 57c61 -55 98 -140 113 -253c11 -89 8 -184 -9 -286c-34 -193 -105 -368 -212 -524c-113 -165 -246 -298 -399 -399c-187 -124 -364 -169 -532 -136c-103 20 -195 62 -275 126
c-75 61 -134 137 -176 226c-41 89 -62 183 -63 283c-1 103 21 201 65 296c103 225 287 409 552 550h-643c-15 0 -11 14 12 42c8 9 17 18 28 29l10 10l3 3c1 1 2 1 2 2l7 5l8 7l16 13c13 11 26 19 37 26c31 19 57 29 79 29h898c27 6 54 11 80 15c23 4 29 -3 18 -22
c-4 -7 -10 -14 -17 -23l-9 -9c-3 -3 -5 -5 -8 -7c-12 -11 -23 -21 -33 -30c-13 -12 -26 -22 -38 -31c-32 -23 -60 -36 -85 -39c-23 -4 -46 -8 -68 -13c-10 -3 -20 -5 -29 -6c-181 -41 -327 -108 -438 -201c-129 -110 -203 -251 -221 -423c-17 -168 21 -320 115 -455
c99 -143 232 -223 399 -241c263 -29 465 123 606 456c63 146 99 287 108 422zM1527 2177c-149 -147 -252 -238 -310 -273s-116 -52 -173 -52c-57 1 -81 4 -72 11c83 63 189 169 319 317c11 12 55 17 132 14s112 -8 104 -17z" />
    <glyph glyph-name="ucircumflex" unicode="&#xfb;" horiz-adv-x="1882" 
d="M1503 1014c13 181 -27 314 -120 399c-5 5 1 18 19 39c17 20 39 41 66 63c69 56 114 75 134 57c61 -55 98 -140 113 -253c11 -89 8 -184 -9 -286c-34 -193 -105 -368 -212 -524c-113 -165 -246 -298 -399 -399c-187 -124 -364 -169 -532 -136c-103 20 -195 62 -275 126
c-75 61 -134 137 -176 226c-41 89 -62 183 -63 283c-1 103 21 201 65 296c103 225 287 409 552 550h-643c-15 0 -11 14 12 42c8 9 17 18 28 29l10 10l3 3c1 1 2 1 2 2l7 5l8 7l16 13c13 11 26 19 37 26c31 19 57 29 79 29h898c27 6 54 11 80 15c23 4 29 -3 18 -22
c-4 -7 -10 -14 -17 -23l-9 -9c-3 -3 -5 -5 -8 -7c-12 -11 -23 -21 -33 -30c-13 -12 -26 -22 -38 -31c-32 -23 -60 -36 -85 -39c-23 -4 -46 -8 -68 -13c-10 -3 -20 -5 -29 -6c-181 -41 -327 -108 -438 -201c-129 -110 -203 -251 -221 -423c-17 -168 21 -320 115 -455
c99 -143 232 -223 399 -241c263 -29 465 123 606 456c63 146 99 287 108 422zM1167 2104c65 -100 133 -175 202 -225c8 -5 -2 -11 -29 -16c-9 -2 -18 -4 -29 -5c-4 0 -8 0 -11 -1h-4h-2l-14 -1l-16 -1c-15 -1 -27 -1 -37 -1c-30 1 -51 6 -64 15c-32 23 -64 56 -97 97
c-33 -41 -65 -74 -97 -97c-13 -9 -35 -14 -64 -15c-11 0 -23 0 -37 1l-16 1c-7 0 -12 0 -15 1h-2h-3c-3 1 -7 1 -11 1c-11 1 -21 3 -30 5c-27 5 -36 11 -28 16c69 50 136 125 202 225c13 21 26 42 39 62c7 11 28 17 62 17s54 -6 61 -17c13 -21 27 -42 40 -62z" />
    <glyph glyph-name="udieresis" unicode="&#xfc;" horiz-adv-x="1882" 
d="M1503 1014c13 181 -27 314 -120 399c-5 5 1 18 19 39c17 20 39 41 66 63c69 56 114 75 134 57c61 -55 98 -140 113 -253c11 -89 8 -184 -9 -286c-34 -193 -105 -368 -212 -524c-113 -165 -246 -298 -399 -399c-187 -124 -364 -169 -532 -136c-103 20 -195 62 -275 126
c-75 61 -134 137 -176 226c-41 89 -62 183 -63 283c-1 103 21 201 65 296c103 225 287 409 552 550h-643c-15 0 -11 14 12 42c8 9 17 18 28 29l10 10l3 3c1 1 2 1 2 2l7 5l8 7l16 13c13 11 26 19 37 26c31 19 57 29 79 29h898c27 6 54 11 80 15c23 4 29 -3 18 -22
c-4 -7 -10 -14 -17 -23l-9 -9c-3 -3 -5 -5 -8 -7c-12 -11 -23 -21 -33 -30c-13 -12 -26 -22 -38 -31c-32 -23 -60 -36 -85 -39c-23 -4 -46 -8 -68 -13c-10 -3 -20 -5 -29 -6c-181 -41 -327 -108 -438 -201c-129 -110 -203 -251 -221 -423c-17 -168 21 -320 115 -455
c99 -143 232 -223 399 -241c263 -29 465 123 606 456c63 146 99 287 108 422zM871 2123l98 -98c9 -9 13 -19 13 -30c0 -12 -4 -22 -13 -30l-98 -99c-9 -8 -19 -12 -30 -12c-12 0 -22 4 -30 12l-99 99c-8 8 -12 18 -12 30c0 11 4 21 12 30l99 98c8 9 18 13 30 13
c11 0 21 -4 30 -13zM1405 2123l98 -98c9 -9 13 -19 13 -30c0 -12 -4 -22 -13 -30l-98 -99c-9 -8 -19 -12 -30 -12c-12 0 -22 4 -30 12l-99 99c-8 8 -12 18 -12 30c0 11 4 21 12 30l99 98c8 9 18 13 30 13c11 0 21 -4 30 -13z" />
    <glyph glyph-name="yacute" unicode="&#xfd;" horiz-adv-x="2120" 
d="M1223 1641c28 17 54 27 79 30c122 16 228 14 317 -5c118 -25 204 -81 258 -168c62 -99 92 -216 90 -351c-1 -125 -28 -243 -80 -356c-189 -417 -604 -874 -1247 -1371c-26 -24 -50 -44 -73 -59c-29 -20 -57 -34 -83 -41c-24 -6 -30 1 -17 21c4 7 10 16 17 25
c3 3 6 7 9 10l6 6l133 123l132 123c107 99 195 182 264 248l-1019 1610c-6 9 1 25 20 47c17 19 41 39 72 60c29 21 56 36 80 47c27 11 42 13 47 5l998 -1578c243 239 398 454 465 644c41 115 60 229 55 342c-5 134 -43 241 -114 321c-107 120 -285 164 -532 131
c-15 -2 -10 11 13 40c8 9 17 19 27 30c3 4 7 8 10 11c3 2 4 3 5 4c27 23 50 40 68 51zM1580 2179c-149 -147 -252 -238 -310 -273s-116 -52 -173 -52c-57 1 -81 4 -72 11c83 63 189 169 319 317c11 12 55 17 132 14s112 -8 104 -17z" />
    <glyph glyph-name="thorn" unicode="&#xfe;" horiz-adv-x="1878" 
d="M404 2104c4 -33 6 -250 5 -651c254 200 499 255 734 166c166 -63 302 -162 409 -299c117 -149 168 -308 152 -475c-15 -151 -79 -294 -192 -428c-98 -117 -222 -217 -373 -298c-78 -42 -149 -74 -213 -96c-84 -29 -160 -43 -229 -41c-97 3 -194 22 -290 58v-810
c0 -29 -37 -63 -110 -104c-28 -16 -53 -28 -76 -35c-23 -8 -34 -9 -34 -2v1525l-1 1316c-3 55 -18 97 -44 127c-25 30 -65 51 -119 62c-15 3 -12 18 11 43c7 9 16 18 27 28c4 3 8 6 11 9l4 3c1 1 1 2 2 2l6 5l7 6c6 5 11 10 16 13c15 12 28 22 39 29c34 23 60 32 79 28
c55 -12 96 -31 124 -58c31 -29 49 -70 55 -123zM409 311c270 -171 521 -204 752 -98c101 47 182 123 243 228c59 103 86 212 81 325c-7 125 -48 245 -123 358c-73 109 -165 196 -277 261c-118 69 -234 105 -348 108c-133 5 -242 -37 -328 -126v-1056z" />
    <glyph glyph-name="ydieresis" unicode="&#xff;" horiz-adv-x="2120" 
d="M1223 1641c28 17 54 27 79 30c122 16 228 14 317 -5c118 -25 204 -81 258 -168c62 -99 92 -216 90 -351c-1 -125 -28 -243 -80 -356c-189 -417 -604 -874 -1247 -1371c-26 -24 -50 -44 -73 -59c-29 -20 -57 -34 -83 -41c-24 -6 -30 1 -17 21c4 7 10 16 17 25
c3 3 6 7 9 10l6 6l133 123l132 123c107 99 195 182 264 248l-1019 1610c-6 9 1 25 20 47c17 19 41 39 72 60c29 21 56 36 80 47c27 11 42 13 47 5l998 -1578c243 239 398 454 465 644c41 115 60 229 55 342c-5 134 -43 241 -114 321c-107 120 -285 164 -532 131
c-15 -2 -10 11 13 40c8 9 17 19 27 30c3 4 7 8 10 11c3 2 4 3 5 4c27 23 50 40 68 51zM800 2123l98 -98c9 -9 13 -19 13 -30c0 -12 -4 -22 -13 -30l-98 -99c-9 -8 -19 -12 -30 -12s-21 4 -30 12l-98 99c-9 8 -13 18 -13 30c0 11 4 21 13 30l98 98c9 8 19 12 30 12
s21 -4 30 -12zM1334 2123l98 -98c9 -9 13 -19 13 -30c0 -12 -4 -22 -13 -30l-98 -99c-9 -8 -19 -12 -30 -12s-21 4 -30 12l-98 99c-9 8 -13 18 -13 30c0 11 4 21 13 30l98 98c9 8 19 12 30 12s21 -4 30 -12z" />
    <glyph glyph-name="dotlessi" unicode="&#x131;" horiz-adv-x="684" 
d="M404 1456c6 -48 7 -498 3 -1350c0 -29 -37 -63 -110 -104c-28 -15 -53 -27 -76 -34c-23 -8 -34 -9 -34 -2l-1 1316c-3 55 -18 97 -44 127c-25 30 -65 51 -119 62c-15 3 -12 18 11 43c7 9 16 18 27 28c4 3 8 6 11 9l4 3c1 1 1 2 2 2l6 5l7 6c6 5 11 10 16 13
c15 12 28 22 39 29c34 23 60 32 79 28c55 -12 96 -31 124 -58c31 -29 49 -70 55 -123z" />
    <glyph glyph-name="circumflex" unicode="&#x2c6;" horiz-adv-x="780" 
d="M416 2008c65 -100 133 -175 202 -225c8 -5 -2 -11 -29 -16c-9 -2 -18 -4 -29 -5c-4 0 -8 0 -11 -1h-4h-2l-14 -1l-16 -1c-15 -1 -27 -1 -37 -1c-30 1 -51 6 -64 15c-32 23 -64 56 -97 97c-33 -41 -65 -74 -97 -97c-13 -9 -35 -14 -64 -15c-11 0 -23 0 -37 1l-16 1
c-7 0 -12 0 -15 1h-1h-4c-3 1 -7 1 -11 1c-11 1 -21 3 -30 5c-27 5 -36 11 -28 16c69 50 136 125 202 225c13 21 26 42 39 62c7 11 28 17 62 17s55 -6 62 -17c13 -21 26 -42 39 -62z" />
    <glyph glyph-name="caron" unicode="&#x2c7;" horiz-adv-x="780" 
d="M214 1837c-66 101 -133 176 -202 225c-8 6 1 12 28 17c9 1 19 3 30 4c4 1 8 1 11 1l4 1h1l15 1l16 1c14 1 26 1 37 0c29 -1 51 -6 64 -15c32 -23 64 -55 97 -97c33 42 65 74 97 97c13 9 34 14 64 15c10 1 22 1 37 0l16 -1c7 -1 11 -1 14 -1h2l4 -1c3 0 7 0 11 -1
c11 -1 20 -3 29 -4c27 -5 37 -11 29 -17c-69 -49 -137 -124 -202 -225c-14 -21 -27 -41 -39 -62c-7 -11 -28 -17 -62 -17s-55 6 -62 17c-13 21 -26 42 -39 62z" />
    <glyph glyph-name="uni02C9" unicode="&#x2c9;" horiz-adv-x="858" 
d="M225 1924h460c15 0 11 -14 -13 -41c-7 -9 -16 -19 -27 -29c-3 -4 -7 -7 -10 -10l-4 -4l-1 -1l-7 -6l-8 -6l-16 -13c-14 -11 -26 -20 -37 -27c-31 -19 -57 -29 -79 -29h-460c-15 0 -11 14 12 41c8 9 17 19 28 30l10 10l3 3c1 1 2 1 2 1l7 6l8 6l16 13c13 11 26 20 37 27
c31 19 57 29 79 29z" />
    <glyph glyph-name="breve" unicode="&#x2d8;" horiz-adv-x="600" 
d="M12 2001c5 12 11 12 17 -1c16 -33 42 -58 78 -74c33 -14 71 -20 114 -18c41 3 80 12 117 29c38 17 67 40 88 67c4 6 9 -1 15 -20c1 -6 3 -13 5 -21c1 -3 1 -5 2 -8v-4l1 -10l1 -12v-25c-1 -19 -6 -35 -14 -46c-25 -32 -58 -57 -99 -75c-39 -17 -81 -26 -124 -25
c-45 1 -85 10 -120 28c-38 20 -65 48 -82 84c-7 13 -10 30 -11 51c0 14 1 31 4 52c0 1 0 3 1 5s1 4 1 7c2 6 4 11 6 16z" />
    <glyph glyph-name="dotaccent" unicode="&#x2d9;" horiz-adv-x="432" 
d="M171 2027l98 -98c9 -9 13 -19 13 -30c0 -12 -4 -22 -13 -30l-98 -99c-9 -8 -19 -12 -30 -12c-12 0 -22 4 -30 12l-99 99c-8 8 -12 18 -12 30c0 11 4 21 12 30l99 98c8 9 18 13 30 13c11 0 21 -4 30 -13zM171 2027l98 -98c9 -9 13 -19 13 -30c0 -12 -4 -22 -13 -30
l-98 -99c-9 -8 -19 -12 -30 -12c-12 0 -22 4 -30 12l-99 99c-8 8 -12 18 -12 30c0 11 4 21 12 30l99 98c8 9 18 13 30 13c11 0 21 -4 30 -13z" />
    <glyph glyph-name="ring" unicode="&#x2da;" horiz-adv-x="551" 
d="M264 1973l-49 49c-4 4 -9 6 -14 6c-6 0 -11 -2 -15 -6l-48 -49c-4 -4 -6 -9 -6 -14c0 -6 2 -11 6 -15l48 -48c4 -4 9 -6 15 -6c5 0 10 2 14 6l49 48c4 4 6 9 6 15c0 5 -2 10 -6 14zM243 2142l141 -141c11 -11 17 -25 17 -42s-6 -31 -17 -43l-141 -140
c-11 -12 -25 -18 -42 -18s-31 6 -43 18l-140 140c-12 12 -18 26 -18 43s6 31 18 42l140 141c12 11 26 17 43 17s31 -6 42 -17z" />
    <glyph glyph-name="ogonek" unicode="&#x2db;" horiz-adv-x="576" 
d="M277 -330c37 -23 79 -37 127 -44c15 -2 15 -6 2 -13c-4 -3 -10 -5 -17 -8c-2 -1 -4 -1 -7 -2c-2 -1 -4 -1 -5 -2c-22 -6 -41 -10 -57 -12c-23 -3 -42 -4 -59 -1c-51 7 -97 22 -137 45s-70 52 -91 87c-22 35 -31 74 -27 116c4 45 22 90 55 135c7 9 23 15 48 20
c9 2 19 3 30 4l7 1l6 1c5 0 9 0 11 1h1h3c3 1 6 1 9 1c9 1 16 1 23 1c21 -1 30 -4 25 -10c-29 -41 -46 -83 -51 -125c-4 -39 4 -76 23 -111c18 -33 45 -61 81 -84z" />
    <glyph glyph-name="tilde" unicode="&#x2dc;" horiz-adv-x="850" 
d="M307 1960c31 18 57 30 78 35c109 27 207 3 296 -71c11 -9 17 -25 18 -48c1 -7 1 -16 0 -27l-2 -13c0 -5 0 -8 -1 -10v-4c-1 -3 -1 -5 -2 -8c-1 -9 -3 -16 -5 -22c-6 -20 -13 -27 -20 -22c-30 25 -60 45 -89 58c-42 19 -83 26 -122 21c-32 -4 -63 -13 -94 -26
c-9 -4 -22 -10 -39 -19l-20 -10l-21 -10c-55 -25 -109 -33 -160 -23c-52 10 -89 34 -111 73c-8 15 -12 33 -12 54c-1 15 1 33 5 55c0 1 0 3 1 5c0 3 0 5 1 7c2 7 4 12 7 17c7 13 13 13 20 0c14 -25 41 -42 80 -52c40 -10 79 -9 117 3c12 4 25 10 39 17l19 10z" />
    <glyph glyph-name="hungarumlaut" unicode="&#x2dd;" horiz-adv-x="902" 
d="M492 2082l-378 -324h-114l336 336zM752 2082l-378 -324h-114l336 336z" />
    <glyph glyph-name="endash" unicode="&#x2013;" 
 />
    <glyph glyph-name="emdash" unicode="&#x2014;" 
 />
    <glyph glyph-name="quoteleft" unicode="&#x2018;" horiz-adv-x="432" 
d="M0 1581l3 16c1 37 16 81 44 132l17 30c7 11 13 21 19 30c15 22 31 39 46 52c15 11 30 15 45 12c17 -3 27 -14 30 -32c3 -17 1 -36 -8 -59c-3 -7 -7 -16 -13 -28l-6 -14l-3 -13l96 -96c8 -8 12 -18 12 -30c0 -11 -4 -21 -12 -30l-99 -98c-8 -9 -18 -13 -30 -13
c-11 0 -21 4 -30 13l-98 98c-9 9 -13 19 -13 30z" />
    <glyph glyph-name="quoteright" unicode="&#x2019;" horiz-adv-x="432" 
d="M282 1713l-3 -16c-1 -37 -16 -81 -44 -132l-17 -30c-7 -11 -13 -21 -19 -30c-15 -22 -31 -39 -46 -52c-15 -11 -30 -15 -45 -12c-17 3 -27 14 -30 32c-3 17 -1 36 8 59c3 7 7 16 13 28l6 14l3 13l-96 96c-8 8 -12 18 -12 30c0 11 4 21 12 30l99 98c8 9 18 13 30 13
c11 0 21 -4 30 -13l98 -98c9 -9 13 -19 13 -30z" />
    <glyph glyph-name="quotesinglbase" unicode="&#x201a;" horiz-adv-x="432" 
d="M282 111l-3 -16c-1 -37 -16 -81 -44 -132l-17 -30c-7 -11 -13 -21 -19 -30c-15 -22 -31 -39 -46 -52c-15 -11 -30 -15 -45 -12c-17 3 -27 14 -30 32c-3 17 -1 36 8 59c3 7 7 16 13 28l6 14l3 13l-96 96c-8 8 -12 18 -12 30c0 11 4 21 12 30l99 98c8 9 18 13 30 13
c11 0 21 -4 30 -13l98 -98c9 -9 13 -19 13 -30z" />
    <glyph glyph-name="quotedblleft" unicode="&#x201c;" horiz-adv-x="762" 
d="M330 1581l3 16c1 37 16 81 44 132l17 30c7 11 13 21 19 30c15 22 31 39 46 52c15 11 30 15 45 12c17 -3 27 -14 30 -32c3 -17 1 -36 -8 -59c-3 -7 -7 -16 -13 -28l-6 -14l-3 -13l96 -96c8 -8 12 -18 12 -30c0 -11 -4 -21 -12 -30l-99 -98c-8 -9 -18 -13 -30 -13
c-11 0 -21 4 -30 13l-98 98c-9 9 -13 19 -13 30zM0 1581l3 16c1 37 16 81 44 132l17 30c7 11 13 21 19 30c15 22 31 39 46 52c15 11 30 15 45 12c17 -3 27 -14 30 -32c3 -17 1 -36 -8 -59c-3 -7 -7 -16 -13 -28l-6 -14l-3 -13l96 -96c8 -8 12 -18 12 -30
c0 -11 -4 -21 -12 -30l-99 -98c-8 -9 -18 -13 -30 -13c-11 0 -21 4 -30 13l-98 98c-9 9 -13 19 -13 30z" />
    <glyph glyph-name="quotedblright" unicode="&#x201d;" horiz-adv-x="762" 
d="M282 1713l-3 -16c-1 -37 -16 -81 -44 -132l-17 -30c-7 -11 -13 -21 -19 -30c-15 -22 -31 -39 -46 -52c-15 -11 -30 -15 -45 -12c-17 3 -27 14 -30 32c-3 17 -1 36 8 59c3 7 7 16 13 28l6 14l3 13l-96 96c-8 8 -12 18 -12 30c0 11 4 21 12 30l99 98c8 9 18 13 30 13
c11 0 21 -4 30 -13l98 -98c9 -9 13 -19 13 -30zM612 1713l-3 -16c-1 -37 -16 -81 -44 -132l-17 -30c-7 -11 -13 -21 -19 -30c-15 -22 -31 -39 -46 -52c-15 -11 -30 -15 -45 -12c-17 3 -27 14 -30 32c-3 17 -1 36 8 59c3 7 7 16 13 28l6 14l3 13l-96 96c-8 8 -12 18 -12 30
c0 11 4 21 12 30l99 98c8 9 18 13 30 13c11 0 21 -4 30 -13l98 -98c9 -9 13 -19 13 -30z" />
    <glyph glyph-name="quotedblbase" unicode="&#x201e;" horiz-adv-x="762" 
d="M282 111l-3 -16c-1 -37 -16 -81 -44 -132l-17 -30c-7 -11 -13 -21 -19 -30c-15 -22 -31 -39 -46 -52c-15 -11 -30 -15 -45 -12c-17 3 -27 14 -30 32c-3 17 -1 36 8 59c3 7 7 16 13 28l6 14l3 13l-96 96c-8 8 -12 18 -12 30c0 11 4 21 12 30l99 98c8 9 18 13 30 13
c11 0 21 -4 30 -13l98 -98c9 -9 13 -19 13 -30zM612 111l-3 -16c-1 -37 -16 -81 -44 -132l-17 -30c-7 -11 -13 -21 -19 -30c-15 -22 -31 -39 -46 -52c-15 -11 -30 -15 -45 -12c-17 3 -27 14 -30 32c-3 17 -1 36 8 59c3 7 7 16 13 28l6 14l3 13l-96 96c-8 8 -12 18 -12 30
c0 11 4 21 12 30l99 98c8 9 18 13 30 13c11 0 21 -4 30 -13l98 -98c9 -9 13 -19 13 -30z" />
    <glyph glyph-name="dagger" unicode="&#x2020;" 
 />
    <glyph glyph-name="daggerdbl" unicode="&#x2021;" 
 />
    <glyph glyph-name="bullet" unicode="&#x2022;" 
 />
    <glyph glyph-name="ellipsis" unicode="&#x2026;" 
 />
    <glyph glyph-name="guilsinglleft" unicode="&#x2039;" 
 />
    <glyph glyph-name="guilsinglright" unicode="&#x203a;" 
 />
    <glyph glyph-name="fraction" unicode="&#x2044;" 
 />
    <glyph glyph-name="fraction" unicode="&#x2215;" 
 />
    <glyph glyph-name="franc" unicode="&#x20a3;" 
 />
    <glyph glyph-name="lira" unicode="&#x20a4;" 
 />
    <glyph glyph-name="peseta" unicode="&#x20a7;" 
 />
    <glyph glyph-name="Euro" unicode="&#x20ac;" horiz-adv-x="1979" 
d="M1258 1435c-155 59 -300 75 -434 48c-95 -19 -176 -67 -245 -143c-63 -71 -107 -157 -134 -258h1028c14 0 10 -13 -12 -39c-7 -8 -15 -17 -25 -27c-4 -4 -7 -7 -10 -9l-3 -3c-1 -1 -1 -2 -2 -2l-7 -6l-6 -5l-16 -13c-13 -10 -24 -18 -35 -25c-28 -18 -53 -27 -74 -27
h-862c-2 -45 0 -87 7 -128l5 -34h1040c14 0 10 -13 -12 -39c-7 -9 -15 -18 -25 -27c-4 -3 -7 -7 -10 -10l-3 -3c-1 -1 -1 -1 -2 -1l-7 -6l-6 -5l-16 -12c-13 -11 -24 -19 -35 -26c-28 -18 -53 -27 -74 -27h-806c80 -222 209 -374 388 -456c132 -61 277 -84 436 -69
c153 15 294 62 423 141c0 1 1 1 2 1l3 3c4 2 8 4 12 7c12 6 23 11 33 16c31 13 45 12 42 -2c-6 -20 -22 -41 -49 -62c-10 -9 -22 -17 -35 -26c-5 -3 -10 -7 -17 -11l-7 -5l-8 -5c-163 -101 -327 -168 -491 -200c-194 -37 -368 -21 -521 49c-119 55 -220 139 -304 252
c-83 112 -136 234 -159 367h-204c-14 0 -10 13 12 38c7 9 16 19 26 28l9 9c1 1 2 3 3 4s2 1 2 1l7 5l7 6l15 12c13 10 24 19 35 26c29 18 53 27 74 27h1c1 25 3 48 6 70c4 31 10 61 17 92h-214c-14 0 -10 13 12 38c7 9 16 18 26 29l9 9l3 3c1 1 2 1 2 1l7 5l7 6l15 13
c13 9 24 18 35 25c29 18 53 27 74 27h80c57 118 137 224 241 317c103 91 215 159 338 204c157 57 329 59 516 8c189 -52 334 -145 435 -278c5 -7 -1 -21 -19 -41c-17 -19 -39 -38 -66 -59c-69 -50 -109 -67 -121 -50c-82 109 -201 193 -357 252z" />
    <glyph glyph-name="uni2116" unicode="&#x2116;" 
 />
    <glyph glyph-name="trademark" unicode="&#x2122;" horiz-adv-x="2838" 
d="M1339 -136c57 0 113 5 168 14c-10 9 -22 18 -37 27l-21 11l-21 11c-37 19 -62 36 -77 51c-23 -9 -53 -25 -89 -46l-42 -25c-16 -10 -31 -18 -44 -24c42 -13 96 -20 163 -19zM324 154l-7 -23l-7 -24c-5 -18 -11 -33 -16 -44c21 -11 51 -20 91 -27l26 -4l26 -3
c21 -3 38 -6 51 -8c-59 83 -100 154 -123 213c-15 -16 -29 -43 -41 -80zM2263 128l-31 -55c-12 -20 -23 -37 -32 -52l48 8l49 8c38 7 69 14 92 22c-17 57 -38 115 -61 175c-16 -23 -38 -59 -65 -106zM449 397l-23 -36l-23 -37c60 -161 147 -294 262 -400
c121 -111 267 -188 440 -230c118 -29 240 -37 365 -23c127 15 239 49 336 103c-13 6 -29 12 -47 18l-26 7l-25 7c-44 13 -76 24 -96 35c-156 -51 -312 -58 -468 -22c-143 33 -266 97 -371 192c-147 133 -238 283 -271 450c-17 -15 -35 -37 -53 -64zM2393 461l-8 -23l-9 -23
c-15 -37 -21 -66 -20 -86c1 -17 10 -41 27 -72l11 -18l11 -19c8 -15 14 -27 17 -38c13 -37 28 -92 43 -166c-140 -61 -309 -79 -506 -55c-187 22 -336 72 -447 150c-15 -9 -33 -23 -55 -42l-26 -23c-10 -8 -19 -15 -28 -21c127 -109 317 -176 568 -199
c258 -25 473 9 646 100c-24 209 -95 404 -214 583c-1 -15 -4 -31 -10 -48zM555 528c23 -145 85 -274 185 -389c2 -2 5 -6 10 -12l11 -13c10 -11 19 -21 26 -29c22 -22 39 -34 52 -36c17 -3 41 2 74 15c11 4 24 10 41 17l19 8c7 3 13 6 18 7c17 7 40 18 69 32l31 16l32 14
c-160 185 -267 373 -322 564c-95 -54 -177 -119 -246 -194zM1560 158l32 -15l33 -15c25 -11 49 -22 72 -32c5 -1 10 -4 17 -7l18 -8c17 -7 30 -13 39 -17c31 -13 56 -18 73 -15c25 3 58 32 101 86c15 19 31 40 48 64c6 9 12 19 18 28c5 7 9 14 13 21c43 71 78 162 104 275
c-27 37 -64 73 -111 109c-18 13 -39 29 -64 46l-66 44c-70 -211 -179 -399 -327 -564zM938 -24l10 -6l10 -7l22 -15c37 -24 66 -36 87 -36c14 -1 36 7 67 24c9 5 22 13 37 22l18 11c6 3 11 6 15 9c151 85 279 192 384 322c111 137 188 288 232 455c-15 9 -34 18 -58 28
l-30 12l-30 13c-137 -421 -402 -691 -797 -811c7 -3 18 -10 33 -21zM1337 329c141 126 239 293 294 502c-84 24 -180 36 -289 36s-206 -12 -290 -36c43 -179 138 -346 285 -502zM66 -74c181 -82 385 -118 612 -109c-13 17 -35 40 -66 67l-18 15l-17 16c-13 12 -23 24 -32 35
c-130 9 -239 29 -327 61c66 331 254 592 564 782l-13 68c-4 26 -8 49 -11 70c-400 -220 -631 -555 -692 -1005zM1019 1030l4 -34l3 -34c3 -26 7 -47 12 -64c207 57 419 52 636 -14c185 -56 340 -143 464 -261c-1 10 -2 24 -1 41v23l1 23c1 39 -2 66 -10 83
c-5 13 -24 31 -56 52c-11 7 -25 16 -42 25l-20 12l-10 6l-9 5c-133 77 -281 129 -443 158c-188 33 -364 26 -529 -21zM583 907c12 6 26 14 41 23l39 25c33 19 61 33 86 42c1 13 1 30 0 51l-1 52c0 42 2 74 6 96c-73 -73 -130 -169 -171 -289zM1933 1154l1 -25l1 -27
c1 -46 -1 -79 -6 -100c25 -10 54 -25 88 -46l41 -25c16 -9 30 -17 42 -24c-33 101 -88 198 -166 289c-1 -9 -1 -23 -1 -42zM825 1267c-42 -438 80 -793 365 -1066l99 76c-127 127 -220 280 -279 461c-68 207 -78 418 -29 634c-62 -31 -114 -66 -156 -105zM1062 1410l-17 -71
c-6 -27 -11 -51 -14 -74c-9 -56 -13 -111 -12 -164c215 51 430 51 645 0c1 53 -3 108 -12 164c-3 23 -8 47 -14 74l-17 71c-73 31 -166 47 -279 47c-112 -1 -205 -16 -280 -47zM1896 1416l7 -26l6 -26c5 -20 7 -38 6 -54c95 -85 167 -185 218 -301c58 -133 82 -274 71 -424
c-8 -111 -39 -218 -94 -320c-40 -75 -97 -153 -171 -235c10 1 22 0 37 -2l20 -4l20 -4c35 -7 61 -9 79 -4c17 4 39 27 67 69c9 15 20 31 31 50c3 7 7 14 12 21l5 9l4 7c51 91 86 193 107 304c23 125 24 246 2 365c-53 282 -200 503 -441 663c-3 -16 1 -45 14 -88zM360 713
l10 9l5 5l4 5l13 13l14 14c13 13 23 22 30 29c24 23 45 41 62 53c24 112 67 215 130 308c63 96 142 175 236 236c210 138 453 173 729 105c-25 60 -51 112 -76 157c-332 37 -607 -36 -824 -220c-207 -175 -324 -415 -352 -719c5 -3 11 -2 19 5zM1279 1802l-31 -37l-30 -38
c15 -1 34 -1 57 -1h31l33 1c55 1 97 -1 126 -5c-12 21 -31 47 -58 76l-31 35c-12 13 -22 25 -30 36c-21 -17 -44 -39 -67 -67zM943 1651l43 16c16 6 30 11 43 15c33 10 64 17 94 21c69 109 142 194 219 256c253 -227 384 -521 393 -881c11 -3 22 -6 34 -10l32 -12
c29 -11 51 -18 67 -21c1 253 -48 474 -147 662c-83 157 -208 302 -375 433c-167 -109 -302 -268 -403 -479zM844 -281l-29 18c-23 13 -40 21 -52 23c-11 2 -28 1 -50 -2l-27 -5c-11 -1 -20 -2 -27 -3c-243 -9 -463 36 -659 133c6 196 64 390 175 583c7 11 16 25 27 40l15 21
l16 20c24 33 38 59 42 76c5 25 8 58 8 99l-1 24v23c0 17 1 32 2 43c44 337 234 604 569 801c105 256 268 455 489 598c215 -137 380 -338 493 -602c157 -93 280 -198 369 -316c103 -137 168 -299 195 -485c1 -12 2 -26 2 -43v-22v-24c-1 -40 2 -72 7 -96
c4 -17 18 -43 42 -76l15 -20l16 -20c11 -16 20 -30 27 -41c103 -179 163 -370 180 -573c-78 -51 -192 -91 -341 -119c-106 -20 -214 -28 -323 -24c-7 1 -16 2 -26 3l-27 4c-22 4 -39 5 -51 3c-13 -2 -32 -10 -56 -24l-15 -9l-15 -9c-11 -7 -21 -12 -28 -15
c-135 -64 -267 -100 -398 -109h-133c-149 14 -284 50 -403 109c-7 4 -17 9 -28 16z" />
    <glyph glyph-name="partialdiff" unicode="&#x2202;" 
 />
    <glyph glyph-name="increment" unicode="&#x2206;" 
 />
    <glyph glyph-name="product" unicode="&#x220f;" 
 />
    <glyph glyph-name="summation" unicode="&#x2211;" 
 />
    <glyph glyph-name="minus" unicode="&#x2212;" 
 />
    <glyph glyph-name="radical" unicode="&#x221a;" 
 />
    <glyph glyph-name="infinity" unicode="&#x221e;" 
 />
    <glyph glyph-name="integral" unicode="&#x222b;" 
 />
    <glyph glyph-name="approxequal" unicode="&#x2248;" 
 />
    <glyph glyph-name="lessequal" unicode="&#x2264;" 
 />
    <glyph glyph-name="greaterequal" unicode="&#x2265;" 
 />
    <glyph glyph-name="knot_1" horiz-adv-x="2700" 
d="M919 1653l-42 -16c101 211 236 370 403 479c167 -132 292 -277 375 -434c99 -188 148 -408 146 -661c-16 3 -38 10 -66 21l-32 12c-12 4 -23 7 -34 9c-9 361 -140 655 -394 882c-76 -62 -149 -147 -218 -256c-30 -4 -61 -11 -94 -22c-13 -4 -28 -9 -44 -14zM1212 1788
c24 28 47 50 68 67c8 -11 18 -24 30 -37l31 -35c27 -29 46 -54 57 -75c-28 4 -70 6 -126 5l-32 -1l-32 -1c-23 0 -41 1 -56 2l30 37zM294 698c-8 -7 -14 -8 -19 -4c28 304 145 543 352 718c217 185 492 258 824 220c25 -44 50 -96 75 -156c-275 68 -518 33 -728 -105
c-94 -62 -173 -141 -237 -236c-63 -94 -106 -197 -130 -309c-17 -11 -37 -29 -61 -52c-8 -7 -18 -17 -30 -30l-14 -14l-13 -13l-4 -4l-5 -5zM1829 1402c-12 43 -16 72 -13 88c241 -160 388 -381 440 -664c22 -118 21 -240 -2 -365c-21 -111 -56 -212 -107 -303l-4 -7l-5 -9
c-4 -8 -8 -15 -12 -22c-11 -19 -21 -35 -31 -50c-28 -41 -50 -64 -66 -69c-18 -5 -45 -3 -80 4l-20 4l-20 4c-15 3 -27 4 -37 3c74 81 131 160 172 235c55 101 86 208 94 319c11 151 -13 292 -71 425c-51 115 -124 216 -218 301c0 15 -2 33 -6 54l-6 26zM979 1324l17 71
c75 31 168 47 279 47c113 1 207 -15 280 -47l17 -71c6 -27 11 -51 14 -73c9 -56 13 -111 12 -164c-215 51 -430 51 -645 0c-1 53 2 108 11 164c4 22 9 46 15 73zM758 1253c43 39 95 74 157 104c-49 -215 -39 -427 28 -634c59 -181 153 -334 280 -461l-100 -76
c-285 273 -406 628 -365 1067zM1867 1140c0 18 0 32 1 42c78 -91 133 -188 166 -289c-12 6 -26 14 -42 24l-42 25c-33 20 -62 35 -87 45c4 21 6 54 5 101v26zM517 893c41 120 97 216 170 289c-4 -23 -6 -55 -5 -97l1 -52v-50c-25 -9 -54 -23 -86 -43l-40 -24
c-15 -9 -29 -17 -40 -23zM956 982l-3 34c165 47 341 53 529 20c162 -28 310 -81 443 -158l9 -5l9 -5l21 -12c16 -10 30 -19 42 -26c31 -21 50 -38 56 -51c8 -17 11 -45 10 -84l-1 -23l-1 -22c0 -17 1 -31 2 -42c-124 118 -279 205 -464 262c-217 65 -429 70 -636 13
c-5 17 -9 38 -12 64zM0 -89c61 451 292 786 692 1005c3 -21 6 -44 11 -69l13 -68c-310 -190 -498 -451 -564 -782c87 -32 196 -53 327 -62c9 -11 19 -22 32 -34l17 -16l18 -16c31 -27 53 -49 66 -67c-227 -9 -431 28 -612 109zM1270 314c-146 157 -241 324 -284 503
c84 24 180 36 289 36s205 -12 289 -36c-54 -209 -152 -376 -294 -503zM872 -38c-15 10 -26 17 -33 21c395 120 660 390 796 810l31 -12l30 -13c24 -10 43 -19 58 -27c-45 -167 -122 -319 -232 -455c-106 -131 -234 -238 -384 -322c-5 -3 -10 -6 -16 -10l-17 -10
c-16 -9 -28 -17 -37 -22c-31 -17 -53 -25 -68 -25c-21 1 -50 13 -87 37l-21 14l-10 7zM1526 128l-33 16c148 165 257 353 327 564l66 -44c25 -17 47 -33 64 -47c47 -36 85 -72 112 -108c-26 -113 -61 -204 -104 -275c-4 -7 -8 -14 -13 -21c-6 -9 -12 -19 -19 -28
c-16 -24 -32 -46 -47 -65c-43 -53 -76 -82 -101 -85c-17 -3 -42 2 -73 15c-9 3 -22 9 -39 16l-18 9c-7 3 -12 5 -17 7c-23 9 -47 20 -72 31zM488 513c69 76 152 141 247 195c55 -191 162 -379 322 -564l-32 -15l-32 -15c-28 -14 -51 -25 -69 -32c-5 -2 -10 -4 -17 -7l-19 -9
c-17 -7 -30 -13 -41 -17c-33 -12 -57 -17 -74 -14c-13 1 -31 13 -52 36c-7 7 -16 17 -26 28l-12 14c-5 5 -8 9 -10 12c-100 115 -162 244 -185 388zM2327 447c5 17 9 33 10 47c118 -179 189 -374 213 -583c-172 -91 -387 -124 -646 -99c-251 23 -440 90 -567 199
c9 5 18 12 28 21l26 22c22 20 40 34 55 42c111 -77 260 -127 446 -150c198 -24 367 -6 507 55c-15 75 -30 130 -43 166c-4 11 -10 23 -18 38l-10 19l-11 19c-17 31 -26 54 -27 71c-1 20 5 49 20 87l9 23zM382 382c19 28 37 50 54 65c33 -167 123 -317 270 -450
c105 -95 229 -159 372 -192c156 -36 312 -29 467 21c21 -10 53 -21 97 -34l25 -7l25 -8c19 -5 35 -11 48 -17c-98 -55 -210 -89 -337 -103c-125 -14 -246 -7 -365 22c-172 42 -319 119 -440 230c-115 106 -202 240 -261 401l22 36zM2197 113c27 47 49 83 64 107
c24 -61 45 -120 62 -176c-23 -8 -54 -15 -92 -22l-49 -8l-49 -8c10 15 21 33 33 53zM258 139c12 37 26 64 41 81c23 -59 64 -131 123 -214c-13 3 -30 5 -51 8l-26 4l-26 4c-41 7 -71 16 -91 27c5 11 11 26 16 44l7 23zM1272 -151c-67 0 -121 7 -163 20c13 6 28 14 44 23
l43 25c35 22 65 38 89 47c15 -15 40 -32 77 -51l21 -11l20 -12c15 -9 28 -17 38 -26c-56 -9 -112 -14 -169 -15z" />
    <glyph glyph-name="knot_2" horiz-adv-x="3050" 
d="M344 1148c-101 -75 -191 -174 -268 -297c71 -121 161 -220 270 -295c9 -32 19 -64 31 -95c-161 96 -286 226 -377 390c93 167 217 297 373 390c-11 -31 -20 -62 -29 -93zM1151 -248c76 -107 176 -200 301 -277c119 76 217 168 295 277c33 9 65 20 96 31
c-94 -160 -224 -286 -391 -379c-165 84 -296 210 -395 378c30 -11 61 -21 94 -30zM2586 758c33 32 60 65 81 98l-40 44l-40 44c-3 33 -7 66 -12 99c67 -55 123 -119 168 -192c-53 -75 -110 -138 -169 -191c5 32 9 65 12 98zM2552 1148c-9 33 -19 65 -30 96
c151 -91 277 -220 378 -388c-88 -167 -215 -299 -380 -396c11 31 21 62 30 93c106 76 197 177 274 303c-81 125 -171 222 -272 292zM1388 2019l-1 -1l-26 -25c-33 -2 -66 -6 -99 -11c57 68 121 123 190 165c72 -51 134 -107 185 -166c-33 5 -65 9 -97 12
c-31 30 -63 54 -98 73c-1 1 -10 -7 -27 -22c-5 -5 -11 -10 -18 -17c-2 -1 -4 -3 -7 -6zM1353 -283c29 -29 62 -55 99 -80c41 33 72 59 94 80c33 3 65 7 97 13c-55 -67 -120 -125 -196 -174c-75 55 -138 113 -191 173c32 -5 64 -9 97 -12zM310 943c-31 -31 -56 -64 -77 -97
c33 -37 58 -65 77 -84c3 -33 7 -67 13 -100c-67 56 -124 121 -171 194c55 72 111 133 170 184c-5 -33 -9 -65 -12 -97zM1744 1958c-77 105 -176 195 -297 270c-117 -71 -213 -161 -290 -269c-33 -9 -66 -19 -97 -30c89 149 213 270 372 364l4 3l3 3c3 3 5 4 8 5
c165 -91 295 -216 391 -376c-31 11 -62 21 -94 30zM1994 305c0 -29 -2 -51 -5 -66c4 3 8 5 11 7l13 9c10 7 19 14 26 20c19 17 26 30 21 40c-9 -3 -19 -5 -31 -6l-17 -2c-7 -1 -13 -1 -18 -2zM2208 333c-17 -4 -33 -7 -47 -8c-90 -137 -225 -239 -406 -304
c-199 -73 -396 -76 -591 -10l8 -22l8 -23c7 -17 15 -29 24 -36c208 -64 422 -46 643 55c94 43 177 97 250 162c71 64 123 130 155 198l-22 -6zM1447 441c-103 -57 -218 -97 -344 -121c-1 -40 1 -81 8 -122c3 -16 6 -34 10 -54l13 -52c83 -41 189 -62 316 -61
c126 0 231 20 316 61l12 53c4 21 7 39 10 54c7 42 9 82 8 121c-107 18 -223 58 -349 121zM760 402c6 -8 11 -15 14 -21c212 -31 414 1 607 96c-29 25 -51 41 -65 50c-69 -40 -159 -67 -270 -80c-114 -13 -220 -8 -317 15c3 -14 10 -28 19 -42l6 -9zM861 304
c-9 0 -17 0 -26 1c28 -32 52 -54 71 -66v66c-3 1 -11 1 -24 0h-10zM648 335c59 -93 129 -170 212 -233c4 -3 11 -8 20 -16l12 -9l11 -10c19 -15 32 -20 38 -15c-6 23 -13 51 -20 86c-137 94 -238 231 -303 410c-72 198 -76 394 -11 587c0 4 -2 6 -5 5
c-21 -13 -47 -25 -76 -36c-36 -133 -41 -274 -15 -425c25 -143 70 -257 137 -344zM743 1181l-55 -11c-39 -84 -59 -189 -59 -316c-1 -129 19 -234 59 -316c55 -17 131 -29 228 -36c20 111 60 227 121 349l-18 40l-18 40c-14 32 -25 60 -34 83c-24 64 -39 126 -46 186
c-38 1 -79 -2 -122 -9c-15 -2 -33 -5 -56 -10zM648 1357c30 12 59 19 86 21c91 138 229 240 416 307c203 73 398 75 586 6c-6 24 -20 53 -41 86c-227 55 -442 36 -645 -57c-183 -83 -317 -204 -402 -363zM866 1395c14 2 27 3 40 3c-1 5 -2 12 -1 21l1 11l1 11
c2 17 0 26 -6 28c-4 -7 -9 -13 -16 -20l-9 -8l-10 -9c-15 -14 -26 -27 -31 -39l15 1zM1452 1261c102 60 217 101 344 122c1 39 -1 79 -8 120c-3 16 -6 34 -10 54l-12 53c-81 43 -187 64 -316 64s-235 -21 -316 -64c-11 -39 -19 -76 -25 -111c-7 -45 -9 -83 -6 -116
c103 -16 220 -57 349 -122zM2147 1286c-9 13 -16 25 -22 36c-111 17 -222 15 -334 -5c-101 -18 -192 -48 -273 -91c5 -3 11 -7 16 -11l14 -10c12 -9 24 -18 36 -25c69 39 161 64 274 77c107 11 212 9 313 -6zM2030 1436c-14 15 -28 26 -41 33c-1 -6 -1 -12 0 -19l3 -16
c3 -14 3 -26 2 -36c6 1 13 2 20 1l10 -2l9 -1c15 -3 26 -3 32 2l-18 19zM2353 593l20 10c55 225 37 440 -54 644c-83 184 -205 322 -366 414l7 -25l7 -24c5 -19 9 -37 12 -52c105 -75 189 -173 254 -292c71 -132 106 -273 105 -422c0 -43 -6 -94 -17 -153
c-4 -20 -9 -44 -15 -71l-4 -16l-3 -15c-3 -12 -5 -21 -7 -28c9 5 22 12 41 20zM1235 796c-15 -21 -27 -40 -36 -56c152 -195 351 -312 597 -349l-1 16l-2 16c-2 12 -4 23 -7 34c-219 47 -402 160 -551 339zM1193 643c-9 9 -17 18 -24 26c-22 -54 -37 -101 -46 -142
c33 4 81 18 142 41c-10 13 -26 30 -48 51zM1392 1069c-17 14 -34 24 -51 30c-188 -135 -306 -333 -354 -592c22 -1 46 0 71 5c20 117 62 223 125 320c49 75 119 154 209 237zM1220 1087c21 20 36 36 45 48c-47 17 -95 32 -142 45l10 -39c3 -15 7 -27 10 -37
c9 -28 19 -50 31 -65c6 7 13 15 22 24zM1665 912c15 24 25 44 30 61c-157 185 -354 300 -592 344c0 -29 2 -52 5 -71c204 -38 390 -149 557 -334zM1635 1135c29 -35 61 -67 96 -96c7 17 15 39 24 66l11 35l10 35c-49 -4 -96 -17 -141 -40zM1275 856
c45 -68 104 -127 177 -177c82 69 139 128 172 177c-73 84 -132 141 -177 171c-60 -49 -117 -106 -172 -171zM1754 602c-10 29 -19 51 -28 67c-9 -13 -24 -29 -44 -49l-24 -25c-9 -9 -16 -18 -23 -27c70 -23 118 -37 143 -41l-12 37zM1508 634c12 -9 31 -19 56 -31
c186 148 302 345 349 592c-5 3 -16 3 -33 1c-16 -1 -29 -3 -38 -6c-21 -115 -63 -221 -127 -318c-49 -75 -118 -154 -207 -238zM1114 961l12 18c-39 68 -66 161 -80 278c-13 113 -10 219 7 318c-5 -5 -12 -9 -19 -14l-21 -12c-17 -11 -29 -21 -36 -30
c-15 -113 -12 -224 9 -333c19 -105 51 -194 97 -269c3 6 10 15 20 28zM1817 785c-9 -23 -22 -44 -41 -65c39 -75 65 -165 78 -272c13 -112 9 -217 -12 -315l22 10c8 3 15 7 20 10c15 9 27 19 34 30c17 112 15 224 -5 335c-19 105 -51 194 -96 267zM2152 522l54 10
c43 83 64 189 64 320c1 131 -21 237 -64 318c-81 20 -155 30 -222 30c-37 -156 -80 -271 -127 -344c68 -135 109 -253 122 -354c36 1 75 5 118 11zM2494 598c-140 -97 -308 -149 -505 -157c3 -22 5 -45 5 -70c180 11 337 53 470 128c-11 -30 -22 -59 -35 -87
c-23 -11 -47 -22 -71 -31c-121 -201 -266 -345 -435 -430c-10 -27 -21 -52 -33 -77c-28 -13 -57 -25 -88 -36c13 22 24 44 35 67c-23 -8 -55 -18 -96 -30c-12 -23 -25 -45 -39 -66c-31 -7 -61 -13 -91 -18c15 21 26 42 34 63c-53 -15 -118 -22 -197 -21
c-77 0 -143 7 -198 21c11 -22 24 -43 39 -63c-31 5 -63 11 -95 18c-95 140 -148 307 -157 501c-5 -1 -11 -1 -18 -1l-18 1c-16 1 -28 0 -35 -1c13 -179 56 -336 131 -471c-30 10 -59 22 -88 35c-11 23 -22 47 -32 72c-199 116 -341 260 -425 431c-29 11 -57 23 -84 36
c-14 31 -26 62 -37 94c25 -13 50 -25 75 -34c-15 26 -25 55 -30 86c-25 13 -50 28 -74 44c-7 31 -13 61 -18 92c22 -17 44 -32 66 -45c-14 53 -20 121 -19 205c1 63 5 130 14 200c-23 -17 -44 -32 -62 -46c5 31 11 63 18 94c143 99 313 154 510 164l-2 16l-2 16
c-2 12 -2 23 -1 34c-183 -9 -341 -52 -476 -129c10 29 21 58 33 86c26 12 52 23 78 33c108 191 253 336 436 435c11 28 22 55 35 82c29 13 60 25 91 36c-15 -26 -28 -52 -40 -77l12 4l12 4l23 8c17 6 31 11 44 14c15 26 31 51 48 75c31 7 62 12 93 17c-6 -8 -11 -15 -16 -21
c-7 -9 -12 -18 -17 -25c-13 -18 -17 -27 -12 -26c137 28 270 30 400 5c-17 25 -32 48 -46 67c32 -5 64 -11 96 -19c97 -141 151 -310 162 -508h10h10h20c15 1 23 6 26 15c-8 174 -51 329 -128 464c30 -10 59 -22 87 -35c13 -26 25 -53 36 -80c202 -119 344 -262 425 -430
c29 -11 57 -22 84 -35c13 -31 25 -62 36 -94c-25 13 -49 24 -74 33c11 -16 21 -45 30 -86c25 -14 49 -28 72 -43c7 -30 13 -60 17 -91c-21 17 -42 31 -64 43c14 -53 20 -122 19 -206c-1 -60 -5 -126 -14 -199l59 45c-5 -32 -12 -64 -19 -96zM2513 694c8 53 12 107 12 161
c0 52 -4 104 -12 156c-4 31 -10 61 -17 91c27 -18 54 -38 79 -59c5 -33 9 -66 12 -99c2 -30 3 -60 3 -89c0 -32 -1 -64 -4 -97s-7 -66 -12 -98c-26 -23 -53 -43 -80 -62c7 32 14 64 19 96zM463 1289c-12 -28 -23 -57 -33 -86c-29 -17 -58 -35 -86 -55c9 31 18 62 29 93
c57 159 147 300 268 421s260 210 419 267c31 11 64 21 97 30c-19 -26 -37 -54 -54 -84c-31 -11 -62 -23 -91 -36c-121 -54 -229 -128 -324 -223c-96 -96 -171 -205 -225 -327zM1009 -127c29 -13 58 -25 88 -35c17 -30 35 -59 54 -86c-33 9 -64 19 -94 30
c-157 57 -296 146 -415 265s-208 257 -265 414c-12 31 -22 63 -31 95c27 -19 56 -35 85 -50c11 -32 23 -63 37 -94c112 -248 292 -428 541 -539zM1449 1997c30 0 60 -1 91 -4c32 -3 64 -7 97 -12c23 -25 44 -52 63 -80c-32 8 -64 14 -96 19c-52 7 -104 11 -155 11
c-52 0 -103 -4 -154 -11c-31 -5 -62 -10 -93 -17c19 28 39 54 60 79c33 5 66 9 99 11c29 3 59 4 88 4zM2429 412c13 28 24 57 35 87c31 17 59 35 86 54c-9 -31 -19 -62 -30 -93c-58 -157 -146 -294 -265 -412c-119 -119 -256 -207 -412 -265c-31 -11 -63 -22 -96 -31
c20 29 38 57 55 86c31 11 60 23 88 36c247 111 427 291 539 538zM1887 1837c-28 13 -57 25 -87 35c-17 30 -36 59 -56 86c32 -9 63 -19 94 -30c159 -57 298 -146 418 -266c120 -121 209 -260 266 -418c11 -31 21 -63 30 -96l-84 50c-11 32 -23 63 -36 94
c-54 121 -128 228 -222 323c-94 94 -202 168 -323 222zM307 855c0 29 1 58 3 88c3 32 7 64 12 97c25 23 52 43 79 62c-7 -31 -13 -63 -18 -94c-7 -51 -11 -102 -11 -153c0 -54 4 -108 12 -161c5 -31 11 -61 18 -92c-27 19 -54 39 -79 60c-6 33 -10 67 -13 100
c-2 31 -3 62 -3 93zM1449 -287c-32 0 -64 1 -96 4c-33 3 -65 7 -97 12c-22 26 -43 53 -62 80c32 -7 64 -13 95 -18c53 -8 107 -12 160 -12c54 0 108 4 162 12c30 5 60 11 91 18c-18 -28 -38 -54 -59 -79c-32 -6 -64 -10 -97 -13s-65 -4 -97 -4z" />
    <glyph glyph-name="knot_3" horiz-adv-x="2775" 
d="M1820 724v-15c-47 -197 -137 -378 -268 -541l-33 -36c-12 -14 -22 -26 -31 -37c-13 -10 -25 -22 -34 -35c-1 -1 -4 -3 -9 -7l-5 -4l-6 -5c-9 -8 -8 -12 1 -13c112 -94 269 -156 471 -186c209 -31 397 -16 563 45c-81 385 -297 663 -649 834zM721 -155
c200 31 358 93 474 186c-198 198 -331 429 -400 693c-351 -185 -564 -463 -639 -834c167 -62 355 -77 565 -45zM1317 124c197 180 322 398 376 654c-101 41 -227 62 -380 62s-280 -21 -381 -62c63 -281 191 -499 385 -654zM912 919c113 39 247 59 401 59
c153 0 287 -20 400 -59c17 397 -117 723 -400 976c-284 -253 -418 -579 -401 -976zM1849 875c218 -115 389 -252 513 -412c142 -183 230 -403 263 -661c-191 -99 -425 -132 -702 -97c-267 33 -469 112 -606 238c-181 -128 -382 -208 -605 -239c-257 -36 -495 -3 -712 98
c35 259 122 479 262 660c125 163 297 299 514 408c-16 277 28 519 132 728c87 175 221 333 400 473c387 -281 568 -679 541 -1196z" />
    <glyph glyph-name="knot_4" horiz-adv-x="2838" 
d="M1339 -136c57 0 113 5 168 14c-10 9 -22 18 -37 27l-21 11l-21 11c-37 19 -62 36 -77 51c-23 -9 -53 -25 -89 -46l-42 -25c-16 -10 -31 -18 -44 -24c42 -13 96 -20 163 -19zM324 154l-7 -23l-7 -24c-5 -18 -11 -33 -16 -44c21 -11 51 -20 91 -27l26 -4l26 -3
c21 -3 38 -6 51 -8c-59 83 -100 154 -123 213c-15 -16 -29 -43 -41 -80zM2263 128l-31 -55c-12 -20 -23 -37 -32 -52l48 8l49 8c38 7 69 14 92 22c-17 57 -38 115 -61 175c-16 -23 -38 -59 -65 -106zM449 397l-23 -36l-23 -37c60 -161 147 -294 262 -400
c121 -111 267 -188 440 -230c118 -29 240 -37 365 -23c127 15 239 49 336 103c-13 6 -29 12 -47 18l-26 7l-25 7c-44 13 -76 24 -96 35c-156 -51 -312 -58 -468 -22c-143 33 -266 97 -371 192c-147 133 -238 283 -271 450c-17 -15 -35 -37 -53 -64zM2393 461l-8 -23l-9 -23
c-15 -37 -21 -66 -20 -86c1 -17 10 -41 27 -72l11 -18l11 -19c8 -15 14 -27 17 -38c13 -37 28 -92 43 -166c-140 -61 -309 -79 -506 -55c-187 22 -336 72 -447 150c-15 -9 -33 -23 -55 -42l-26 -23c-10 -8 -19 -15 -28 -21c127 -109 317 -176 568 -199
c258 -25 473 9 646 100c-24 209 -95 404 -214 583c-1 -15 -4 -31 -10 -48zM555 528c23 -145 85 -274 185 -389c2 -2 5 -6 10 -12l11 -13c10 -11 19 -21 26 -29c22 -22 39 -34 52 -36c17 -3 41 2 74 15c11 4 24 10 41 17l19 8c7 3 13 6 18 7c17 7 40 18 69 32l31 16l32 14
c-160 185 -267 373 -322 564c-95 -54 -177 -119 -246 -194zM1560 158l32 -15l33 -15c25 -11 49 -22 72 -32c5 -1 10 -4 17 -7l18 -8c17 -7 30 -13 39 -17c31 -13 56 -18 73 -15c25 3 58 32 101 86c15 19 31 40 48 64c6 9 12 19 18 28c5 7 9 14 13 21c43 71 78 162 104 275
c-27 37 -64 73 -111 109c-18 13 -39 29 -64 46l-66 44c-70 -211 -179 -399 -327 -564zM938 -24l10 -6l10 -7l22 -15c37 -24 66 -36 87 -36c14 -1 36 7 67 24c9 5 22 13 37 22l18 11c6 3 11 6 15 9c151 85 279 192 384 322c111 137 188 288 232 455c-15 9 -34 18 -58 28
l-30 12l-30 13c-137 -421 -402 -691 -797 -811c7 -3 18 -10 33 -21zM1337 329c141 126 239 293 294 502c-84 24 -180 36 -289 36s-206 -12 -290 -36c43 -179 138 -346 285 -502zM66 -74c181 -82 385 -118 612 -109c-13 17 -35 40 -66 67l-18 15l-17 16c-13 12 -23 24 -32 35
c-130 9 -239 29 -327 61c66 331 254 592 564 782l-13 68c-4 26 -8 49 -11 70c-400 -220 -631 -555 -692 -1005zM1019 1030l4 -34l3 -34c3 -26 7 -47 12 -64c207 57 419 52 636 -14c185 -56 340 -143 464 -261c-1 10 -2 24 -1 41v23l1 23c1 39 -2 66 -10 83
c-5 13 -24 31 -56 52c-11 7 -25 16 -42 25l-20 12l-10 6l-9 5c-133 77 -281 129 -443 158c-188 33 -364 26 -529 -21zM583 907c12 6 26 14 41 23l39 25c33 19 61 33 86 42c1 13 1 30 0 51l-1 52c0 42 2 74 6 96c-73 -73 -130 -169 -171 -289zM1933 1154l1 -25l1 -27
c1 -46 -1 -79 -6 -100c25 -10 54 -25 88 -46l41 -25c16 -9 30 -17 42 -24c-33 101 -88 198 -166 289c-1 -9 -1 -23 -1 -42zM825 1267c-42 -438 80 -793 365 -1066l99 76c-127 127 -220 280 -279 461c-68 207 -78 418 -29 634c-62 -31 -114 -66 -156 -105zM1062 1410l-17 -71
c-6 -27 -11 -51 -14 -74c-9 -56 -13 -111 -12 -164c215 51 430 51 645 0c1 53 -3 108 -12 164c-3 23 -8 47 -14 74l-17 71c-73 31 -166 47 -279 47c-112 -1 -205 -16 -280 -47zM1896 1416l7 -26l6 -26c5 -20 7 -38 6 -54c95 -85 167 -185 218 -301c58 -133 82 -274 71 -424
c-8 -111 -39 -218 -94 -320c-40 -75 -97 -153 -171 -235c10 1 22 0 37 -2l20 -4l20 -4c35 -7 61 -9 79 -4c17 4 39 27 67 69c9 15 20 31 31 50c3 7 7 14 12 21l5 9l4 7c51 91 86 193 107 304c23 125 24 246 2 365c-53 282 -200 503 -441 663c-3 -16 1 -45 14 -88zM360 713
l10 9l5 5l4 5l13 13l14 14c13 13 23 22 30 29c24 23 45 41 62 53c24 112 67 215 130 308c63 96 142 175 236 236c210 138 453 173 729 105c-25 60 -51 112 -76 157c-332 37 -607 -36 -824 -220c-207 -175 -324 -415 -352 -719c5 -3 11 -2 19 5zM1279 1802l-31 -37l-30 -38
c15 -1 34 -1 57 -1h31l33 1c55 1 97 -1 126 -5c-12 21 -31 47 -58 76l-31 35c-12 13 -22 25 -30 36c-21 -17 -44 -39 -67 -67zM943 1651l43 16c16 6 30 11 43 15c33 10 64 17 94 21c69 109 142 194 219 256c253 -227 384 -521 393 -881c11 -3 22 -6 34 -10l32 -12
c29 -11 51 -18 67 -21c1 253 -48 474 -147 662c-83 157 -208 302 -375 433c-167 -109 -302 -268 -403 -479zM844 -281l-29 18c-23 13 -40 21 -52 23c-11 2 -28 1 -50 -2l-27 -5c-11 -1 -20 -2 -27 -3c-243 -9 -463 36 -659 133c6 196 64 390 175 583c7 11 16 25 27 40l15 21
l16 20c24 33 38 59 42 76c5 25 8 58 8 99l-1 24v23c0 17 1 32 2 43c44 337 234 604 569 801c105 256 268 455 489 598c215 -137 380 -338 493 -602c157 -93 280 -198 369 -316c103 -137 168 -299 195 -485c1 -12 2 -26 2 -43v-22v-24c-1 -40 2 -72 7 -96
c4 -17 18 -43 42 -76l15 -20l16 -20c11 -16 20 -30 27 -41c103 -179 163 -370 180 -573c-78 -51 -192 -91 -341 -119c-106 -20 -214 -28 -323 -24c-7 1 -16 2 -26 3l-27 4c-22 4 -39 5 -51 3c-13 -2 -32 -10 -56 -24l-15 -9l-15 -9c-11 -7 -21 -12 -28 -15
c-135 -64 -267 -100 -398 -109h-133c-149 14 -284 50 -403 109c-7 4 -17 9 -28 16z" />
    <glyph glyph-name="cross_1" horiz-adv-x="2334" 
d="M1419 323v-153c149 74 261 185 335 334h-146c-1 49 -19 90 -54 123c-34 34 -75 51 -124 51s-90 -17 -125 -52s-53 -77 -53 -126c0 -47 16 -88 49 -122c32 -34 71 -52 118 -55zM589 504h-159c74 -149 185 -260 334 -334v152h2c49 0 91 17 126 52s52 77 52 126
s-17 91 -52 126s-77 52 -126 52c-48 0 -89 -17 -124 -51c-34 -33 -52 -74 -53 -123zM764 1337v157c-149 -74 -260 -185 -334 -334h159c0 -49 17 -91 52 -126s76 -52 125 -52s91 17 126 52s52 77 52 126s-17 90 -52 125s-77 52 -126 52h-2zM1608 1160h146
c-74 149 -186 260 -335 334v-157c-47 -3 -86 -21 -118 -55c-33 -35 -49 -75 -49 -122c0 -49 18 -91 53 -126s76 -52 125 -52s91 17 126 52s52 77 52 126zM2184 1160v-656h-165c-50 -139 -127 -262 -232 -367s-228 -183 -368 -232v-165h-655v165c-139 49 -262 127 -367 232
s-183 228 -232 367h-165v656h165c49 139 127 262 232 367s228 183 367 232v165h655v-165c140 -49 263 -127 368 -232s182 -228 232 -367h165z" />
    <glyph glyph-name="E" unicode="E" horiz-adv-x="1925" 
d="M615 1482c-107 -18 -186 -60 -239 -125c-118 -145 -172 -318 -163 -519c15 6 29 9 40 9h586c393 32 552 152 477 359c-29 82 -87 148 -173 197c-71 41 -155 67 -253 80c-103 13 -195 13 -275 -1zM1018 85c227 -3 434 67 623 212l2 1l2 1l5 4c4 3 8 7 13 10
c13 9 26 17 37 24c35 20 56 25 63 14c8 -11 -3 -30 -32 -57c-10 -9 -21 -18 -34 -28c-5 -3 -9 -7 -14 -11l-5 -3l-3 -3c-141 -108 -271 -187 -388 -236c-281 -118 -550 -124 -805 -17c-107 45 -201 110 -280 197c-82 89 -138 190 -169 301c-62 225 -34 443 83 653
c113 201 278 347 495 437c111 46 226 70 344 73c126 3 241 -21 344 -70c93 -44 160 -102 201 -175c47 -83 50 -170 7 -260c-55 -115 -158 -217 -311 -305h480c15 0 11 -13 -12 -40c-7 -9 -16 -18 -26 -29l-10 -10l-3 -3c-1 -1 -2 -1 -2 -1l-7 -6l-7 -6l-16 -13
c-13 -11 -24 -19 -35 -26c-29 -19 -55 -29 -76 -29h-898c-81 -5 -197 -6 -348 -3c32 -133 92 -246 181 -338c163 -168 363 -254 601 -258z" />
    </font>
</defs>
</svg>
